<svg width="193" height="29" viewBox="0 0 193 29" fill="none" xmlns="http://www.w3.org/2000/svg">
<path d="M2.6077e-08 28.56V0.455016H13.825V8.22501L11.025 8.36502C10.5583 8.38835 10.01 8.40001 9.38 8.40001C8.56333 8.40001 8.14333 8.35335 8.12 8.26002C8.02667 8.12002 7.95667 7.72335 7.91 7.07001L7.805 6.05501L6.86 5.49502C6.20667 5.09835 5.845 4.90001 5.775 4.90001C5.705 4.90001 5.67 8.30668 5.67 15.12V25.375L6.3 24.85C6.44 24.7333 6.615 24.5817 6.825 24.395C7.05833 24.2083 7.19833 24.1033 7.245 24.08C7.47833 23.9167 7.60667 23.345 7.63 22.365L7.7 20.86H13.51V28.56H2.6077e-08ZM26.3241 10.255C26.2541 10.1383 26.0908 10.0683 25.8341 10.045C25.6008 9.99835 25.0174 9.97502 24.0841 9.97502C22.6841 9.97502 21.9724 10.0333 21.9491 10.15C21.8558 10.4767 21.8091 12.285 21.8091 15.575C21.8091 17.2783 21.8324 18.165 21.8791 18.235C21.9491 18.3983 22.0891 18.5033 22.2991 18.55C22.5091 18.5733 23.1158 18.585 24.1191 18.585H26.2541L26.3591 17.85C26.4291 17.29 26.4641 16.0183 26.4641 14.035C26.4641 11.6783 26.4174 10.4183 26.3241 10.255ZM17.7141 1.22501C17.7841 1.08501 18.1224 1.00335 18.7291 0.980015C19.3591 0.933348 21.1208 0.910014 24.0141 0.910014C28.0741 0.910014 30.2208 0.968347 30.4541 1.08501C30.6641 1.20168 30.7691 1.76168 30.7691 2.76502V3.11501C30.7691 3.67501 30.7108 4.03668 30.5941 4.20002C30.4774 4.36335 30.1741 4.44501 29.6841 4.44501C29.5674 4.44501 29.0424 4.42168 28.1091 4.37502L26.1141 4.27001L26.2191 4.62001C26.2891 4.78335 26.3241 5.08668 26.3241 5.53002V6.12502L27.3741 6.16002C28.0741 6.18335 28.6341 6.34668 29.0541 6.65002C29.8941 7.18668 30.4658 7.94502 30.7691 8.92502C30.8391 9.20502 30.8741 10.395 30.8741 12.495V14.77C30.8508 17.2433 30.8158 18.76 30.7691 19.32C30.7458 19.88 30.6524 20.3233 30.4891 20.65C29.8591 21.8167 28.8791 22.4 27.5491 22.4H27.3391H26.9541C26.7208 22.4 26.5574 22.435 26.4641 22.505C26.3941 22.5517 26.3591 22.68 26.3591 22.89C26.3591 23.1233 26.3708 23.31 26.3941 23.45C26.4874 24.0567 26.5691 24.3833 26.6391 24.43L26.7441 24.465C26.8141 24.465 26.8958 24.465 26.9891 24.465C27.1058 24.465 27.2224 24.465 27.3391 24.465C27.4558 24.465 27.6658 24.465 27.9691 24.465C28.2958 24.4417 28.5641 24.43 28.7741 24.43L30.7691 24.36V26.11C30.7691 27.3 30.7108 27.9533 30.5941 28.07C30.4774 28.1867 28.4824 28.245 24.6091 28.245C21.9724 28.245 20.0941 28.21 18.9741 28.14L17.5741 28.035V24.395H19.0791C19.7558 24.395 20.4791 24.36 21.2491 24.29C21.5991 24.2433 21.7974 24.185 21.8441 24.115C21.9141 24.045 21.9608 23.835 21.9841 23.485V23.24C21.9841 22.8667 21.8791 22.61 21.6691 22.47C21.4824 22.33 21.1208 22.26 20.5841 22.26C19.6041 22.26 18.8108 21.9567 18.2041 21.35C17.7608 20.9067 17.5041 20.3817 17.4341 19.775C17.3641 19.145 17.3291 17.3367 17.3291 14.35V8.99502L17.7491 8.26002C18.2158 7.49002 18.7174 6.94168 19.2541 6.61502C19.8141 6.28835 20.5491 6.12502 21.4591 6.12502H22.1591V4.30501H17.5741V2.90502C17.5741 2.01835 17.6208 1.45835 17.7141 1.22501ZM46.3189 14.28C46.3189 12.6933 46.3306 10.3133 46.3539 7.14002C46.3773 3.96668 46.3889 1.58668 46.3889 1.53184e-05H50.8339V14.315C50.8339 23.835 50.7989 28.5483 50.7289 28.455C50.5889 28.315 48.9906 26.32 45.9339 22.47C43.8573 19.8567 42.0606 17.6517 40.5439 15.855L39.8089 15.05V21.7C39.8089 26.1333 39.7156 28.385 39.5289 28.455C39.2489 28.525 38.3623 28.56 36.8689 28.56H34.4189V14.35C34.4189 11.62 34.4189 9.15835 34.4189 6.96502C34.4423 4.74835 34.4656 3.05668 34.4889 1.89001C34.5123 0.723348 34.5356 0.151682 34.5589 0.175015C34.6056 0.175015 35.7256 1.49335 37.9189 4.13001C39.8089 6.39335 41.7456 8.73835 43.7289 11.165L46.3189 14.28ZM54.3807 6.30002V0.770014H68.2057V6.44002H64.6357L64.7057 17.57L64.8107 28.7H59.0007V22.89C59.0007 18.3867 58.9657 14.6533 58.8957 11.69L58.7907 6.30002H54.3807ZM81.019 8.05001L81.124 4.58501H80.424C79.934 4.58501 79.6657 4.66668 79.619 4.83002C79.5723 5.04002 79.409 5.88002 79.129 7.35001C78.849 8.79668 78.464 10.8267 77.974 13.44C77.484 16.0533 77.0173 18.48 76.574 20.72L76.469 21.07H80.914V16.31C80.914 12.6933 80.949 9.94001 81.019 8.05001ZM75.979 1.15502C76.0023 1.03835 76.2473 0.968349 76.714 0.945016C77.1807 0.921681 78.5457 0.910014 80.809 0.910014H85.604L85.639 11.62C85.639 19.74 85.6157 24.36 85.569 25.48L85.464 28.56H81.229L81.334 27.265L81.404 25.97H76.469V28.735H71.744V25.97C71.744 24.5233 71.8257 22.8783 71.989 21.035C72.1757 19.3083 72.6773 16.6017 73.494 12.915C73.6107 12.4017 73.9957 10.5233 74.649 7.28002C75.3257 4.03668 75.769 1.99502 75.979 1.15502ZM89.1406 28.56V0.455016H102.966V8.22501L100.166 8.36502C99.699 8.38835 99.1506 8.40001 98.5206 8.40001C97.704 8.40001 97.284 8.35335 97.2606 8.26002C97.1673 8.12002 97.0973 7.72335 97.0506 7.07001L96.9456 6.05501L96.0006 5.49502C95.3473 5.09835 94.9856 4.90001 94.9156 4.90001C94.8456 4.90001 94.8106 8.30668 94.8106 15.12V25.375L95.4406 24.85C95.5806 24.7333 95.7556 24.5817 95.9656 24.395C96.199 24.2083 96.339 24.1033 96.3856 24.08C96.619 23.9167 96.7473 23.345 96.7706 22.365L96.8406 20.86H102.651V28.56H89.1406ZM106.505 6.30002V0.770014H120.33V6.44002H116.76L116.83 17.57L116.935 28.7H111.125V22.89C111.125 18.3867 111.09 14.6533 111.02 11.69L110.915 6.30002H106.505ZM133.143 8.05001L133.248 4.58501H132.548C132.058 4.58501 131.79 4.66668 131.743 4.83002C131.696 5.04002 131.533 5.88002 131.253 7.35001C130.973 8.79668 130.588 10.8267 130.098 13.44C129.608 16.0533 129.141 18.48 128.698 20.72L128.593 21.07H133.038V16.31C133.038 12.6933 133.073 9.94001 133.143 8.05001ZM128.103 1.15502C128.126 1.03835 128.371 0.968349 128.838 0.945016C129.305 0.921681 130.67 0.910014 132.933 0.910014H137.728L137.763 11.62C137.763 19.74 137.74 24.36 137.693 25.48L137.588 28.56H133.353L133.458 27.265L133.528 25.97H128.593V28.735H123.868V25.97C123.868 24.5233 123.95 22.8783 124.113 21.035C124.3 19.3083 124.801 16.6017 125.618 12.915C125.735 12.4017 126.12 10.5233 126.773 7.28002C127.45 4.03668 127.893 1.99502 128.103 1.15502ZM153.165 14.28C153.165 12.6933 153.176 10.3133 153.2 7.14002C153.223 3.96668 153.235 1.58668 153.235 1.53184e-05H157.68V14.315C157.68 23.835 157.645 28.5483 157.575 28.455C157.435 28.315 155.836 26.32 152.78 22.47C150.703 19.8567 148.906 17.6517 147.39 15.855L146.655 15.05V21.7C146.655 26.1333 146.561 28.385 146.375 28.455C146.095 28.525 145.208 28.56 143.715 28.56H141.265V14.35C141.265 11.62 141.265 9.15835 141.265 6.96502C141.288 4.74835 141.311 3.05668 141.335 1.89001C141.358 0.723348 141.381 0.151682 141.405 0.175015C141.451 0.175015 142.571 1.49335 144.765 4.13001C146.655 6.39335 148.591 8.73835 150.575 11.165L153.165 14.28ZM170.186 10.255C170.116 10.1383 169.953 10.0683 169.696 10.045C169.463 9.99835 168.88 9.97502 167.946 9.97502C166.546 9.97502 165.835 10.0333 165.811 10.15C165.718 10.4767 165.671 12.285 165.671 15.575C165.671 17.2783 165.695 18.165 165.741 18.235C165.811 18.3983 165.951 18.5033 166.161 18.55C166.371 18.5733 166.978 18.585 167.981 18.585H170.116L170.221 17.85C170.291 17.29 170.326 16.0183 170.326 14.035C170.326 11.6783 170.28 10.4183 170.186 10.255ZM161.576 1.22501C161.646 1.08501 161.985 1.00335 162.591 0.980015C163.221 0.933348 164.983 0.910014 167.876 0.910014C171.936 0.910014 174.083 0.968347 174.316 1.08501C174.526 1.20168 174.631 1.76168 174.631 2.76502V3.11501C174.631 3.67501 174.573 4.03668 174.456 4.20002C174.34 4.36335 174.036 4.44501 173.546 4.44501C173.43 4.44501 172.905 4.42168 171.971 4.37502L169.976 4.27001L170.081 4.62001C170.151 4.78335 170.186 5.08668 170.186 5.53002V6.12502L171.236 6.16002C171.936 6.18335 172.496 6.34668 172.916 6.65002C173.756 7.18668 174.328 7.94502 174.631 8.92502C174.701 9.20502 174.736 10.395 174.736 12.495V14.77C174.713 17.2433 174.678 18.76 174.631 19.32C174.608 19.88 174.515 20.3233 174.351 20.65C173.721 21.8167 172.741 22.4 171.411 22.4H171.201H170.816C170.583 22.4 170.42 22.435 170.326 22.505C170.256 22.5517 170.221 22.68 170.221 22.89C170.221 23.1233 170.233 23.31 170.256 23.45C170.35 24.0567 170.431 24.3833 170.501 24.43L170.606 24.465C170.676 24.465 170.758 24.465 170.851 24.465C170.968 24.465 171.085 24.465 171.201 24.465C171.318 24.465 171.528 24.465 171.831 24.465C172.158 24.4417 172.426 24.43 172.636 24.43L174.631 24.36V26.11C174.631 27.3 174.573 27.9533 174.456 28.07C174.34 28.1867 172.345 28.245 168.471 28.245C165.835 28.245 163.956 28.21 162.836 28.14L161.436 28.035V24.395H162.941C163.618 24.395 164.341 24.36 165.111 24.29C165.461 24.2433 165.66 24.185 165.706 24.115C165.776 24.045 165.823 23.835 165.846 23.485V23.24C165.846 22.8667 165.741 22.61 165.531 22.47C165.345 22.33 164.983 22.26 164.446 22.26C163.466 22.26 162.673 21.9567 162.066 21.35C161.623 20.9067 161.366 20.3817 161.296 19.775C161.226 19.145 161.191 17.3367 161.191 14.35V8.99502L161.611 8.26002C162.078 7.49002 162.58 6.94168 163.116 6.61502C163.676 6.28835 164.411 6.12502 165.321 6.12502H166.021V4.30501H161.436V2.90502C161.436 2.01835 161.483 1.45835 161.576 1.22501ZM178.281 10.85V0.910014H192.106V8.12002H187.486V4.90001H183.496V9.73002L192.106 18.34V28.56H178.281V20.58H183.811V25.48H186.576V19.81C182.89 15.8433 180.125 12.8567 178.281 10.85Z" fill="black"/>
</svg>
