<svg width="92" height="73" viewBox="0 0 92 73" fill="none" xmlns="http://www.w3.org/2000/svg">
<path d="M0 0H91.8858V72.7858H0" fill="#BD3D44"/>
<path d="M0 8.38538H91.8858H0ZM0 19.561H91.8858H0ZM0 30.7822H91.8858H0ZM0 42.0033H91.8858H0ZM0 53.2244H91.8858H0ZM0 64.4456H91.8858H0Z" fill="black"/>
<path d="M0 5.58008V11.1906H91.8858V5.58008H0ZM0 16.7557V22.3663H91.8858V16.7557H0ZM0 27.9769V33.5874H91.8858V27.9769H0ZM0 39.198V44.8086H91.8858V39.198H0ZM0 50.4191V56.0297H91.8858V50.4191H0ZM0 61.6403V67.2508H91.8858V61.6403H0Z" fill="white"/>
<path d="M0 0H52.3749V39.1982H0" fill="#192F5D"/>
<path d="M47.9529 33.0568L49.245 37.151L45.9429 34.5732H49.9629L46.6607 37.151L47.9529 33.0568ZM39.3386 33.0568L40.6307 37.151L37.3286 34.5732H41.3486L38.0464 37.151L39.3386 33.0568ZM30.5807 33.0568L31.8729 37.151L28.5707 34.5732H32.5907L29.2886 37.151L30.5807 33.0568ZM21.8228 33.0568L23.115 37.151L19.8128 34.5732H23.8328L20.5307 37.151L21.8228 33.0568ZM13.065 33.0568L14.3571 37.151L11.055 34.5732H15.075L11.7728 37.151L13.065 33.0568ZM4.30712 33.0568L5.59926 37.151L2.29712 34.5732H6.31712L3.01498 37.151L4.30712 33.0568ZM43.6457 29.1143L44.9379 33.2085L41.6357 30.6306H45.6557L42.3536 33.2085L43.6457 29.1143ZM34.8879 29.1143L36.18 33.2085L32.8779 30.6306H36.8979L33.5957 33.2085L34.8879 29.1143ZM26.2736 29.1143L27.5657 33.2085L24.2636 30.6306H28.2836L24.9814 33.2085L26.2736 29.1143ZM17.5157 29.1143L18.8078 33.2085L15.5057 30.6306H19.5257L16.2236 33.2085L17.5157 29.1143ZM8.75784 29.1143L10.05 33.2085L6.74784 30.6306H10.7678L7.46569 33.2085L8.75784 29.1143ZM47.9529 25.1717L49.245 29.2659L45.9429 26.6881H49.9629L46.6607 29.2659L47.9529 25.1717ZM39.3386 25.1717L40.6307 29.2659L37.3286 26.6881H41.3486L38.0464 29.2659L39.3386 25.1717ZM30.5807 25.1717L31.8729 29.2659L28.5707 26.6881H32.5907L29.2886 29.2659L30.5807 25.1717ZM21.8228 25.1717L23.115 29.2659L19.8128 26.6881H23.8328L20.5307 29.2659L21.8228 25.1717ZM13.065 25.1717L14.3571 29.2659L11.055 26.6881H15.075L11.7728 29.2659L13.065 25.1717ZM4.30712 25.1717L5.59926 29.2659L2.29712 26.6881H6.31712L3.01498 29.2659L4.30712 25.1717ZM43.6457 21.3808L44.9379 25.475L41.6357 22.8971H45.6557L42.3536 25.475L43.6457 21.3808ZM34.8879 21.3808L36.18 25.475L32.8779 22.8971H36.8979L33.5957 25.475L34.8879 21.3808ZM26.2736 21.3808L27.5657 25.475L24.2636 22.8971H28.2836L24.9814 25.475L26.2736 21.3808ZM17.5157 21.3808L18.8078 25.475L15.5057 22.8971H19.5257L16.2236 25.475L17.5157 21.3808ZM8.75784 21.3808L10.05 25.475L6.74784 22.8971H10.7678L7.46569 25.475L8.75784 21.3808ZM47.9529 17.4382L49.245 21.5324L45.9429 18.9546H49.9629L46.6607 21.5324L47.9529 17.4382ZM39.3386 17.4382L40.6307 21.5324L37.3286 18.9546H41.3486L38.0464 21.5324L39.3386 17.4382ZM30.5807 17.4382L31.8729 21.5324L28.5707 18.9546H32.5907L29.2886 21.5324L30.5807 17.4382ZM21.8228 17.4382L23.115 21.5324L19.8128 18.9546H23.8328L20.5307 21.5324L21.8228 17.4382ZM13.065 17.4382L14.3571 21.5324L11.055 18.9546H15.075L11.7728 21.5324L13.065 17.4382ZM4.30712 17.4382L5.59926 21.5324L2.29712 18.9546H6.31712L3.01498 21.5324L4.30712 17.4382ZM43.6457 13.4957L44.9379 17.5899L41.6357 15.012H45.6557L42.3536 17.5899L43.6457 13.4957ZM34.8879 13.4957L36.18 17.5899L32.8779 15.012H36.8979L33.5957 17.5899L34.8879 13.4957ZM26.2736 13.4957L27.5657 17.5899L24.2636 15.012H28.2836L24.9814 17.5899L26.2736 13.4957ZM17.5157 13.4957L18.8078 17.5899L15.5057 15.012H19.5257L16.2236 17.5899L17.5157 13.4957ZM8.75784 13.4957L10.05 17.5899L6.74784 15.012H10.7678L7.46569 17.5899L8.75784 13.4957ZM47.9529 9.55309L49.245 13.6473L45.9429 11.0695H49.9629L46.6607 13.6473L47.9529 9.55309ZM39.3386 9.55309L40.6307 13.6473L37.3286 11.0695H41.3486L38.0464 13.6473L39.3386 9.55309ZM30.5807 9.55309L31.8729 13.6473L28.5707 11.0695H32.5907L29.2886 13.6473L30.5807 9.55309ZM21.8228 9.55309L23.115 13.6473L19.8128 11.0695H23.8328L20.5307 13.6473L21.8228 9.55309ZM13.065 9.55309L14.3571 13.6473L11.055 11.0695H15.075L11.7728 13.6473L13.065 9.55309ZM4.30712 9.55309L5.59926 13.6473L2.29712 11.0695H6.31712L3.01498 13.6473L4.30712 9.55309ZM43.6457 5.61053L44.9379 9.70473L41.6357 7.1269H45.6557L42.3536 9.70473L43.6457 5.61053ZM34.8879 5.61053L36.18 9.70473L32.8779 7.1269H36.8979L33.5957 9.70473L34.8879 5.61053ZM26.2736 5.61053L27.5657 9.70473L24.2636 7.1269H28.2836L24.9814 9.70473L26.2736 5.61053ZM17.5157 5.61053L18.8078 9.70473L15.5057 7.1269H19.5257L16.2236 9.70473L17.5157 5.61053ZM8.75784 5.61053L10.05 9.70473L6.74784 7.1269H10.7678L7.46569 9.70473L8.75784 5.61053ZM47.9529 1.66797L49.245 5.76217L45.9429 3.18434H49.9629L46.6607 5.76217L47.9529 1.66797ZM39.3386 1.66797L40.6307 5.76217L37.3286 3.18434H41.3486L38.0464 5.76217L39.3386 1.66797ZM30.5807 1.66797L31.8729 5.76217L28.5707 3.18434H32.5907L29.2886 5.76217L30.5807 1.66797ZM21.8228 1.66797L23.115 5.76217L19.8128 3.18434H23.8328L20.5307 5.76217L21.8228 1.66797ZM13.065 1.66797L14.3571 5.76217L11.055 3.18434H15.075L11.7728 5.76217L13.065 1.66797ZM4.30712 1.66797L5.59926 5.76217L2.29712 3.18434H6.31712L3.01498 5.76217L4.30712 1.66797Z" fill="white"/>
</svg>
