<svg width="36" height="40" viewBox="0 0 36 40" fill="none" xmlns="http://www.w3.org/2000/svg">
<g clip-path="url(#clip0_381_697)">
<mask id="mask0_381_697" style="mask-type:luminance" maskUnits="userSpaceOnUse" x="5" y="8" width="25" height="24">
<path d="M17.75 32C24.3774 32 29.75 26.6274 29.75 20C29.75 13.3726 24.3774 8 17.75 8C11.1226 8 5.75 13.3726 5.75 20C5.75 26.6274 11.1226 32 17.75 32Z" fill="white"/>
</mask>
<g mask="url(#mask0_381_697)">
<path d="M17.75 8H29.75V11L28.25 12.5L29.75 14V17L28.25 18.5L29.75 20V23L28.25 24.5L29.75 26V29L17.75 30.5L5.75 29V26L7.25 24.5L5.75 23V20L17.75 8Z" fill="#EEEEEE"/>
<path d="M16.25 11H29.75V14H16.25V11ZM16.25 17H29.75V20H17.75L16.25 17ZM5.75 23H29.75V26H5.75V23ZM5.75 29H29.75V32H5.75V29Z" fill="#D80027"/>
<path d="M5.75 8H17.75V20H5.75V8Z" fill="#0052B4"/>
<path d="M14.5156 19.3906L17.1875 17.4688H13.9062L16.5781 19.3906L15.5469 16.25L14.5156 19.3906ZM10.7188 19.3906L13.3906 17.4688H10.1094L12.7812 19.3906L11.75 16.25L10.7188 19.3906ZM6.92188 19.3906L9.59375 17.4688H6.3125L8.98438 19.3906L7.95312 16.25L6.92188 19.3906ZM14.5156 15.5938L17.1875 13.6719H13.9062L16.5781 15.5938L15.5469 12.4531L14.5156 15.5938ZM10.7188 15.5938L13.3906 13.6719H10.1094L12.7812 15.5938L11.75 12.4531L10.7188 15.5938ZM6.92188 15.5938L9.59375 13.6719H6.3125L8.98438 15.5938L7.95312 12.4531L6.92188 15.5938ZM14.5156 11.75L17.1875 9.82812H13.9062L16.5781 11.75L15.5469 8.60938L14.5156 11.75ZM10.7188 11.75L13.3906 9.82812H10.1094L12.7812 11.75L11.75 8.60938L10.7188 11.75ZM6.92188 11.75L9.59375 9.82812H6.3125L8.98438 11.75L7.95312 8.60938L6.92188 11.75Z" fill="#EEEEEE"/>
</g>
</g>
<defs>
<clipPath id="clip0_381_697">
<rect width="24" height="24" fill="white" transform="translate(5.75 8)"/>
</clipPath>
</defs>
</svg>
