<svg width="36" height="40" viewBox="0 0 36 40" fill="none" xmlns="http://www.w3.org/2000/svg">
<g clip-path="url(#clip0_381_675)">
<mask id="mask0_381_675" style="mask-type:luminance" maskUnits="userSpaceOnUse" x="5" y="8" width="25" height="24">
<path d="M17.75 32C24.3774 32 29.75 26.6274 29.75 20C29.75 13.3726 24.3774 8 17.75 8C11.1226 8 5.75 13.3726 5.75 20C5.75 26.6274 11.1226 32 17.75 32Z" fill="white"/>
</mask>
<g mask="url(#mask0_381_675)">
<path d="M12.5 8H22.9531L24.5 20L22.9531 32H12.5L11 20L12.5 8Z" fill="#EEEEEE"/>
<path d="M5.75 8H12.5V32H5.75V8Z" fill="#496E2D"/>
<path d="M23 8H29.75V32H23V8Z" fill="#D80027"/>
<path d="M17.75 20.9844V21.4531H18.3125L18.7812 20.4219L17.75 20.9844Z" fill="#FFDA44"/>
<path d="M13.25 19.3438C13.25 20.5372 13.7241 21.6818 14.568 22.5257C15.4119 23.3696 16.5565 23.8438 17.75 23.8438C18.9435 23.8438 20.0881 23.3696 20.932 22.5257C21.7759 21.6818 22.25 20.5372 22.25 19.3438H21.7344C21.7344 20.4005 21.3146 21.4139 20.5674 22.1611C19.8202 22.9083 18.8067 23.3281 17.75 23.3281C16.6933 23.3281 15.6798 22.9083 14.9326 22.1611C14.1854 21.4139 13.7656 20.4005 13.7656 19.3438H13.25ZM15.0781 20.1406L14.8906 20.2344C14.7969 20.3281 14.7969 20.5156 14.9375 20.6094C15.6406 21.2656 16.5312 21.6406 17.4688 21.7344V22.5312H18.0312V21.7344C18.9688 21.6406 19.8594 21.2656 20.5625 20.6094C20.7031 20.5156 20.7031 20.3281 20.6094 20.2344C20.5156 20.1406 20.3281 20.1406 20.2344 20.2344C19.5601 20.8642 18.6727 21.2159 17.75 21.2188C16.8594 21.2188 15.9688 20.8438 15.2656 20.2344L15.0781 20.1406Z" fill="#496E2D"/>
<path d="M17.75 22.8125C17.0938 22.8125 16.4375 22.5781 15.875 22.2031L16.1562 21.7812C17.0938 22.3906 18.4062 22.3906 19.3438 21.7812L19.6719 22.2031C19.1094 22.5781 18.4531 22.8125 17.75 22.8125Z" fill="#338AF3"/>
<path d="M17.75 16.1562C18.7812 16.6719 18.3125 17.7031 18.2656 17.75L18.1719 17.5625C17.9375 17.0469 17.3281 16.7188 16.7188 16.7188V17.2344C17 17.2344 17.2344 17.4688 17.2344 17.75C16.9062 18.0781 16.8125 18.5469 17.0469 18.9688L17.2344 19.3438L16.625 20.4219L17.9844 20.0938L18.8281 20.9375V20.4219L19.3438 20.9375L20.4219 20.4219L18.7812 19.4375L18.5469 18.4531L19.8594 19.2031C20.0469 19.7188 20.4219 20.1875 20.9375 20.4219C21.3594 16.5312 18.9688 16.1562 18.0781 16.1562H17.75Z" fill="#751A46"/>
<path d="M16.1562 20.7031C15.4531 20.7031 14.6094 20.1406 14.375 18.8281L14.8906 18.7344C15.0781 19.8125 15.7344 20.1875 16.1562 20.1875C16.2969 20.1875 16.3906 20.1406 16.4375 20.0469C16.4375 19.9531 16.4375 19.9062 16.1562 19.8125C16.0156 19.7656 15.8281 19.7188 15.6875 19.5781C15.2188 19.0156 15.875 18.4531 16.2031 18.1719C16.25 18.125 16.2969 18.0781 16.25 18.0312C16.25 18.0312 16.1562 17.9375 16.0156 17.9375C15.6875 17.9375 15.4531 17.75 15.3594 17.4219C15.2656 17.1406 15.4531 16.8125 15.7344 16.625L15.9688 17.1406C15.875 17.1406 15.875 17.2344 15.875 17.3281C15.875 17.3281 15.9219 17.4219 16.0156 17.4219C16.3438 17.4219 16.6719 17.6094 16.7656 17.8438C16.8125 17.9844 16.8594 18.2656 16.5312 18.5469C16.2031 18.875 16.0156 19.1094 16.1094 19.25L16.3438 19.2969C16.5781 19.3906 17 19.5312 16.9531 20.0938C16.9062 20.4688 16.5781 20.7031 16.1562 20.7031Z" fill="#6DA544"/>
<path d="M16.7188 16.7188L16.1562 17.2344V17.75L17 17.3281C17.1406 17.2812 17.1406 17.0938 17.0469 17L16.7188 16.7188Z" fill="#FFDA44"/>
<path d="M13.8125 21.2656C14.0196 21.2656 14.1875 21.0977 14.1875 20.8906C14.1875 20.6835 14.0196 20.5156 13.8125 20.5156C13.6054 20.5156 13.4375 20.6835 13.4375 20.8906C13.4375 21.0977 13.6054 21.2656 13.8125 21.2656Z" fill="#FFDA44"/>
<path d="M14.6094 22.5312C14.8165 22.5312 14.9844 22.3634 14.9844 22.1562C14.9844 21.9491 14.8165 21.7812 14.6094 21.7812C14.4023 21.7812 14.2344 21.9491 14.2344 22.1562C14.2344 22.3634 14.4023 22.5312 14.6094 22.5312Z" fill="#FFDA44"/>
<path d="M15.875 23.5156C16.0821 23.5156 16.25 23.3477 16.25 23.1406C16.25 22.9335 16.0821 22.7656 15.875 22.7656C15.6679 22.7656 15.5 22.9335 15.5 23.1406C15.5 23.3477 15.6679 23.5156 15.875 23.5156Z" fill="#FFDA44"/>
<path d="M19.6719 23.5156C19.879 23.5156 20.0469 23.3477 20.0469 23.1406C20.0469 22.9335 19.879 22.7656 19.6719 22.7656C19.4648 22.7656 19.2969 22.9335 19.2969 23.1406C19.2969 23.3477 19.4648 23.5156 19.6719 23.5156Z" fill="#FFDA44"/>
<path d="M20.9375 22.5312C21.1446 22.5312 21.3125 22.3634 21.3125 22.1562C21.3125 21.9491 21.1446 21.7812 20.9375 21.7812C20.7304 21.7812 20.5625 21.9491 20.5625 22.1562C20.5625 22.3634 20.7304 22.5312 20.9375 22.5312Z" fill="#FFDA44"/>
<path d="M21.7344 21.2656C21.9415 21.2656 22.1094 21.0977 22.1094 20.8906C22.1094 20.6835 21.9415 20.5156 21.7344 20.5156C21.5273 20.5156 21.3594 20.6835 21.3594 20.8906C21.3594 21.0977 21.5273 21.2656 21.7344 21.2656Z" fill="#FFDA44"/>
<path d="M18.0312 22.0156H17.4688C17.184 22.0156 16.9531 22.2465 16.9531 22.5312C16.9531 22.816 17.184 23.0469 17.4688 23.0469H18.0312C18.316 23.0469 18.5469 22.816 18.5469 22.5312C18.5469 22.2465 18.316 22.0156 18.0312 22.0156Z" fill="#FF9811"/>
</g>
</g>
<defs>
<clipPath id="clip0_381_675">
<rect width="24" height="24" fill="white" transform="translate(5.75 8)"/>
</clipPath>
</defs>
</svg>
