<svg width="87" height="80" viewBox="0 0 87 80" fill="none" xmlns="http://www.w3.org/2000/svg">
<path fill-rule="evenodd" clip-rule="evenodd" d="M64.98 3.40834C64.7169 1.43236 64.0167 0.630549 61.8125 0C62.0049 0.892629 62.2183 1.56599 62.713 2.12129C62.4552 1.97987 62.1947 1.84234 61.9342 1.70741C62.2052 1.85143 62.4735 1.99804 62.7392 2.14983C63.035 2.47289 63.4316 2.75703 63.9787 3.02041C62.3989 2.5209 61.539 2.91402 60.3309 3.75994C62.3518 4.76155 63.412 4.66295 64.9093 3.46802C65.4447 3.81703 65.9695 4.17771 66.4865 4.55137C66.7758 4.89908 67.158 5.22733 67.6711 5.55298C65.8871 4.74598 64.8216 5.0885 63.2837 5.91367C65.4944 7.359 66.7523 7.39922 68.6527 6.23413C69.1004 6.60779 69.5389 6.99183 69.9708 7.38495C70.2417 7.85332 70.6357 8.31001 71.1985 8.78487C69.3438 7.62367 68.1096 7.84423 66.2784 8.52927C68.5363 10.4871 69.9328 10.7025 72.2666 9.65414C72.6383 10.0525 73.0009 10.4598 73.3569 10.8724C73.5454 11.4057 73.87 11.9415 74.3778 12.5305C72.7286 11.0943 71.4747 11.1202 69.5585 11.5134C71.5035 13.8254 72.8556 14.2379 75.387 13.5283L75.4027 13.4699C75.9603 14.2418 76.489 15.0307 76.9903 15.8416C77.1265 16.1309 77.294 16.4332 77.4995 16.7498C75.8909 14.9061 74.4956 14.7452 72.3058 14.8893C74.0637 17.6813 75.4747 18.3819 78.2534 18.0394C78.7364 18.9437 79.1853 19.8701 79.5976 20.8133C78.4341 19.4549 77.1684 19.1772 75.2966 19.0436C76.6016 21.946 77.8594 22.8736 80.4654 22.9709C80.8149 23.9193 81.1277 24.8859 81.4052 25.8668C80.4628 24.6563 79.2626 24.2229 77.5479 23.8285C78.4118 26.9981 79.5374 28.1969 82.1015 28.7445C82.2743 29.5995 82.4209 30.4636 82.5387 31.338C81.7534 30.1197 80.6146 29.5112 79.0073 28.8664C79.3751 32.2903 80.3332 33.7473 82.8463 34.7477C82.8751 35.3497 82.8908 35.9556 82.8934 36.564C82.273 35.5287 81.3188 34.8489 80.0152 34.0899C79.8791 37.419 80.561 39.0071 82.7246 40.3331C82.6395 41.2555 82.523 42.1689 82.3751 43.0706C81.9471 41.7213 81.0283 40.7911 79.6958 39.6921C78.9707 43.2082 79.4471 44.9701 81.5937 46.7488C81.4445 47.3171 81.2822 47.8802 81.1094 48.4381C80.8764 46.8617 80.0191 45.6694 78.7299 44.2201C77.3019 48.0125 77.5322 50.0482 79.6343 52.4069C79.1081 53.6187 78.523 54.7994 77.883 55.945C78.5819 53.4436 77.8791 51.7413 76.4995 49.4384C74.1082 53.3631 74.0728 55.5752 76.1657 58.7409C75.6343 59.5298 75.0754 60.2991 74.4891 61.0465C75.2757 58.9576 74.8765 57.1853 74.0192 54.8136C70.7862 58.3569 70.2627 60.6352 71.7025 64.2381C70.569 65.4058 69.3648 66.5021 68.0952 67.5232C70.1357 65.1878 70.1711 63.1755 69.7352 60.1941C65.7326 63.1185 64.8269 65.2916 65.6449 69.3422C64.2785 70.2776 62.8505 71.1313 61.3688 71.8929C64.1122 69.8806 64.6358 67.7386 64.891 64.4483C59.8898 66.6306 58.4029 68.7467 58.3086 73.3019C56.3702 74.096 54.3571 74.7421 52.2786 75.2208C55.1372 73.9571 56.2053 72.0071 57.323 68.9815C51.7132 69.7665 49.6032 71.4557 48.2067 75.937C46.6151 76.1316 44.996 76.2341 43.352 76.2341C41.818 76.2341 40.3049 76.1446 38.8154 75.9746C37.4188 71.4661 35.3128 69.7691 29.6886 68.9828C30.8469 72.12 31.9529 74.1012 35.055 75.3584C32.8665 74.89 30.7435 74.2413 28.7056 73.4265C28.6336 68.7856 27.1637 66.6526 22.1193 64.4496C22.3955 68.0253 22.991 70.2452 26.4046 72.4132L26.2174 72.3302C24.5159 71.5102 22.8837 70.5722 21.3287 69.5251C22.2109 65.3578 21.3366 63.1626 17.2751 60.1954C16.8026 63.4337 16.8851 65.5304 19.4884 68.1382C19.2044 67.9254 18.9295 67.7347 18.6599 67.5647C17.4518 66.5968 16.3026 65.5589 15.2162 64.4574C16.766 60.726 16.2869 58.4283 12.9898 54.8149C12.0199 57.498 11.6364 59.4117 12.8903 61.8885C12.1142 60.9505 11.3799 59.9748 10.6914 58.9667C12.9348 55.6803 12.9558 53.4552 10.5095 49.4397C8.91788 52.0968 8.22679 53.9547 9.54876 57.1607C9.42573 56.9505 9.29877 56.752 9.17311 56.5639C8.4349 55.2976 7.76606 53.9859 7.16921 52.634C9.45976 50.1766 9.75426 48.1319 8.27915 44.2215C6.79356 45.8925 5.88127 47.2211 5.83808 49.1932C5.59332 48.4562 5.36688 47.7089 5.164 46.9538C7.52523 45.1037 8.06711 43.3418 7.3145 39.6947C5.75169 40.9818 4.75563 42.0392 4.4572 43.8128C4.25825 42.7255 4.1038 41.6227 3.99648 40.5043C6.38912 39.142 7.1378 37.5644 6.99513 34.0912C5.45719 34.9877 4.40354 35.7752 3.81454 37.1648C3.81192 36.9948 3.81192 36.8235 3.81192 36.6523C3.81192 36.0555 3.82632 35.4599 3.8525 34.8683C6.59985 33.8628 7.62078 32.4291 8.00428 28.8677C6.10247 29.6332 4.85641 30.3442 4.07501 32.075C4.20197 30.9721 4.37605 29.8836 4.59071 28.8106C7.38256 28.293 8.56579 27.1292 9.46238 23.8311C7.41397 24.3021 6.09855 24.8301 5.08285 26.6712C5.40876 25.4166 5.79488 24.184 6.2386 22.9813C9.05532 22.9437 10.3603 22.0627 11.7163 19.0462C9.52913 19.2032 8.16789 19.5535 6.83283 21.6008C7.01345 21.209 7.1522 20.8457 7.24775 20.5006C7.6391 19.6275 8.06056 18.7699 8.51082 17.9317L8.54747 18.0135C11.4663 18.417 12.9047 17.754 14.7071 14.8918C12.5199 14.7478 11.1234 14.9087 9.51342 16.7524C9.97415 16.0401 10.249 15.4108 10.3812 14.8049C10.7503 14.2483 11.1325 13.7021 11.5278 13.165C11.5579 13.283 11.5906 13.405 11.6273 13.5283C14.1573 14.2379 15.5107 13.8254 17.4544 11.5134C15.5382 11.1202 14.2843 11.0943 12.6351 12.5305C13.3066 11.7521 13.6574 11.0657 13.8 10.3599C14.0749 10.0499 14.3563 9.74366 14.6403 9.44266L14.66 9.61392C17.0474 10.7077 18.4492 10.5117 20.7358 8.52927C18.9047 7.84423 17.6717 7.62367 15.8144 8.78487C16.5696 8.14783 17.0199 7.54712 17.2777 6.90101C17.5879 6.62855 17.9021 6.35998 18.2227 6.0966V6.1472C20.2018 7.40181 21.4662 7.39403 23.7305 5.91367C22.1926 5.0885 21.1285 4.74598 19.3445 5.55298C20.063 5.09499 20.5264 4.63311 20.834 4.11673C21.2319 3.83908 21.6363 3.56922 22.046 3.30714L22.0316 3.40834C23.5669 4.65906 24.6297 4.77842 26.6821 3.75994C25.474 2.91402 24.614 2.5209 23.0342 3.02041C23.7449 2.67789 24.2004 2.30163 24.5145 1.84753L24.7737 1.70871L24.5198 1.84105C24.8614 1.34284 25.0381 0.749912 25.1978 0.00129743C23.0538 0.61498 22.3339 1.39084 22.0525 3.25005C21.6664 3.49007 21.2842 3.73529 20.906 3.98699C21.2489 3.34866 21.3732 2.6195 21.457 1.70741C19.0329 2.722 18.2947 3.7301 18.2241 5.94091C17.9361 6.16796 17.6521 6.4015 17.3707 6.63633C17.5945 5.92534 17.6154 5.14948 17.5735 4.20496C15.1115 5.65288 14.4126 6.853 14.6128 9.17799C14.3589 9.43617 14.1063 9.69696 13.8589 9.96163C13.9231 9.28567 13.8223 8.57339 13.6495 7.73266C11.5474 9.46083 10.9964 10.7167 11.4388 12.7965C11.1076 13.2221 10.7857 13.6554 10.4715 14.0939C10.5108 13.2078 10.2713 12.3307 9.89562 11.272C7.7569 13.5866 7.38387 15.0904 8.31318 17.4646C8.00559 18.0031 7.70978 18.548 7.42706 19.102C7.39434 18.1198 7.01607 17.2168 6.4454 16.1205C4.60642 18.7686 4.48338 20.3203 5.83415 22.6323C5.54096 23.3757 5.27133 24.1295 5.02395 24.895C4.88521 23.7377 4.31061 22.7828 3.45198 21.6216C1.93629 24.7588 2.09859 26.4091 4.00171 28.6796C3.83679 29.4386 3.69412 30.2041 3.5724 30.9786C3.27135 29.6527 2.47686 28.6913 1.30148 27.5366C0.219035 31.1343 0.694161 32.843 3.15617 34.9539C3.11821 35.6662 3.09858 36.3837 3.09858 37.1051V37.3672C2.6745 35.7791 1.68237 34.8501 0.16668 33.7447C-0.383051 37.5228 0.373484 39.1381 3.23863 40.9026L3.27659 40.8845C3.3512 41.6759 3.44936 42.4582 3.56978 43.2354C2.84335 41.986 1.73211 41.2685 0.173225 40.4771C0.245213 44.429 1.274 45.9898 4.43233 47.3262C4.58286 47.8893 4.74516 48.4472 4.91793 48.9999C3.87606 47.5935 2.47555 46.959 0.50699 46.3181C1.28447 50.7125 2.71246 52.2551 6.50561 53.1906C6.69278 53.6109 6.88649 54.0274 7.08675 54.44C5.90614 53.681 4.53705 53.3852 2.78314 53.1555C4.3826 57.367 6.08284 58.7915 9.78436 59.1328C10.2137 59.775 10.6626 60.4029 11.1273 61.0179C9.54745 60.1603 7.89041 60.0929 5.71111 60.2226C8.30925 64.4081 10.4152 65.4901 14.5736 64.9997C15.0788 65.5109 15.5971 66.0091 16.1285 66.4931C14.6063 66.1713 13.1037 66.4321 11.2254 66.9277C14.5134 70.4139 16.7581 71.1236 20.5277 69.9689C21.2921 70.4917 22.0748 70.9899 22.8771 71.4596C20.9845 71.3571 19.3366 72.0162 17.2803 73.0814C21.6939 76.0629 24.275 76.2562 28.1048 74.0376C29.7239 74.6941 31.394 75.252 33.1113 75.6983C30.843 75.9993 29.2488 77.1851 27.2907 79.0132C32.6859 80.8076 35.3351 80.2172 38.6413 76.7284C40.1845 76.9075 41.7526 77.0009 43.3442 77.0009C45.03 77.0009 46.6923 76.8958 48.3232 76.6973C51.6438 80.2133 54.2904 80.8114 59.7039 79.0119C57.6869 77.1267 56.0547 75.9266 53.6739 75.6723C55.4199 75.2143 57.1202 74.6409 58.7654 73.9636C62.6646 76.2575 65.2536 76.0953 69.7143 73.0801C67.531 71.95 65.8072 71.2767 63.7641 71.4881C64.6175 70.9899 65.4473 70.4606 66.2575 69.904C70.154 71.1482 72.421 70.4762 75.7705 66.9264C73.7194 66.3854 72.1161 66.1246 70.4485 66.5956C71.0323 66.0688 71.5991 65.5226 72.1501 64.9634C76.4917 65.5343 78.6317 64.4963 81.2861 60.2213C78.8437 60.0747 77.0584 60.1772 75.3006 61.3604C75.8542 60.6456 76.3843 59.9099 76.8896 59.1561C80.8188 58.8681 82.5688 57.485 84.2141 53.1529C82.2233 53.4124 80.7272 53.7601 79.4406 54.7721C79.7233 54.209 79.9903 53.6356 80.2468 53.0582L80.4013 53.21C84.2638 52.2772 85.7075 50.7462 86.4915 46.3155C84.0609 47.1069 82.4981 47.888 81.4026 50.1221C81.7272 49.1893 82.0178 48.2422 82.273 47.2795L82.4209 47.3859C85.6944 46.034 86.752 44.4874 86.8266 40.4745C84.8581 41.4735 83.6081 42.3506 82.9366 44.3291C83.1552 43.1485 83.3201 41.9497 83.4301 40.734C83.5374 40.7898 83.6473 40.8442 83.7599 40.9C86.6264 39.1355 87.3816 37.5215 86.8345 33.7421C84.8345 35.1992 83.7455 36.35 83.6683 39.1096C83.6434 38.8864 83.6107 38.6763 83.574 38.4739C83.5884 38.0185 83.5963 37.5605 83.5963 37.1012C83.5963 36.3967 83.5766 35.6961 83.5413 35.0006L83.7154 35.059C86.2913 32.8962 86.8004 31.1914 85.6997 27.5327C84.1945 29.013 83.3123 30.1742 83.2939 32.1917C83.1539 31.0669 82.9667 29.9576 82.735 28.8625L82.8267 28.8781C84.8921 26.4999 85.1107 24.847 83.5479 21.6177C82.4746 23.0695 81.845 24.1983 81.9563 25.8071C81.667 24.834 81.3411 23.8765 80.9798 22.9346C82.5243 20.45 82.4733 18.8801 80.5544 16.1166C79.8555 17.4582 79.4445 18.5117 79.6055 19.7741C79.2757 19.0955 78.9275 18.4286 78.5584 17.7734C79.6448 15.2149 79.3359 13.6839 77.1042 11.2681C76.6566 12.5305 76.4027 13.536 76.582 14.6025C76.2299 14.0926 75.866 13.5905 75.4904 13.0975C76.0519 10.8348 75.5519 9.53997 73.3503 7.73006C73.1435 8.73557 73.0401 9.55684 73.1985 10.3509C72.9236 10.0499 72.6422 9.75145 72.3582 9.45823C72.6383 6.94642 71.9865 5.70737 69.425 4.20236C69.3753 5.31815 69.4119 6.1991 69.7719 7.01648C69.4355 6.72715 69.0965 6.44302 68.7522 6.16277L68.7797 6.1459C68.7483 3.78978 68.0415 2.75184 65.5415 1.70482C65.6423 2.79076 65.8007 3.61722 66.3164 4.34119C65.8635 4.02851 65.4041 3.72491 64.9381 3.43169L64.9696 3.40574L64.98 3.40834Z" fill="#F8F1CD"/>
</svg>
