<svg width="46" height="45" viewBox="0 0 46 45" fill="none" xmlns="http://www.w3.org/2000/svg">
<path d="M23.0029 16.0903C19.3139 16.0903 16.3383 18.9521 16.3383 22.5C16.3383 26.0479 19.3139 28.9097 23.0029 28.9097C26.6919 28.9097 29.6675 26.0479 29.6675 22.5C29.6675 18.9521 26.6919 16.0903 23.0029 16.0903ZM23.0029 26.6671C20.619 26.6671 18.67 24.7983 18.67 22.5C18.67 20.2017 20.6132 18.3329 23.0029 18.3329C25.3926 18.3329 27.3358 20.2017 27.3358 22.5C27.3358 24.7983 25.3868 26.6671 23.0029 26.6671ZM31.4946 15.8281C31.4946 16.6593 30.7986 17.3232 29.9401 17.3232C29.0759 17.3232 28.3856 16.6537 28.3856 15.8281C28.3856 15.0025 29.0817 14.3331 29.9401 14.3331C30.7986 14.3331 31.4946 15.0025 31.4946 15.8281ZM35.9086 17.3455C35.81 15.3428 35.3344 13.5688 33.8089 12.1073C32.2892 10.6457 30.4447 10.1883 28.3624 10.0879C26.2163 9.97071 19.7837 9.97071 17.6376 10.0879C15.5611 10.1827 13.7166 10.6401 12.1911 12.1017C10.6656 13.5633 10.1958 15.3372 10.0914 17.3399C9.96955 19.4039 9.96955 25.5905 10.0914 27.6545C10.19 29.6572 10.6656 31.4312 12.1911 32.8927C13.7166 34.3543 15.5553 34.8117 17.6376 34.9121C19.7837 35.0293 26.2163 35.0293 28.3624 34.9121C30.4447 34.8173 32.2892 34.3599 33.8089 32.8927C35.3286 31.4312 35.8042 29.6572 35.9086 27.6545C36.0305 25.5905 36.0305 19.4095 35.9086 17.3455ZM33.1361 29.8692C32.6837 30.9626 31.8078 31.8049 30.6651 32.2456C28.954 32.8983 24.8938 32.7477 23.0029 32.7477C21.112 32.7477 17.046 32.8927 15.3407 32.2456C14.2038 31.8105 13.3279 30.9681 12.8697 29.8692C12.1911 28.2235 12.3477 24.3186 12.3477 22.5C12.3477 20.6814 12.1969 16.7709 12.8697 15.1308C13.3221 14.0374 14.198 13.1951 15.3407 12.7544C17.0518 12.1017 21.112 12.2523 23.0029 12.2523C24.8938 12.2523 28.9598 12.1073 30.6651 12.7544C31.802 13.1895 32.6779 14.0319 33.1361 15.1308C33.8147 16.7765 33.6581 20.6814 33.6581 22.5C33.6581 24.3186 33.8147 28.2291 33.1361 29.8692Z" fill="#F8F1CD"/>
</svg>
