<svg width="41" height="41" viewBox="0 0 41 41" fill="none" xmlns="http://www.w3.org/2000/svg">
<rect width="41" height="41" rx="9" fill="#F2F2F2"/>
<path d="M20.5029 14.0903C16.8139 14.0903 13.8383 16.9521 13.8383 20.5C13.8383 24.0479 16.8139 26.9097 20.5029 26.9097C24.1919 26.9097 27.1675 24.0479 27.1675 20.5C27.1675 16.9521 24.1919 14.0903 20.5029 14.0903ZM20.5029 24.6671C18.119 24.6671 16.17 22.7983 16.17 20.5C16.17 18.2017 18.1132 16.3329 20.5029 16.3329C22.8926 16.3329 24.8358 18.2017 24.8358 20.5C24.8358 22.7983 22.8868 24.6671 20.5029 24.6671ZM28.9946 13.8281C28.9946 14.6593 28.2986 15.3232 27.4401 15.3232C26.5759 15.3232 25.8856 14.6537 25.8856 13.8281C25.8856 13.0025 26.5817 12.3331 27.4401 12.3331C28.2986 12.3331 28.9946 13.0025 28.9946 13.8281ZM33.4086 15.3455C33.31 13.3428 32.8344 11.5688 31.3089 10.1073C29.7892 8.64571 27.9447 8.18827 25.8624 8.08786C23.7163 7.97071 17.2837 7.97071 15.1376 8.08786C13.0611 8.1827 11.2166 8.64013 9.69108 10.1017C8.16559 11.5633 7.69576 13.3372 7.59136 15.3399C7.46955 17.4039 7.46955 23.5905 7.59136 25.6545C7.68996 27.6572 8.16559 29.4312 9.69108 30.8927C11.2166 32.3543 13.0553 32.8117 15.1376 32.9121C17.2837 33.0293 23.7163 33.0293 25.8624 32.9121C27.9447 32.8173 29.7892 32.3599 31.3089 30.8927C32.8286 29.4312 33.3042 27.6572 33.4086 25.6545C33.5305 23.5905 33.5305 17.4095 33.4086 15.3455ZM30.6361 27.8692C30.1837 28.9626 29.3078 29.8049 28.1651 30.2456C26.454 30.8983 22.3938 30.7477 20.5029 30.7477C18.612 30.7477 14.546 30.8927 12.8407 30.2456C11.7038 29.8105 10.8279 28.9681 10.3697 27.8692C9.69108 26.2235 9.84769 22.3186 9.84769 20.5C9.84769 18.6814 9.69688 14.7709 10.3697 13.1308C10.8221 12.0374 11.698 11.1951 12.8407 10.7544C14.5518 10.1017 18.612 10.2523 20.5029 10.2523C22.3938 10.2523 26.4598 10.1073 28.1651 10.7544C29.302 11.1895 30.1779 12.0319 30.6361 13.1308C31.3147 14.7765 31.1581 18.6814 31.1581 20.5C31.1581 22.3186 31.3147 26.2291 30.6361 27.8692Z" fill="black"/>
</svg>
