<svg width="26" height="25" viewBox="0 0 26 25" fill="none" xmlns="http://www.w3.org/2000/svg">
<path d="M23.2143 0H2.78571C1.24777 0 0 1.19978 0 2.67857V22.3214C0 23.8002 1.24777 25 2.78571 25H23.2143C24.7522 25 26 23.8002 26 22.3214V2.67857C26 1.19978 24.7522 0 23.2143 0ZM1.23616 11.0045H1.21875C1.22455 10.9989 1.23036 10.9877 1.23616 10.9821V11.0045ZM5.62946 16.0603H3.71429V8.92857H5.62946V16.0603ZM12.1991 16.0603H10.5335V11.2388L9.86027 16.0603H8.66473L7.9567 11.3449V16.0603H6.27366V8.92857H8.75759C8.94911 10.0335 9.1058 11.1551 9.2625 12.2712L9.70357 8.92857H12.1991V16.0603ZM12.8607 16.0603V8.92857H14.2884C15.3098 8.92857 16.8826 8.83928 17.1321 10.0949C17.2308 10.519 17.2134 11.0045 17.2134 11.4565C17.2134 16.3951 17.8576 16.0658 12.8607 16.0603ZM22.1987 14.4308C22.1987 15.3069 22.0594 16.1551 20.9103 16.1551C20.3879 16.1551 20.0281 15.9877 19.6973 15.6083L19.5871 16.0603H17.8576V8.92857H19.6973V11.2556C20.0455 10.8929 20.3937 10.7422 20.9103 10.7422C22.1522 10.7422 22.1987 11.4565 22.1987 12.4219V14.4308ZM15.3795 11.0435C15.3795 10.5022 15.4723 10.1507 14.7817 10.1507V14.8214C15.4897 14.8382 15.3795 14.3359 15.3795 13.7946V11.0435ZM20.3415 12.5C20.3415 12.1987 20.4054 11.7913 19.9817 11.7913C19.6335 11.7913 19.6973 12.2879 19.6973 12.5C19.6973 12.5335 19.6335 14.7098 19.7612 14.9944C19.8076 15.0837 19.8888 15.1283 19.9817 15.1283C20.4344 15.1283 20.3415 14.6261 20.3415 14.3248V12.5Z" fill="black"/>
</svg>
