<svg width="46" height="50" viewBox="0 0 46 50" fill="none" xmlns="http://www.w3.org/2000/svg">
<path d="M15.8198 37H10.4295V20.9764H15.8198V37ZM13.1217 18.7907C11.3981 18.7907 10 17.4728 10 15.8817C10 15.1174 10.3289 14.3844 10.9143 13.844C11.4998 13.3036 12.2938 13 13.1217 13C13.9497 13 14.7437 13.3036 15.3291 13.844C15.9146 14.3844 16.2435 15.1174 16.2435 15.8817C16.2435 17.4728 14.8448 18.7907 13.1217 18.7907ZM35.9942 37H30.6154V29.1998C30.6154 27.3409 30.5748 24.9569 27.8129 24.9569C25.0104 24.9569 24.5809 26.9766 24.5809 29.0659V37H19.1963V20.9764H24.3662V23.1622H24.4416C25.1612 21.9032 26.9192 20.5746 29.5418 20.5746C34.9971 20.5746 36 23.8908 36 28.198V37H35.9942Z" fill="#F8F1CD"/>
</svg>
