<svg width="41" height="41" viewBox="0 0 41 41" fill="none" xmlns="http://www.w3.org/2000/svg">
<rect width="41" height="41" rx="9" fill="#F2F2F2"/>
<path d="M13.3198 32.5H7.92946V16.4764H13.3198V32.5ZM10.6217 14.2907C8.89808 14.2907 7.5 12.9728 7.5 11.3817C7.5 10.6174 7.8289 9.88444 8.41434 9.34402C8.99978 8.8036 9.7938 8.5 10.6217 8.5C11.4497 8.5 12.2437 8.8036 12.8291 9.34402C13.4146 9.88444 13.7435 10.6174 13.7435 11.3817C13.7435 12.9728 12.3448 14.2907 10.6217 14.2907ZM33.4942 32.5H28.1154V24.6998C28.1154 22.8409 28.0748 20.4569 25.3129 20.4569C22.5104 20.4569 22.0809 22.4766 22.0809 24.5659V32.5H16.6963V16.4764H21.8662V18.6622H21.9416C22.6612 17.4032 24.4192 16.0746 27.0418 16.0746C32.4971 16.0746 33.5 19.3908 33.5 23.698V32.5H33.4942Z" fill="black"/>
</svg>
