<?xml version="1.0" encoding="UTF-8" standalone="no"?>
<!-- Created with Inkscape (http://www.inkscape.org/) -->

<svg
   version="1.1"
   id="svg1"
   width="1600"
   height="1405.3333"
   viewBox="0 0 1600 1405.3333"
   xmlns="http://www.w3.org/2000/svg"
   xmlns:svg="http://www.w3.org/2000/svg">
  <defs
     id="defs1" />
  <g
     id="g1">
    <g
       id="g2"
       transform="translate(-0.084863,0.084855)">
      <path
         style="fill:#f8f1cd"
         d="M 1085.9979,273.01992 C 998.73239,185.58089 931.09162,117.62032 935.68508,121.99642 l 8.35175,7.95654 64.98517,-64.975054 64.9853,-64.97505794 150.9978,151.00221194 150.9978,151.00222 -65.0065,64.99635 c -35.7536,35.74799 -65.3052,64.99634 -65.6702,64.99634 -0.3651,0 -72.0628,-71.54102 -159.3283,-158.98005 z"
         id="path410" />
      <path
         style="fill:#f8f1cd"
         d="M 175.15197,773.64197 C 139.92506,717.77333 120.93631,664.9481 111.77542,597.3333 c -2.26583,-16.72364 -2.26774,-76.58852 -0.003,-93.33333 7.24785,-53.58793 19.52431,-94.71568 41.14209,-137.83134 31.41173,-62.64926 76.79375,-114.71399 135.92707,-155.94298 5.96288,-4.15745 11.18546,-7.559 11.60572,-7.559 0.42026,0 -2.61819,5.85 -6.75211,13 -27.01704,46.72853 -44.38862,98.93616 -51.90567,155.99454 -4.35468,33.05427 -2.38544,92.88465 4.07093,123.68537 1.36562,6.51481 1.45267,8.97842 0.33029,9.34694 -0.83825,0.27523 -13.77503,2.92891 -28.74839,5.89706 -14.97337,2.96816 -28.65069,6.33125 -30.39405,7.47355 -4.23364,2.77398 -6.25726,7.57023 -5.1351,12.17087 0.62893,2.57851 20.8488,23.72728 64.16259,67.1102 l 63.24428,63.34522 -62.99338,62.96346 -62.99338,62.96346 z"
         id="path408" />
      <path
         style="fill:#f8f1cd"
         d="M 1119.6766,912.34448 942.68782,735.3557 927.36195,750.63808 911.22971,766.77725 891.20732,747.56957 C 867.2253,724.56338 863.77521,720.6629 856.18385,723.81732 L 846.03589,728.03408 720.68754,602.68574 595.33919,477.3374 l 22.24132,-22.24132 22.24131,-22.24131 21.08909,20.15535 c 23.64334,22.59651 637.46409,636.32318 636.42069,636.32318 -0.3664,0 -80.3111,-79.645 -177.655,-176.98882 z"
         id="path380" />
      <path
         style="fill:#f8f1cd"
         d="M 150.99864,1223.6652 0.00122681,1072.6634 114.97201,957.69267 229.9428,842.72189 l 0.4915,-0.4974 0.008,-0.006 -0.0113,0.0129 0.54562,0.11335 146.10412,-146.57745 146.10412,-146.57745 125.98607,124.57943 125.60388,125.59861 -2.90663,5.15905 c -3.02859,5.37553 -3.30753,14.96994 -0.19229,19.57934 1.2785,1.89171 -21.4173,-21.23356 40.07015,40.4626 5.80954,5.82925 10.34452,10.82798 0.25598,1.44 l -65.00079,64.66059 C 711.25036,966.23259 596.49911,1080.6807 491.99803,1184.9985 L 301.99606,1374.667 Z"
         id="path330" />
      <path
         style="fill:#f8f1cd"
         d="m 615.70675,901.70662 -49.63669,-49.64992 5.29567,-5.42326 c 3.77471,-3.86565 6.0623,-5.22255 7.96496,-4.72445 1.46812,0.38434 32.36931,14.18195 68.66931,30.66137 l 66,29.96257 19.64165,-19.55817 c 10.8029,-10.757 19.2029,-19.96194 18.66666,-20.45542 -0.53624,-0.49348 -31.41731,-13.92467 -68.62461,-29.84708 l -67.64963,-28.94985 6.79862,-7.5279 c 3.73923,-4.14034 7.67442,-9.56119 8.74486,-12.04633 2.6069,-6.0522 2.46837,-17.53404 -0.27786,-23.03027 -3.10043,-6.2051 -105.35756,-108.6191 -111.96636,-112.13811 -6.66476,-3.54881 -18.01841,-3.73119 -24.66666,-0.39623 -2.56667,1.28752 -27.61751,25.23083 -55.66853,53.20736 l -51.00186,50.86642 118.9924,118.99796 118.9924,118.99796 19.68117,-19.64836 19.68118,-19.64837 z"
         id="path329" />
      <path
         style="fill:#f8f1cd"
         d="m 496.66381,782.66376 -29.31346,-29.33619 19.65911,-19.65911 19.65911,-19.65911 29.65521,29.65521 29.65522,29.65522 -19.30559,19.34008 c -10.61807,10.63705 -19.61846,19.34009 -20.00086,19.34009 -0.3824,0 -13.88634,-13.20128 -30.00874,-29.33619 z"
         id="path328" />
      <path
         style="fill:#f8f1cd"
         d="m 506.35014,1085.6821 -12.30816,-12.3596 21.29201,-21.3232 21.29202,-21.3233 12.36393,12.3125 12.36392,12.3125 18.65488,-18.6548 18.65487,-18.6549 L 479.33172,898.665 359.99983,779.33871 l -42.09179,42.09178 -42.09179,42.09179 68.87987,103.9055 68.87986,103.90552 32.86561,32.9969 32.86561,32.9969 19.67555,-19.6427 19.67555,-19.6428 z"
         id="path327" />
      <path
         style="fill:#f8f1cd"
         d="m 398,951.79883 c -30.8,-44.74752 -57.03659,-82.99384 -58.30354,-84.99181 l -2.30353,-3.63268 6.32859,-6.23343 6.32859,-6.23343 71.64766,71.65686 71.64766,71.65687 -19.67272,19.56839 L 454,1033.158 Z"
         id="path326" />
      <path
         style="fill:#f8f1cd"
         d="m 308.33893,1187.6277 -59.67226,-59.7278 19.66874,0.3834 19.66874,0.3833 -0.002,-19.9944 -0.002,-19.9944 59.00556,58.9944 c 32.45305,32.4469 59.61081,58.9944 60.35058,58.9944 0.73976,0 10.03316,-8.7037 20.65201,-19.3415 L 447.31514,1167.9836 328.3265,1048.995 209.33786,930.00634 l -19.92332,19.9968 -19.92332,19.9968 27.32508,45.33336 c 15.02879,24.9333 28.2531,47.0692 29.38736,49.1909 l 2.06229,3.8576 -4.46631,-2.7141 c -2.45647,-1.4927 -24.51988,-14.8177 -49.0298,-29.6111 l -44.56349,-26.8971 -19.7768,19.7438 -19.776788,19.7438 118.997488,119.0031 118.99749,119.0031 19.68172,-19.649 19.68172,-19.6489 z"
         id="path325" />
      <path
         style="fill:#fb5000"
         d="m 536.33634,743.67713 -29.65616,-29.65617 -19.67342,19.31702 -19.67343,19.31703 19.66766,-19.98954 19.66766,-19.98953 30.32868,30.32867 c 16.68077,16.68077 30.02864,30.32868 29.66193,30.32868 -0.36671,0 -14.01202,-13.34527 -30.32292,-29.65616 z"
         id="path463" />
      <path
         style="fill:#fb5000"
         d="M 218.90139,829.78535 C 207.94885,817.98043 184,788.40007 184,786.67698 c 0,-0.37822 28.20002,-28.8829 62.66672,-63.34374 l 62.66672,-62.65608 -63.00005,-63.33359 c -49.09134,-49.35124 -45.62673,-46.04081 15.69306,14.99473 70.90091,70.57224 79.11223,78.32833 82.92565,78.32833 2.49672,0 5.62175,-1.23034 7.61995,-3 3.09155,-2.73798 4.70975,-9.23032 18.52741,-74.33333 l 15.14,-71.33333 3.97809,0.30647 c 3.02077,0.23271 5.06029,-0.81009 8.47516,-4.33334 4.44743,-4.58859 8.37655,-5.89113 9.97396,-3.30646 1.36274,2.20496 4.2373,1.52245 8.4235,-2 3.3011,-2.77769 5.35099,-3.33334 12.29736,-3.33334 8.05954,0 8.55194,-0.20206 14.85123,-6.0943 8.67889,-8.11809 16.97773,-11.70245 27.09457,-11.70245 12.3617,0 17.77769,3.25675 35.94287,21.61322 l 15.94286,16.11075 -137.18338,137.70305 C 310.58482,762.70025 244.85193,828.77005 239.96259,833.78535 l -8.88971,9.11873 z"
         id="path460" />
      <path
         style="fill:#fb5000"
         d="M 989.99836,781.24882 C 820.59926,611.80298 672.51213,464.09768 660.91584,453.01482 l -21.08416,-20.15066 -22.26113,22.23223 -22.26112,22.23224 -34.53598,-34.55515 -34.53598,-34.55515 5.2146,-1.3088 c 2.86803,-0.71984 6.88454,-1.68541 8.92559,-2.14571 5.72461,-1.29101 7.60061,-4.47422 15.96092,-27.08256 9.27465,-25.08091 9.75169,-28.78967 4.26384,-33.14937 C 552.69116,338.24694 552,337.31023 552,332.8733 c 0,-5.24381 2.34005,-7.5719 10.66667,-10.61215 23.00468,-8.39958 67.18957,-10.64448 97.26105,-4.94154 20.22048,3.83473 42.50721,11.63624 55.37221,19.38314 4.27106,2.5719 8.05021,4.39153 8.39811,4.04364 2.22207,-2.22208 -15.94984,-25.20335 -34.9298,-44.1743 -21.11938,-21.10936 -40.50866,-33.02453 -69.29116,-42.58108 -21.99644,-7.3034 -31.29957,-8.8384 -58.14375,-9.59364 -27.66226,-0.77825 -39.51683,0.72602 -60.29668,7.6513 -47.00203,15.66432 -80.01229,51.62479 -89.29109,97.27127 -1.41765,6.97402 -3.43467,14.00027 -4.48228,15.61389 -1.64174,2.52876 -9.00911,5.70201 -13.29272,5.72538 -0.74952,0.004 -6.41102,5.08205 -12.5811,11.28435 l -11.21833,11.27691 0.3181,29.72308 0.31811,29.72309 -9.35575,9.25002 c -9.12625,9.02311 -9.4206,9.19133 -11.99946,6.85749 -2.57414,-2.32957 -2.83858,-2.20824 -10.04793,4.61005 -5.6192,5.31442 -7.4042,7.92028 -7.4042,10.80918 0,2.13328 -0.73264,3.82564 -1.66667,3.84992 -0.91666,0.0238 -19.99652,3.82378 -42.39967,8.44433 -34.74922,7.16687 -40.75655,8.09088 -40.89327,6.29 -0.0881,-1.16105 -1.07443,-7.21099 -2.19174,-13.44433 -5.84956,-32.63389 -7.22681,-85.80009 -3.04825,-117.67211 C 256.09158,262.65503 308.08383,168.92251 392.31345,100.31364 444.10249,58.12912 511.79071,27.115472 577.33333,15.540529 605.52547,10.561747 613.12279,10.000257 652,10.022179 c 34.46048,0.01943 41.72847,0.401655 58.66667,3.085278 71.9252,11.395552 130.9201,36.103157 189.33333,79.294535 16.85083,12.459688 39.77082,35.067678 359.0073,354.120348 l 341.0073,340.81095 -151.0089,150.99943 -151.009,150.99948 z"
         id="path451" />
      <path
         style="fill:#fb5000"
         d="m 850.66695,543.33301 19.29913,-19.33362 -19.64374,-19.67654 -19.64374,-19.67655 79.32664,-79.31823 79.32665,-79.31824 19.65651,19.6565 19.6565,19.6565 19.6831,-19.65031 19.6831,-19.6503 -58.9947,-59.00586 -58.99465,-59.00586 -19.67781,19.645 -19.6778,19.645 19.65647,19.6893 19.65647,19.6893 -78.65197,78.66043 c -43.25858,43.26325 -79.26164,78.66044 -80.00679,78.66044 -0.74515,0 -10.03954,-8.70024 -20.6542,-19.33388 l -19.2994,-19.33388 -19.68892,19.65609 -19.68892,19.6561 58.99994,59.01112 c 32.44997,32.45611 59.31023,59.01111 59.68948,59.01111 0.37924,0 9.37413,-8.70013 19.98865,-19.33362 z"
         id="path450" />
      <path
         style="fill:#fb5000"
         d="m 1020.0014,672.66521 39.3178,-39.33474 -19.6541,-19.65409 -19.6541,-19.65408 -20.0052,19.97187 -20.00522,19.97188 -19.33363,-19.29913 c -10.63349,-10.61452 -19.33362,-19.97742 -19.33362,-20.80645 0,-0.82902 44.1,-45.37669 97.99997,-98.99481 53.9,-53.61812 98,-97.95535 98,-98.52717 0,-0.57182 -8.6472,-9.67151 -19.2161,-20.22152 l -19.2161,-19.18185 -118.83943,118.47133 -118.83939,118.47133 59.04991,59.06109 c 32.47745,32.4836 59.35625,59.06109 59.73067,59.06109 0.37442,0 18.37376,-17.70064 39.99854,-39.33475 z"
         id="path449" />
      <path
         style="fill:#fb5000"
         d="m 1169.3347,821.99854 39.3178,-39.33474 -19.654,-19.65409 -19.6541,-19.65409 -19.6886,19.65577 -19.6886,19.65576 -19.9736,-20.00692 -19.9735,-20.00691 98.6521,-98.65887 98.6521,-98.65888 -19.6636,-19.66357 -19.6635,-19.66357 -118.6639,118.65825 -118.6639,118.65825 58.993,59.00417 c 32.4462,32.4523 59.2994,59.00418 59.6738,59.00418 0.3744,0 18.3738,-17.70063 39.9985,-39.33474 z"
         id="path448" />
      <path
         style="fill:#fb5000"
         d="m 1295.0208,992.31325 c 8.6052,-8.62768 15.6459,-16.27017 15.6459,-16.98332 0,-0.71314 -8.5434,-9.85523 -18.9852,-20.31576 l -18.9852,-19.01913 8.9075,-8.90751 8.9075,-8.90752 9.9104,9.41392 c 11.4411,10.86796 18.8414,14.06619 32.3666,13.98817 16.5249,-0.0953 18.2844,-1.43496 70.023,-53.31309 52.4347,-52.57606 52.522,-52.69285 52.522,-70.26906 0,-13.58664 -3.8731,-22.0266 -15.2785,-33.29311 l -8.0579,-7.95978 7.6392,-7.71974 7.6392,-7.71974 19.7003,19.66748 19.7003,19.66747 14.9888,-14.98875 14.9887,-14.98875 -57.3129,-57.32457 -57.3129,-57.32456 -14.3472,14.30262 c -7.8909,7.86645 -14.3471,14.90535 -14.3471,15.64202 0,0.73666 8.5429,9.89752 18.9842,20.35745 l 18.9841,19.01806 -7.596,7.59595 -7.5959,7.59596 -8.4151,-8.08058 c -11.3527,-10.90141 -17.8721,-14.0791 -30.3613,-14.79879 -8.0428,-0.46347 -11.5657,0.004 -18,2.38831 -7.5126,2.78397 -10.852,5.81755 -54.8176,49.79714 -51.3337,51.35012 -52.4055,52.72514 -53.5028,68.64247 -0.913,13.24214 2.9126,22.283 14.4957,34.25783 l 9.0936,9.40106 -9.3107,9.23936 -9.3107,9.23937 -19.6685,-19.63576 -19.6686,-19.63575 -16.3224,16.32239 -16.3224,16.32239 56.9948,57.00627 c 31.3471,31.35345 57.3067,57.00623 57.688,57.00623 0.3813,0 7.7339,-7.059 16.3391,-15.68665 z"
         id="path447" />
      <path
         style="fill:#fb5000"
         d="m 1305.6494,867.64993 c -10.4405,-10.45917 -18.9827,-19.61319 -18.9827,-20.34226 0,-0.72907 16.6557,-17.97334 37.0127,-38.3206 l 37.0127,-36.99502 19.9745,20.00783 19.9745,20.00782 -37.3116,37.32946 c -20.5214,20.5312 -37.6234,37.32946 -38.0045,37.32946 -0.381,0 -9.2351,-8.55751 -19.6756,-19.01669 z"
         id="path446" />
      <path
         style="fill:#010100"
         d="m 770.98882,503.65552 -58.99994,-59.01112 19.68892,-19.6561 19.68892,-19.65609 19.2994,19.33388 c 10.61466,10.63364 19.90905,19.33388 20.6542,19.33388 0.74515,0 36.74821,-35.39719 80.00679,-78.66044 l 78.65197,-78.66043 -19.65647,-19.6893 -19.65647,-19.6893 19.6778,-19.645 19.67781,-19.645 58.99465,59.00586 58.9947,59.00586 -19.6831,19.6503 -19.6831,19.65031 -19.6565,-19.6565 -19.65651,-19.6565 -79.32665,79.31824 -79.32664,79.31823 19.64374,19.67655 19.64374,19.67654 -19.29913,19.33362 c -10.61452,10.63349 -19.60941,19.33362 -19.98865,19.33362 -0.37925,0 -27.23951,-26.555 -59.68948,-59.01111 z"
         id="path321" />
      <path
         style="fill:#010100"
         d="m 920.27219,652.93887 -59.04991,-59.06109 118.83939,-118.47133 118.83943,-118.47133 19.2161,19.18185 c 10.5689,10.55001 19.2161,19.6497 19.2161,20.22152 0,0.57182 -44.1,44.90905 -98,98.52717 -53.89997,53.61812 -97.99997,98.16579 -97.99997,98.99481 0,0.82903 8.70013,10.19193 19.33362,20.80645 l 19.33363,19.29913 20.00522,-19.97188 20.0052,-19.97187 19.6541,19.65408 19.6541,19.65409 -39.3178,39.33474 c -21.62478,21.63411 -39.62412,39.33475 -39.99854,39.33475 -0.37442,0 -27.25322,-26.57749 -59.73067,-59.06109 z"
         id="path320" />
      <path
         style="fill:#010100"
         d="m 1069.6624,802.3291 -58.993,-59.00417 118.6639,-118.65825 118.6639,-118.65825 19.6635,19.66357 19.6636,19.66357 -98.6521,98.65888 -98.6521,98.65887 19.9735,20.00691 19.9736,20.00692 19.6886,-19.65576 19.6886,-19.65577 19.6541,19.65409 19.654,19.65409 -39.3178,39.33474 c -21.6247,21.63411 -39.6241,39.33474 -39.9985,39.33474 -0.3744,0 -27.2276,-26.55188 -59.6738,-59.00418 z"
         id="path319" />
      <path
         id="path318"
         style="fill:#010100"
         d="M 507.454 646.34874 C 502.75272 646.14849 498.04009 646.90703 494.52432 648.67491 C 492.03559 649.92635 467.0448 673.83128 438.98916 701.796 L 387.97939 752.63975 L 506.97939 871.64757 L 625.98135 990.65343 L 645.66299 971.00499 L 665.34268 951.35655 L 615.70596 901.70616 L 566.06924 852.05577 L 571.30557 846.69444 C 574.18513 843.7455 577.211 841.33311 578.03018 841.33311 C 578.84935 841.33311 609.77864 855.07571 646.76064 871.87218 L 714.00088 902.41124 L 733.6415 882.91319 C 744.4444 872.18962 752.84376 863.04137 752.30752 862.58311 C 751.77128 862.12485 721.33355 848.9624 684.66689 833.33311 C 648.00022 817.70381 617.42604 804.40491 616.72353 803.78038 C 615.95117 803.09376 618.13399 799.88172 622.24697 795.65538 C 625.98803 791.81123 630.01221 786.74644 631.19033 784.39952 C 633.90473 778.99224 633.94584 768.05425 631.27432 761.62413 C 628.74716 755.54148 528.86318 654.85059 520.32119 649.77452 C 516.84505 647.70883 512.15529 646.54899 507.454 646.34874 z M 506.67275 712.69444 L 536.66689 742.6671 L 566.66103 772.63975 L 547.01455 792.31944 C 536.20843 803.1436 527.05484 811.99913 526.67275 811.99913 C 525.35289 811.99913 468.00088 753.97318 468.00088 752.6378 C 468.00088 751.9011 476.7018 742.61323 487.33682 731.99718 L 506.67275 712.69444 z " />
      <path
         id="path316"
         style="fill:#010100"
         d="M 1402.0282 656.01671 L 1387.6806 670.31944 C 1379.7897 678.18589 1373.3329 685.2234 1373.3329 685.96007 C 1373.3329 686.69673 1381.876 695.85756 1392.3173 706.31749 L 1411.3017 725.33702 L 1403.706 732.93272 L 1396.1103 740.52843 L 1387.6942 732.44835 C 1376.3415 721.54694 1369.8221 718.36921 1357.3329 717.64952 C 1349.2901 717.18605 1345.7672 717.65189 1339.3329 720.03624 C 1331.8203 722.82021 1328.4821 725.85352 1284.5165 769.83311 C 1233.1828 821.18323 1232.1099 822.55836 1231.0126 838.47569 C 1230.0996 851.71783 1233.9256 860.75867 1245.5087 872.7335 L 1254.6024 882.13585 L 1245.2919 891.37413 L 1235.9813 900.61436 L 1216.3114 880.97765 L 1196.6435 861.34288 L 1180.3212 877.66515 L 1163.9989 893.98741 L 1220.9931 950.99327 C 1252.3402 982.34672 1278.3012 1007.9991 1278.6825 1007.9991 C 1279.9657 1007.9991 1310.6669 976.63987 1310.6669 975.32921 C 1310.6669 974.61607 1302.1224 965.47528 1291.6806 955.01475 L 1272.6962 935.99522 L 1281.6044 927.08702 L 1290.5106 918.18077 L 1300.4208 927.59483 C 1311.8619 938.46279 1319.2628 941.65916 1332.788 941.58116 C 1349.3129 941.48582 1351.0728 940.14679 1402.8114 888.26866 C 1455.2464 835.6926 1455.3329 835.57534 1455.3329 817.99913 C 1455.3329 804.41249 1451.461 795.97267 1440.0556 784.70616 L 1431.997 776.74718 L 1439.6356 769.02647 L 1447.2763 761.30772 L 1466.9755 780.97569 L 1486.6767 800.64171 L 1501.6649 785.65343 L 1516.6532 770.66515 L 1459.3407 713.34093 L 1402.0282 656.01671 z M 1360.6923 771.99132 L 1380.6669 791.99913 L 1400.6415 812.00694 L 1363.329 849.33702 C 1342.8076 869.86822 1325.7062 886.6671 1325.3251 886.6671 C 1324.0209 886.6671 1286.6669 848.63562 1286.6669 847.30772 C 1286.6669 846.57865 1303.3216 829.33467 1323.6786 808.98741 L 1360.6923 771.99132 z " />
      <path
         style="fill:#010100"
         d="m 1000.6667,1052.1281 c -2.20003,-1.3907 -54.93167,-53.52141 -117.18144,-115.84602 L 770.30385,822.9646 l -0.84489,-5.58851 c -0.80417,-5.31919 0.15311,-8.96157 2.46718,-12.88372 L 774.8476,799.54086 632.62036,658.10375 C 531.17599,557.22294 488.80746,515.93298 484.86323,514.10805 c -7.58487,-3.50939 -19.65246,-3.40851 -27.81953,0.23257 -3.4593,1.54224 -9.22153,5.54651 -12.80494,8.89838 -6.29929,5.89224 -6.79169,6.0943 -14.85123,6.0943 -6.94637,0 -8.99626,0.55565 -12.29736,3.33334 -4.1862,3.52245 -7.06076,4.20496 -8.4235,2 -1.59741,-2.58467 -5.52653,-1.28213 -9.97396,3.30646 -3.41487,3.52325 -5.45439,4.56605 -8.47516,4.33334 l -3.97809,-0.30647 -15.14,71.33333 c -13.81766,65.10301 -15.43586,71.59535 -18.52741,74.33333 -2.0032,1.77409 -5.12271,3 -7.63395,3 -3.83701,0 -11.94916,-7.70263 -84.11802,-79.87148 -79.19977,-79.19977 -79.86427,-79.90901 -79.01388,-84.33333 1.4478,-7.53241 5.32875,-9.63581 24.99654,-13.54765 9.82516,-1.95418 42.01393,-8.45883 71.53059,-14.45479 L 332,487.55764 v -3.58543 c 0,-2.62056 1.99252,-5.46986 7.4042,-10.58801 7.20935,-6.81829 7.47379,-6.93962 10.04793,-4.61005 2.57886,2.33384 2.87321,2.16562 11.99946,-6.85749 l 9.35575,-9.25002 -0.31811,-29.72309 -0.3181,-29.72308 11.21833,-11.27691 c 6.17008,-6.2023 11.83158,-11.28026 12.5811,-11.28435 4.28361,-0.0234 11.65098,-3.19662 13.29272,-5.72538 1.04761,-1.61362 3.06463,-8.63987 4.48228,-15.61389 9.2788,-45.64648 42.28906,-81.60695 89.29109,-97.27127 20.77985,-6.92528 32.63442,-8.42955 60.29668,-7.6513 26.84418,0.75524 36.14731,2.29024 58.14375,9.59364 28.7825,9.55655 48.17178,21.47172 69.29116,42.58108 18.97996,18.97095 37.15187,41.95222 34.9298,44.1743 -0.3479,0.34789 -4.12705,-1.47174 -8.39811,-4.04364 -12.865,-7.7469 -35.15173,-15.54841 -55.37221,-19.38314 -30.07148,-5.70294 -74.25637,-3.45804 -97.26105,4.94154 C 554.34005,325.3014 552,327.62949 552,332.8733 c 0,4.43693 0.69116,5.37364 8.60242,11.65859 5.48785,4.3597 5.01081,8.06846 -4.26384,33.14937 -8.36031,22.60834 -10.23631,25.79155 -15.96092,27.08256 -2.04105,0.4603 -6.06071,1.42671 -8.93258,2.14759 l -5.22158,1.31068 159.9071,159.90709 159.9071,159.9071 7.01713,-2.96466 c 6.51606,-2.75295 7.38773,-2.82565 12.20716,-1.01815 7.86701,2.95048 232.39211,226.51859 234.70041,233.70005 3.5619,11.08159 3.321,11.41479 -39.0611,54.00948 -21.3957,21.5029 -40.5215,39.9529 -42.5018,40.9999 -5.0149,2.6516 -12.9854,2.3662 -17.7328,-0.6348 z"
         id="path311" />
      <path
         id="path306"
         style="fill:#010100"
         d="M 359.99893 779.33897 L 317.86416 821.47374 L 275.72939 863.6085 L 345.33486 968.1378 L 414.93838 1072.6671 L 447.12197 1104.9972 L 479.30752 1137.3273 L 498.9833 1117.6847 L 518.65908 1098.0421 L 506.35049 1085.6827 L 494.04189 1073.3233 L 515.33486 1051.9991 L 536.62588 1030.6769 L 548.98916 1042.9894 L 561.35439 1055.3019 L 580.00869 1036.6456 L 598.66299 1017.9913 L 479.33096 898.66515 L 359.99893 779.33897 z M 349.94814 850.6671 C 350.71469 850.6671 383.43892 882.76602 422.66689 921.99913 L 493.98916 993.33311 L 473.99502 1013.3058 L 454.00088 1033.2784 L 396.00088 949.14171 C 364.10088 902.8674 337.78026 864.42343 337.5126 863.71007 C 336.93878 862.18076 347.91631 850.6671 349.94814 850.6671 z " />
      <path
         style="fill:#010100"
         d="m 209.65025,1167.6502 -118.997488,-119.0031 19.710358,-19.6775 19.71036,-19.6775 42.94317,25.9526 c 23.61874,14.2739 45.71661,27.578 49.10639,29.5645 l 6.16323,3.6119 -2.041,-3.9469 c -1.12255,-2.1707 -14.31765,-24.3922 -29.32244,-49.381 l -27.28144,-45.43414 19.5221,-19.48956 19.5221,-19.48955 118.99778,119.00335 118.99778,119.0033 -19.3464,19.3119 -19.34639,19.3119 -58.99974,-58.9886 c -32.44985,-32.4437 -59.44723,-58.9885 -59.99418,-58.9885 -0.54694,0 -0.99444,8.7 -0.99444,19.3333 v 19.3333 h -19.66111 -19.66111 l 59.6667,59.6778 59.6667,59.6777 -19.68172,19.6489 -19.68172,19.649 z"
         id="path291" />
      <g
         id="g467"
         transform="translate(230.84558,-230.86008)">
        <g
           id="g468"
           transform="translate(40,-60)">
          <path
             style="fill:#010100"
             d="m 620.35861,1203.7067 -14.9599,-14.9599 -4.4295,4.2932 c -5.33834,5.1742 -6.26594,5.2567 -10.33995,0.9201 l -3.16891,-3.3731 13.91176,-13.9593 13.91176,-13.9593 3.98032,3.9803 3.98032,3.9804 -4.93853,5.0575 -4.93854,5.0575 15.29119,15.2478 15.29119,15.2478 -3.5577,3.7135 c -1.95673,2.0424 -3.89878,3.7134 -4.31565,3.7134 -0.41687,0 -7.48991,-6.732 -15.71786,-14.9599 z"
             id="path297"
             transform="translate(-230.84558,230.86008)" />
          <path
             id="path293"
             style="fill:#010100"
             d="m 579.98135,1198.0343 -13.64453,13.6445 -13.64454,13.6445 19.2754,19.3106 19.27734,19.3105 3.71094,-3.5546 c 2.04113,-1.9556 3.71093,-4.2212 3.71093,-5.0352 0,-0.814 -2.39518,-3.8195 -5.32226,-6.6777 l -5.32227,-5.1953 2.88867,-3.0743 c 3.59321,-3.8248 4.1137,-3.8123 12.97461,0.3125 l 7.21875,3.3594 3.78125,-3.623 c 2.07973,-1.9925 3.78125,-4.0522 3.78125,-4.5782 0,-0.5261 -3.28547,-2.3181 -7.30078,-3.9824 -6.11828,-2.5359 -7.18946,-3.475 -6.61718,-5.7949 0.53049,-2.1505 -2.15761,-5.5891 -12.04297,-15.416 z m -0.5293,16.625 5.20703,5.332 5.20703,5.332 -4.52734,4.6719 c -2.49019,2.5692 -4.88943,4.6719 -5.33008,4.6719 -0.44065,0 -3.0249,-2.2777 -5.74219,-5.0605 l -4.93945,-5.0586 5.0625,-4.9434 z"
             transform="translate(-230.84558,230.86008)" />
          <path
             id="path290"
             style="fill:#010100"
             d="m 529.63955,1247.2491 c -0.25505,0.255 4.43076,12.0778 10.41211,26.2735 5.98134,14.1957 11.1953,26.6003 11.58789,27.5664 0.50251,1.2366 2.02346,0.4882 5.13672,-2.5293 4.17697,-4.0484 4.31952,-4.4851 2.5625,-7.8828 -1.78504,-3.4519 -1.62479,-3.8286 3.95703,-9.3067 5.37792,-5.278 6.11506,-5.6042 9.78125,-4.3261 3.57636,1.2467 4.37222,0.9648 8.09961,-2.8809 l 4.13281,-4.2656 -27.60351,-11.5567 c -15.18131,-6.3562 -27.81136,-11.3469 -28.06641,-11.0918 z m 19.0625,18.42 c 0.72531,-0.039 2.89048,0.7595 5.2207,1.955 l 4.84375,2.4844 -3.13672,2.9453 -3.13476,2.9473 -2.30469,-4.832 c -1.26733,-2.6576 -2.03593,-5.1008 -1.70703,-5.4297 0.0411,-0.041 0.11513,-0.065 0.21875,-0.07 z"
             transform="translate(-230.84558,230.86008)" />
          <path
             style="fill:#010100"
             d="m 761.69195,1062.3734 -14.95991,-14.9599 -4.69307,4.5487 -4.69308,4.5487 -4.03743,-3.8681 -4.03744,-3.8681 13.67309,-13.7198 13.6731,-13.7198 3.97566,3.9757 3.97566,3.9756 -4.57048,4.7156 -4.57048,4.7155 15.23278,15.2761 15.23278,15.2761 -3.86269,4.0318 c -2.12447,2.2175 -4.20376,4.0318 -4.62064,4.0318 -0.41687,0 -7.48991,-6.732 -15.71785,-14.9599 z"
             id="path312"
             transform="translate(-210.84558,210.86008)" />
          <path
             id="path288"
             style="fill:#010100"
             d="m 510.04775,1267.9991 -13.02734,12.9805 -13.0293,12.9785 18.98828,19.0215 c 10.44281,10.4614 19.26164,19.0195 19.59766,19.0195 0.33603,0 2.3011,-1.6181 4.36719,-3.5976 l 3.75586,-3.5996 -5.64844,-5.7559 -5.65039,-5.7559 8.96094,-8.9609 8.96093,-8.9609 -13.63867,-13.6836 z m -0.70898,15.3731 6.28516,6.2871 6.28515,6.2851 -4.54883,4.6954 c -2.5024,2.5818 -4.90695,4.6933 -5.34375,4.6933 -0.43679,0 -3.45139,-2.7084 -6.69922,-6.0176 l -5.90625,-6.0156 4.9629,-4.9629 z" />
          <path
             style="fill:#010100"
             d="m 469.64385,1346.311 -18.98832,-19.0223 12.00432,-11.9487 12.00431,-11.9486 3.63187,3.6318 3.63187,3.6319 -7.9008,7.9841 -7.9008,7.9841 3.87146,4.0409 3.87146,4.041 6.37233,-6.2765 6.37233,-6.2765 3.35973,3.1563 c 1.84785,1.7359 3.35972,3.779 3.35972,4.54 0,0.7611 -2.53059,3.9623 -5.62353,7.1138 l -5.62354,5.7299 3.61779,3.6178 3.61779,3.6178 7.98411,-7.9008 7.98411,-7.9008 4.05093,3.8811 4.05094,3.881 -11.66817,11.7225 c -6.41749,6.4473 -11.98843,11.7225 -12.37987,11.7225 -0.39145,0 -9.25646,-8.5601 -19.70004,-19.0223 z"
             id="path286" />
          <path
             id="path285"
             style="fill:#010100"
             d="m 434.50674,1343.5108 -11.5293,11.5313 -11.53125,11.5293 3.1875,3.3945 c 2.17377,2.3139 4.01,3.1319 5.77344,2.5723 3.69815,-1.1738 25.54434,20.4457 23.3418,23.0996 -1.14443,1.3789 -0.6063,2.7123 2.33398,5.7813 l 3.82227,3.9902 11.75,-11.75 11.75,-11.7481 -5.78321,-13.289 c -6.35351,-14.6012 -5.61679,-13.9454 -24.03515,-21.4239 z m 2.29101,14.0645 c 2.06459,-0.117 4.84297,1.0046 9.73438,3.4668 6.45809,3.2508 7.50896,4.4028 10.19922,11.1855 l 2.99804,7.5606 -2.95117,2.7734 c -1.62297,1.5247 -3.22495,2.7715 -3.56054,2.7715 -0.33559,0 -5.66105,-5.076 -11.83399,-11.2812 -11.0662,-11.124 -11.18881,-11.3202 -8.76367,-14 1.39753,-1.5443 2.57194,-2.3856 4.17773,-2.4766 z" />
        </g>
      </g>
    </g>
  </g>
</svg>
