<svg width="315" height="125" viewBox="0 0 315 125" fill="none" xmlns="http://www.w3.org/2000/svg">
<path d="M29.562 10.464C30.342 10.464 31.148 10.438 31.98 10.386C32.864 10.334 33.566 10.282 34.086 10.23C34.606 10.178 34.892 10.152 34.944 10.152C35.256 10.152 35.412 20.708 35.412 41.82V73.488L31.512 73.254C29.432 73.098 27.664 73.02 26.208 73.02H24.804V42.132C23.66 43.224 21.944 44.914 19.656 47.202C17.472 45.122 15.86 43.536 14.82 42.444V73.41H3.9V10.386L9.282 10.542L14.664 10.62L17.082 20.526C18.642 26.61 19.526 29.652 19.734 29.652C19.786 29.652 19.812 29.626 19.812 29.574C19.864 29.418 20.696 26.116 22.308 19.668L24.57 10.62L29.562 10.464ZM63.9527 27.702L64.1867 19.98H62.6267C61.5347 19.98 60.9367 20.162 60.8327 20.526C60.7287 20.994 60.3647 22.866 59.7407 26.142C59.1167 29.366 58.2587 33.89 57.1667 39.714C56.0747 45.538 55.0347 50.946 54.0467 55.938L53.8127 56.718H63.7187V46.11C63.7187 38.05 63.7967 31.914 63.9527 27.702ZM52.7207 12.336C52.7727 12.076 53.3187 11.92 54.3587 11.868C55.3987 11.816 58.4407 11.79 63.4847 11.79H74.1707L74.2487 35.658C74.2487 53.754 74.1967 64.05 74.0927 66.546L73.8587 73.41H64.4207L64.6547 70.524L64.8107 67.638H53.8127V73.8H43.2827V67.638C43.2827 64.414 43.4647 60.748 43.8287 56.64C44.2447 52.792 45.3627 46.76 47.1827 38.544C47.4427 37.4 48.3007 33.214 49.7567 25.986C51.2647 18.758 52.2527 14.208 52.7207 12.336ZM102.254 37.452V22.788H92.6603V37.452H102.254ZM82.2863 31.68L82.5203 11.946L95.7023 12.102C103.034 12.206 107.376 12.362 108.728 12.57C110.08 12.726 111.172 13.35 112.004 14.442L113.018 15.69V29.808C113.018 36.516 112.992 40.624 112.94 42.132C112.888 43.588 112.706 44.628 112.394 45.252C111.562 46.968 109.872 47.982 107.324 48.294C107.064 48.346 106.83 48.398 106.622 48.45C106.414 48.45 106.232 48.476 106.076 48.528C105.92 48.58 105.79 48.632 105.686 48.684C105.582 48.684 105.504 48.71 105.452 48.762C105.452 48.814 105.452 48.866 105.452 48.918C105.504 49.022 106.336 51.102 107.948 55.158C109.612 59.214 111.224 63.244 112.784 67.248C114.396 71.304 115.202 73.41 115.202 73.566C115.202 73.67 113.46 73.722 109.976 73.722H104.75L101.084 63.894C100.356 61.918 99.4203 59.448 98.2763 56.484C97.1323 53.52 96.4823 51.83 96.3263 51.414C95.4943 49.282 94.6623 48.216 93.8303 48.216C93.5703 48.216 93.3623 48.242 93.2063 48.294L92.3483 48.45L92.5043 61.086L92.7383 73.722H82.0523V62.49C82.0523 52.766 82.1303 42.496 82.2863 31.68ZM123.187 23.802V11.478H153.997V24.114H146.041L146.197 48.918L146.431 73.722H133.483V60.774C133.483 50.738 133.405 42.418 133.249 35.814L133.015 23.802H123.187ZM162.35 10.542C162.61 10.23 167.446 10.074 176.858 10.074C183.462 10.074 187.518 10.126 189.026 10.23C190.586 10.282 191.496 10.464 191.756 10.776C192.068 11.088 192.224 12.232 192.224 14.208V16.626L192.146 21.93C191.002 21.982 189.312 22.008 187.076 22.008C184.84 22.008 183.176 22.034 182.084 22.086V41.664C182.084 54.768 182.214 61.502 182.474 61.866C182.786 62.282 183.67 62.49 185.126 62.49C185.282 62.49 185.646 62.49 186.218 62.49C186.79 62.438 187.258 62.412 187.622 62.412L192.302 62.256V72.708H161.882V67.95C161.882 64.778 161.96 63.088 162.116 62.88C162.22 62.62 163.91 62.464 167.186 62.412L171.944 62.256L172.1 42.288V22.32C170.956 22.32 169.24 22.372 166.952 22.476C164.664 22.58 162.948 22.632 161.804 22.632L161.96 16.782C161.96 12.986 162.09 10.906 162.35 10.542ZM201.055 10.62C201.367 10.308 202.459 10.152 204.331 10.152H206.593L211.663 10.308L211.585 15.378C211.585 17.458 211.533 26.09 211.429 41.274C211.429 42.938 211.403 45.2 211.351 48.06C211.351 50.868 211.351 52.818 211.351 53.91C211.351 59.37 211.403 62.204 211.507 62.412C211.715 62.62 212.885 62.724 215.017 62.724H216.655L221.569 62.646L221.647 58.356C221.647 57.888 221.647 57.368 221.647 56.796C221.699 56.224 221.725 55.808 221.725 55.548C221.725 55.236 221.725 54.898 221.725 54.534C221.777 54.17 221.803 53.91 221.803 53.754C221.855 53.598 221.933 53.416 222.037 53.208C222.141 53 222.245 52.87 222.349 52.818C222.453 52.766 222.583 52.714 222.739 52.662C222.947 52.558 223.155 52.506 223.363 52.506C223.623 52.506 223.935 52.506 224.299 52.506C224.507 52.506 224.923 52.532 225.547 52.584C226.171 52.584 226.691 52.584 227.107 52.584L232.177 52.662L232.255 62.724C232.255 69.536 232.177 73.02 232.021 73.176C231.761 73.436 226.379 73.566 215.875 73.566H200.119L200.353 72.084C200.457 70.94 200.509 60.54 200.509 40.884C200.509 21.124 200.691 11.036 201.055 10.62ZM240.969 10.62C241.281 10.308 242.373 10.152 244.245 10.152H246.507L251.577 10.308L251.499 15.378C251.499 17.458 251.447 26.09 251.343 41.274C251.343 42.938 251.317 45.2 251.265 48.06C251.265 50.868 251.265 52.818 251.265 53.91C251.265 59.37 251.317 62.204 251.421 62.412C251.629 62.62 252.799 62.724 254.931 62.724H256.569L261.483 62.646L261.561 58.356C261.561 57.888 261.561 57.368 261.561 56.796C261.613 56.224 261.639 55.808 261.639 55.548C261.639 55.236 261.639 54.898 261.639 54.534C261.691 54.17 261.717 53.91 261.717 53.754C261.769 53.598 261.847 53.416 261.951 53.208C262.055 53 262.159 52.87 262.263 52.818C262.367 52.766 262.497 52.714 262.653 52.662C262.861 52.558 263.069 52.506 263.277 52.506C263.537 52.506 263.849 52.506 264.213 52.506C264.421 52.506 264.837 52.532 265.461 52.584C266.085 52.584 266.605 52.584 267.021 52.584L272.091 52.662L272.169 62.724C272.169 69.536 272.091 73.02 271.935 73.176C271.675 73.436 266.293 73.566 255.789 73.566H240.033L240.267 72.084C240.371 70.94 240.423 60.54 240.423 40.884C240.423 21.124 240.605 11.036 240.969 10.62ZM299.993 32.616C299.837 32.356 299.473 32.2 298.901 32.148C298.381 32.044 297.081 31.992 295.001 31.992C291.881 31.992 290.295 32.122 290.243 32.382C290.035 33.11 289.931 37.14 289.931 44.472C289.931 48.268 289.983 50.244 290.087 50.4C290.243 50.764 290.555 50.998 291.023 51.102C291.491 51.154 292.843 51.18 295.079 51.18H299.837L300.071 49.542C300.227 48.294 300.305 45.46 300.305 41.04C300.305 35.788 300.201 32.98 299.993 32.616ZM280.805 12.492C280.961 12.18 281.715 11.998 283.067 11.946C284.471 11.842 288.397 11.79 294.845 11.79C303.893 11.79 308.677 11.92 309.197 12.18C309.665 12.44 309.899 13.688 309.899 15.924V16.704C309.899 17.952 309.769 18.758 309.509 19.122C309.249 19.486 308.573 19.668 307.481 19.668C307.221 19.668 306.051 19.616 303.971 19.512L299.525 19.278L299.759 20.058C299.915 20.422 299.993 21.098 299.993 22.086V23.412L302.333 23.49C303.893 23.542 305.141 23.906 306.077 24.582C307.949 25.778 309.223 27.468 309.899 29.652C310.055 30.276 310.133 32.928 310.133 37.608V42.678C310.081 48.19 310.003 51.57 309.899 52.818C309.847 54.066 309.639 55.054 309.275 55.782C307.871 58.382 305.687 59.682 302.723 59.682H302.255H301.397C300.877 59.682 300.513 59.76 300.305 59.916C300.149 60.02 300.071 60.306 300.071 60.774C300.071 61.294 300.097 61.71 300.149 62.022C300.357 63.374 300.539 64.102 300.695 64.206L300.929 64.284C301.085 64.284 301.267 64.284 301.475 64.284C301.735 64.284 301.995 64.284 302.255 64.284C302.515 64.284 302.983 64.284 303.659 64.284C304.387 64.232 304.985 64.206 305.453 64.206L309.899 64.05V67.95C309.899 70.602 309.769 72.058 309.509 72.318C309.249 72.578 304.803 72.708 296.171 72.708C290.295 72.708 286.109 72.63 283.613 72.474L280.493 72.24V64.128H283.847C285.355 64.128 286.967 64.05 288.683 63.894C289.463 63.79 289.905 63.66 290.009 63.504C290.165 63.348 290.269 62.88 290.321 62.1V61.554C290.321 60.722 290.087 60.15 289.619 59.838C289.203 59.526 288.397 59.37 287.201 59.37C285.017 59.37 283.249 58.694 281.897 57.342C280.909 56.354 280.337 55.184 280.181 53.832C280.025 52.428 279.947 48.398 279.947 41.742V29.808L280.883 28.17C281.923 26.454 283.041 25.232 284.237 24.504C285.485 23.776 287.123 23.412 289.151 23.412H290.711V19.356H280.493V16.236C280.493 14.26 280.597 13.012 280.805 12.492Z" fill="#001011"/>
<path d="M16.116 91.959L16.269 86.91H15.249C14.535 86.91 14.144 87.029 14.076 87.267C14.008 87.573 13.77 88.797 13.362 90.939C12.954 93.047 12.393 96.005 11.679 99.813C10.965 103.621 10.285 107.157 9.639 110.421L9.486 110.931H15.963V103.995C15.963 98.725 16.014 94.713 16.116 91.959ZM8.772 81.912C8.806 81.742 9.163 81.64 9.843 81.606C10.523 81.572 12.512 81.555 15.81 81.555H22.797L22.848 97.161C22.848 108.993 22.814 115.725 22.746 117.357L22.593 121.845H16.422L16.575 119.958L16.677 118.071H9.486V122.1H2.601V118.071C2.601 115.963 2.72 113.566 2.958 110.88C3.23 108.364 3.961 104.42 5.151 99.048C5.321 98.3 5.882 95.563 6.834 90.837C7.82 86.111 8.466 83.136 8.772 81.912ZM41.1594 98.334V88.746H34.8864V98.334H41.1594ZM28.1034 94.56L28.2564 81.657L36.8754 81.759C41.6694 81.827 44.5084 81.929 45.3924 82.065C46.2764 82.167 46.9904 82.575 47.5344 83.289L48.1974 84.105V93.336C48.1974 97.722 48.1804 100.408 48.1464 101.394C48.1124 102.346 47.9934 103.026 47.7894 103.434C47.2454 104.556 46.1404 105.219 44.4744 105.423C44.3044 105.457 44.1514 105.491 44.0154 105.525C43.8794 105.525 43.7604 105.542 43.6584 105.576C43.5564 105.61 43.4714 105.644 43.4034 105.678C43.3354 105.678 43.2844 105.695 43.2504 105.729C43.2504 105.763 43.2504 105.797 43.2504 105.831C43.2844 105.899 43.8284 107.259 44.8824 109.911C45.9704 112.563 47.0244 115.198 48.0444 117.816C49.0984 120.468 49.6254 121.845 49.6254 121.947C49.6254 122.015 48.4864 122.049 46.2084 122.049H42.7914L40.3944 115.623C39.9184 114.331 39.3064 112.716 38.5584 110.778C37.8104 108.84 37.3854 107.735 37.2834 107.463C36.7394 106.069 36.1954 105.372 35.6514 105.372C35.4814 105.372 35.3454 105.389 35.2434 105.423L34.6824 105.525L34.7844 113.787L34.9374 122.049H27.9504V114.705C27.9504 108.347 28.0014 101.632 28.1034 94.56ZM54.8461 89.409V81.351H74.9911V89.613H69.7891L69.8911 105.831L70.0441 122.049H61.5781V113.583C61.5781 107.021 61.5271 101.581 61.4251 97.263L61.2721 89.409H54.8461ZM110.339 93.489L108.962 89.154H103.607V96.753C103.607 102.295 103.556 106.29 103.454 108.738L103.352 113.124L106.208 113.073L109.064 112.971C109.506 111.713 110.152 109.826 111.002 107.31C111.886 104.76 112.532 102.856 112.94 101.598L112.328 99.711C112.226 99.371 111.937 98.453 111.461 96.957C110.985 95.461 110.611 94.305 110.339 93.489ZM93.4069 82.218L93.4579 80.688H98.5069C102.417 80.688 105.698 80.739 108.35 80.841L113.246 80.943L115.49 86.91C118.856 95.648 120.539 100.425 120.539 101.241C120.539 101.445 120.029 102.975 119.009 105.831C117.955 108.517 116.748 111.849 115.388 115.827L113.195 122.049H92.8969V119.754C92.8969 117.952 92.9479 116.49 93.0499 115.368C93.1179 114.076 93.2709 113.43 93.5089 113.43C93.5769 113.43 93.7469 113.464 94.0189 113.532C94.2909 113.6 94.5629 113.651 94.8349 113.685L95.8039 113.838V88.95H92.8459L92.9989 88.338C93.1009 87.862 93.2369 85.822 93.4069 82.218ZM125.866 121.59V80.688H147.337V88.95H132.139V97.212H144.43V105.27H132.139V113.532H147.337V121.59H125.866ZM166.538 102.822V89.868H162.968C160.554 89.868 159.33 89.953 159.296 90.123C159.228 90.361 159.16 92.52 159.092 96.6L158.99 102.822H166.538ZM152.615 91.806L152.768 81.555H162.152C168.17 81.555 171.485 81.606 172.097 81.708L172.607 81.861V110.88H158.939V121.386H152.462V111.696C152.462 104.08 152.513 97.45 152.615 91.806ZM177.764 89.409V81.351H197.909V89.613H192.707L192.809 105.831L192.962 122.049H184.496V113.583C184.496 107.021 184.445 101.581 184.343 97.263L184.19 89.409H177.764Z" fill="#001011"/>
</svg>
