<svg width="575" height="507" viewBox="0 0 575 507" fill="none" xmlns="http://www.w3.org/2000/svg">
<g filter="url(#filter0_i_257_2449)">
<path d="M512.049 505.466C510.674 504.596 477.705 471.981 438.786 432.988L368.023 362.092L367.495 358.596C366.992 355.268 367.591 352.989 369.037 350.535L370.864 347.437L281.941 258.948C218.517 195.833 192.027 170 189.561 168.859C184.819 166.663 177.274 166.726 172.168 169.004C170.005 169.969 166.403 172.474 164.162 174.571C160.224 178.258 159.916 178.384 154.877 178.384C150.534 178.384 149.253 178.732 147.189 180.47C144.571 182.673 142.774 183.1 141.922 181.721C140.923 180.104 138.467 180.919 135.686 183.789C133.551 185.994 132.276 186.646 130.387 186.501L127.9 186.309L118.435 230.938C109.796 271.669 108.784 275.731 106.851 277.444C105.599 278.554 103.648 279.321 102.078 279.321C99.6791 279.321 94.6073 274.502 49.4862 229.35C-0.0306759 179.799 -0.446124 179.356 0.0855523 176.588C0.990739 171.875 3.41717 170.559 15.7138 168.112C21.8566 166.889 41.9815 162.819 60.4358 159.068L93.989 152.247V150.004C93.989 148.365 95.2347 146.582 98.6182 143.38C103.126 139.114 103.291 139.038 104.9 140.496C106.513 141.956 106.697 141.851 112.403 136.205L118.252 130.418L118.053 111.822L117.854 93.2262L124.868 86.1709C128.726 82.2904 132.265 79.1134 132.734 79.1109C135.412 79.0962 140.018 77.111 141.045 75.5289C141.7 74.5193 142.961 70.1234 143.847 65.7601C149.648 37.2018 170.287 14.7034 199.673 4.90316C212.665 0.570409 220.077 -0.370729 237.372 0.116177C254.155 0.588687 259.971 1.54905 273.724 6.11836C291.719 12.0973 303.842 19.552 317.046 32.7589C328.912 44.6279 340.274 59.006 338.884 60.3962C338.667 60.6138 336.304 59.4754 333.634 57.8663C325.59 53.0195 311.656 48.1386 299.014 45.7394C280.213 42.1714 252.588 43.5759 238.205 48.831C232.999 50.7331 231.536 52.1897 231.536 55.4704C231.536 58.2464 231.968 58.8324 236.915 62.7645C240.346 65.4921 240.047 67.8125 234.249 83.5042C229.022 97.6489 227.849 99.6405 224.27 100.448C222.994 100.736 220.481 101.341 218.685 101.792L215.42 102.612L315.397 202.656L415.373 302.701L419.76 300.846C423.834 299.124 424.379 299.078 427.392 300.209C432.311 302.055 572.687 441.929 574.131 446.422C576.358 453.355 576.207 453.563 549.709 480.212C536.332 493.665 524.374 505.209 523.136 505.864C520.001 507.523 515.018 507.344 512.049 505.466Z" fill="#121619"/>
<path d="M512.049 505.466C510.674 504.596 477.705 471.981 438.786 432.988L368.023 362.092L367.495 358.596C366.992 355.268 367.591 352.989 369.037 350.535L370.864 347.437L281.941 258.948C218.517 195.833 192.027 170 189.561 168.859C184.819 166.663 177.274 166.726 172.168 169.004C170.005 169.969 166.403 172.474 164.162 174.571C160.224 178.258 159.916 178.384 154.877 178.384C150.534 178.384 149.253 178.732 147.189 180.47C144.571 182.673 142.774 183.1 141.922 181.721C140.923 180.104 138.467 180.919 135.686 183.789C133.551 185.994 132.276 186.646 130.387 186.501L127.9 186.309L118.435 230.938C109.796 271.669 108.784 275.731 106.851 277.444C105.599 278.554 103.648 279.321 102.078 279.321C99.6791 279.321 94.6073 274.502 49.4862 229.35C-0.0306759 179.799 -0.446124 179.356 0.0855523 176.588C0.990739 171.875 3.41717 170.559 15.7138 168.112C21.8566 166.889 41.9815 162.819 60.4358 159.068L93.989 152.247V150.004C93.989 148.365 95.2347 146.582 98.6182 143.38C103.126 139.114 103.291 139.038 104.9 140.496C106.513 141.956 106.697 141.851 112.403 136.205L118.252 130.418L118.053 111.822L117.854 93.2262L124.868 86.1709C128.726 82.2904 132.265 79.1134 132.734 79.1109C135.412 79.0962 140.018 77.111 141.045 75.5289C141.7 74.5193 142.961 70.1234 143.847 65.7601C149.648 37.2018 170.287 14.7034 199.673 4.90316C212.665 0.570409 220.077 -0.370729 237.372 0.116177C254.155 0.588687 259.971 1.54905 273.724 6.11836C291.719 12.0973 303.842 19.552 317.046 32.7589C328.912 44.6279 340.274 59.006 338.884 60.3962C338.667 60.6138 336.304 59.4754 333.634 57.8663C325.59 53.0195 311.656 48.1386 299.014 45.7394C280.213 42.1714 252.588 43.5759 238.205 48.831C232.999 50.7331 231.536 52.1897 231.536 55.4704C231.536 58.2464 231.968 58.8324 236.915 62.7645C240.346 65.4921 240.047 67.8125 234.249 83.5042C229.022 97.6489 227.849 99.6405 224.27 100.448C222.994 100.736 220.481 101.341 218.685 101.792L215.42 102.612L315.397 202.656L415.373 302.701L419.76 300.846C423.834 299.124 424.379 299.078 427.392 300.209C432.311 302.055 572.687 441.929 574.131 446.422C576.358 453.355 576.207 453.563 549.709 480.212C536.332 493.665 524.374 505.209 523.136 505.864C520.001 507.523 515.018 507.344 512.049 505.466Z" fill="#999999"/>
</g>
<defs>
<filter id="filter0_i_257_2449" x="0" y="0" width="575" height="511" filterUnits="userSpaceOnUse" color-interpolation-filters="sRGB">
<feFlood flood-opacity="0" result="BackgroundImageFix"/>
<feBlend mode="normal" in="SourceGraphic" in2="BackgroundImageFix" result="shape"/>
<feColorMatrix in="SourceAlpha" type="matrix" values="0 0 0 0 0 0 0 0 0 0 0 0 0 0 0 0 0 0 127 0" result="hardAlpha"/>
<feOffset dy="4"/>
<feGaussianBlur stdDeviation="2"/>
<feComposite in2="hardAlpha" operator="arithmetic" k2="-1" k3="1"/>
<feColorMatrix type="matrix" values="0 0 0 0 0 0 0 0 0 0 0 0 0 0 0 0 0 0 0.25 0"/>
<feBlend mode="normal" in2="shape" result="effect1_innerShadow_257_2449"/>
</filter>
</defs>
</svg>
