<svg width="637" height="118" viewBox="0 0 637 118" fill="none" xmlns="http://www.w3.org/2000/svg">
<path d="M40.02 62.93V26.1H29.87C23.0067 26.1 19.5267 26.3417 19.43 26.825C19.2367 27.5017 19.0433 33.64 18.85 45.24L18.56 62.93H40.02ZM0.435 31.61L0.87 2.46498H27.55C44.66 2.46498 54.085 2.60998 55.825 2.89999L57.275 3.33499V85.84H18.415V115.71H1.08033e-07V88.16C1.08033e-07 66.5067 0.145 47.6567 0.435 31.61ZM109.347 50.17V22.91H91.512V50.17H109.347ZM72.227 39.44L72.662 2.75499L97.167 3.04498C110.797 3.23832 118.869 3.52832 121.382 3.91498C123.895 4.20498 125.925 5.36499 127.472 7.39499L129.357 9.71498V35.96C129.357 48.43 129.309 56.0667 129.212 58.87C129.115 61.5767 128.777 63.51 128.197 64.67C126.65 67.86 123.509 69.745 118.772 70.325C118.289 70.4217 117.854 70.5183 117.467 70.615C117.08 70.615 116.742 70.6633 116.452 70.76C116.162 70.8567 115.92 70.9533 115.727 71.05C115.534 71.05 115.389 71.0983 115.292 71.195C115.292 71.2917 115.292 71.3883 115.292 71.485C115.389 71.6783 116.935 75.545 119.932 83.085C123.025 90.625 126.022 98.1167 128.922 105.56C131.919 113.1 133.417 117.015 133.417 117.305C133.417 117.498 130.179 117.595 123.702 117.595H113.987L107.172 99.325C105.819 95.6517 104.079 91.06 101.952 85.55C99.8253 80.04 98.617 76.8983 98.327 76.125C96.7803 72.1617 95.2337 70.18 93.687 70.18C93.2037 70.18 92.817 70.2283 92.527 70.325L90.932 70.615L91.222 94.105L91.657 117.595H71.792V96.715C71.792 78.6383 71.937 59.5467 72.227 39.44ZM185.38 41.18C185.09 40.6967 184.414 40.4067 183.35 40.31C182.384 40.1167 179.967 40.02 176.1 40.02C170.3 40.02 167.352 40.2617 167.255 40.745C166.869 42.0983 166.675 49.59 166.675 63.22C166.675 70.2767 166.772 73.95 166.965 74.24C167.255 74.9167 167.835 75.3517 168.705 75.545C169.575 75.6417 172.089 75.69 176.245 75.69H185.09L185.525 72.645C185.815 70.325 185.96 65.0567 185.96 56.84C185.96 47.0767 185.767 41.8567 185.38 41.18ZM149.71 3.76998C150 3.18998 151.402 2.85165 153.915 2.75499C156.525 2.56165 163.824 2.46498 175.81 2.46498C192.63 2.46498 201.524 2.70665 202.49 3.18998C203.36 3.67331 203.795 5.99332 203.795 10.15V11.6C203.795 13.92 203.554 15.4183 203.07 16.095C202.587 16.7717 201.33 17.11 199.3 17.11C198.817 17.11 196.642 17.0133 192.775 16.82L184.51 16.385L184.945 17.835C185.235 18.5117 185.38 19.7683 185.38 21.605V24.07L189.73 24.215C192.63 24.3117 194.95 24.9883 196.69 26.245C200.17 28.4683 202.539 31.61 203.795 35.67C204.085 36.83 204.23 41.76 204.23 50.46V59.885C204.134 70.1317 203.989 76.415 203.795 78.735C203.699 81.055 203.312 82.8917 202.635 84.245C200.025 89.0783 195.965 91.495 190.455 91.495H189.585H187.99C187.024 91.495 186.347 91.64 185.96 91.93C185.67 92.1233 185.525 92.655 185.525 93.525C185.525 94.4917 185.574 95.265 185.67 95.845C186.057 98.3583 186.395 99.7117 186.685 99.905L187.12 100.05C187.41 100.05 187.749 100.05 188.135 100.05C188.619 100.05 189.102 100.05 189.585 100.05C190.069 100.05 190.939 100.05 192.195 100.05C193.549 99.9533 194.66 99.905 195.53 99.905L203.795 99.615V106.865C203.795 111.795 203.554 114.502 203.07 114.985C202.587 115.468 194.322 115.71 178.275 115.71C167.352 115.71 159.57 115.565 154.93 115.275L149.13 114.84V99.76H155.365C158.169 99.76 161.165 99.615 164.355 99.325C165.805 99.1317 166.627 98.89 166.82 98.6C167.11 98.31 167.304 97.44 167.4 95.99V94.975C167.4 93.4283 166.965 92.365 166.095 91.785C165.322 91.205 163.824 90.915 161.6 90.915C157.54 90.915 154.254 89.6583 151.74 87.145C149.904 85.3083 148.84 83.1333 148.55 80.62C148.26 78.01 148.115 70.5183 148.115 58.145V35.96L149.855 32.915C151.789 29.725 153.867 27.4533 156.09 26.1C158.41 24.7467 161.455 24.07 165.225 24.07H168.125V16.53H149.13V10.73C149.13 7.05665 149.324 4.73665 149.71 3.76998ZM219.206 2.02999C219.206 1.54666 221.139 1.30499 225.006 1.30499H228.196L237.331 1.59499L242.696 17.255C246.369 27.7917 248.303 33.06 248.496 33.06C248.689 33.06 249.511 30.74 250.961 26.1C252.121 22.33 253.764 17.0617 255.891 10.295L258.646 1.15998H266.621C271.938 1.15998 274.596 1.35332 274.596 1.73998C274.596 1.83665 274.209 2.99665 273.436 5.21998C272.759 7.44332 271.648 10.8267 270.101 15.37C268.554 19.8167 267.153 24.0217 265.896 27.985L257.341 53.65V117.015H236.316V54.375L227.761 28.565C222.058 11.0683 219.206 2.22332 219.206 2.02999ZM289.575 116.29V-1.15633e-05H350.62V23.49H307.41V46.98H342.355V69.89H307.41V93.38H350.62V116.29H289.575ZM365.19 117.015V0.57999H422.465V32.77L410.865 33.35C408.932 33.4467 406.66 33.495 404.05 33.495C400.667 33.495 398.927 33.3017 398.83 32.915C398.444 32.335 398.154 30.6917 397.96 27.985L397.525 23.78L393.61 21.46C390.904 19.8167 389.405 18.995 389.115 18.995C388.825 18.995 388.68 33.1083 388.68 61.335V103.82L391.29 101.645C391.87 101.162 392.595 100.533 393.465 99.76C394.432 98.9867 395.012 98.5517 395.205 98.455C396.172 97.7783 396.704 95.41 396.8 91.35L397.09 85.115H421.16V117.015H365.19ZM437.127 24.795V1.88498H494.402V25.375H479.612L479.902 71.485L480.337 117.595H456.267V93.525C456.267 74.8683 456.122 59.4017 455.832 47.125L455.397 24.795H437.127ZM546.181 41.18C545.891 40.6967 545.214 40.4067 544.151 40.31C543.184 40.1167 540.768 40.02 536.901 40.02C531.101 40.02 528.153 40.2617 528.056 40.745C527.669 42.0983 527.476 49.59 527.476 63.22C527.476 70.2767 527.573 73.95 527.766 74.24C528.056 74.9167 528.636 75.3517 529.506 75.545C530.376 75.6417 532.889 75.69 537.046 75.69H545.891L546.326 72.645C546.616 70.325 546.761 65.0567 546.761 56.84C546.761 47.0767 546.568 41.8567 546.181 41.18ZM510.511 3.76998C510.801 3.18998 512.203 2.85165 514.716 2.75499C517.326 2.56165 524.624 2.46498 536.611 2.46498C553.431 2.46498 562.324 2.70665 563.291 3.18998C564.161 3.67331 564.596 5.99332 564.596 10.15V11.6C564.596 13.92 564.354 15.4183 563.871 16.095C563.388 16.7717 562.131 17.11 560.101 17.11C559.618 17.11 557.443 17.0133 553.576 16.82L545.311 16.385L545.746 17.835C546.036 18.5117 546.181 19.7683 546.181 21.605V24.07L550.531 24.215C553.431 24.3117 555.751 24.9883 557.491 26.245C560.971 28.4683 563.339 31.61 564.596 35.67C564.886 36.83 565.031 41.76 565.031 50.46V59.885C564.934 70.1317 564.789 76.415 564.596 78.735C564.499 81.055 564.113 82.8917 563.436 84.245C560.826 89.0783 556.766 91.495 551.256 91.495H550.386H548.791C547.824 91.495 547.148 91.64 546.761 91.93C546.471 92.1233 546.326 92.655 546.326 93.525C546.326 94.4917 546.374 95.265 546.471 95.845C546.858 98.3583 547.196 99.7117 547.486 99.905L547.921 100.05C548.211 100.05 548.549 100.05 548.936 100.05C549.419 100.05 549.903 100.05 550.386 100.05C550.869 100.05 551.739 100.05 552.996 100.05C554.349 99.9533 555.461 99.905 556.331 99.905L564.596 99.615V106.865C564.596 111.795 564.354 114.502 563.871 114.985C563.388 115.468 555.123 115.71 539.076 115.71C528.153 115.71 520.371 115.565 515.731 115.275L509.931 114.84V99.76H516.166C518.969 99.76 521.966 99.615 525.156 99.325C526.606 99.1317 527.428 98.89 527.621 98.6C527.911 98.31 528.104 97.44 528.201 95.99V94.975C528.201 93.4283 527.766 92.365 526.896 91.785C526.123 91.205 524.624 90.915 522.401 90.915C518.341 90.915 515.054 89.6583 512.541 87.145C510.704 85.3083 509.641 83.1333 509.351 80.62C509.061 78.01 508.916 70.5183 508.916 58.145V35.96L510.656 32.915C512.589 29.725 514.668 27.4533 516.891 26.1C519.211 24.7467 522.256 24.07 526.026 24.07H528.926V16.53H509.931V10.73C509.931 7.05665 510.124 4.73665 510.511 3.76998ZM579.717 43.645V2.46498H636.992V32.335H617.852V18.995H601.322V39.005L636.992 74.675V117.015H579.717V83.955H602.627V104.255H614.082V80.765C598.808 64.3317 587.353 51.9583 579.717 43.645Z" fill="#FBFEF9"/>
</svg>
