<svg width="46" height="42" viewBox="0 0 46 42" fill="none" xmlns="http://www.w3.org/2000/svg">
<path d="M35.9879 15.0818C35.8718 17.5579 34.1076 20.9483 30.6835 25.2532C27.1492 29.7511 24.1604 32 21.7114 32C20.1967 32 18.9141 30.6313 17.8637 27.894C15.8209 20.5565 14.9504 16.2574 13.2615 16.2574C13.0642 16.2574 12.3852 16.6606 11.2187 17.4557L10 15.9109C12.9946 13.3383 15.8557 10.476 17.649 10.317C19.6744 10.1239 20.9163 11.4812 21.3864 14.3776C23.052 24.6852 23.789 26.2413 26.8184 21.5731C27.9037 19.892 28.4898 18.6142 28.5711 17.7339C28.8496 15.1272 26.4934 15.3033 24.8975 15.9734C26.1742 11.8787 28.6175 9.89102 32.2214 10.0046C34.8794 10.0728 36.1388 11.7708 35.9879 15.0818Z" fill="#F8F1CD"/>
</svg>
