<?xml version="1.0" encoding="UTF-8" standalone="no"?>
<svg
   id="Black"
   version="1.1"
   viewBox="484.1 112.4 2719.5552 314.6"
   sodipodi:docname="Prime_Amazon_MGM_Studios_logo_2024-2.svg"
   inkscape:version="1.4.2 (ebf0e940d0, 2025-05-08)"
   width="2719.5552"
   height="314.60001"
   xmlns:inkscape="http://www.inkscape.org/namespaces/inkscape"
   xmlns:sodipodi="http://sodipodi.sourceforge.net/DTD/sodipodi-0.dtd"
   xmlns="http://www.w3.org/2000/svg"
   xmlns:svg="http://www.w3.org/2000/svg">
  <sodipodi:namedview
     id="namedview2"
     pagecolor="#ffffff"
     bordercolor="#000000"
     borderopacity="0.25"
     inkscape:showpageshadow="2"
     inkscape:pageopacity="0.0"
     inkscape:pagecheckerboard="0"
     inkscape:deskcolor="#d1d1d1"
     inkscape:zoom="0.10389126"
     inkscape:cx="1400.5028"
     inkscape:cy="154.00718"
     inkscape:window-width="1280"
     inkscape:window-height="730"
     inkscape:window-x="0"
     inkscape:window-y="0"
     inkscape:window-maximized="1"
     inkscape:current-layer="Black" />
  <defs
     id="defs1">
    <style
       id="style1">.cls-1{stroke-width:0;fill:#000}</style>
  </defs>
  <path
     class="cls-1"
     d="m 1589.5998,425.39994 c -3.1,0 -5.5,-2.5 -5.5,-5.5 V 119.7 c 0,-3.1 2.5,-5.5 5.5,-5.5 3,0 5.5,2.5 5.5,5.5 v 300.19994 c 0,3.1 -2.5,5.5 -5.5,5.5"
     id="path1" />
  <path
     style="fill:#000000;stroke:none;stroke-width:1.13223"
     d="m 2432.1538,112.43897 c -1.4761,0.19388 -3.0178,0.0577 -4.5055,0.15962 -2.6607,0.18214 -5.3317,0.51685 -7.9565,1.00863 -11.1603,2.09097 -21.6727,7.5642 -29.2105,16.14209 -5.2637,5.99006 -8.911,13.21102 -11.2456,20.80203 -2.104,6.84168 -2.9493,13.87953 -3.2608,20.99376 -0.7966,18.19534 3.6431,38.26236 17.259,51.28235 13.0268,12.45676 31.72,16.26841 49.1772,13.97261 5.85,-0.76933 11.6229,-2.31637 16.9675,-4.84094 3.5844,-1.6931 6.9867,-3.81245 10.0655,-6.31062 15.7287,-12.7623 20.7996,-33.64065 20.3242,-53.04892 -0.1746,-7.1291 -1.0057,-14.21644 -3.0138,-21.08963 -2.4697,-8.4537 -6.6948,-16.44576 -12.7176,-22.91098 -7.9169,-8.49857 -18.9698,-13.68329 -30.3796,-15.36395 -2.9544,-0.43516 -5.9291,-0.74086 -8.9152,-0.74086 -0.863,0 -1.7287,-0.16809 -2.5883,-0.0551 m -724.716,121.9915 h 15.4338 4.0262 l 1.4798,-0.0985 0.7569,-2.01042 1.7575,-5.46413 4.8275,-15.05032 2.2983,-7.28551 h 34.8936 9.2028 c 0.836,0 2.8068,-0.36645 3.5067,0.0985 0.4571,0.30368 0.6091,1.41653 0.7751,1.91456 l 1.7255,5.17656 5.4002,16.20065 1.5019,4.5055 c 0.1733,0.51995 0.2983,1.46349 0.6879,1.8594 0.2957,0.30048 1.0674,0.15371 1.453,0.15371 h 3.8344 15.7214 l -9.8074,-27.22479 -22.3359,-62.02266 -8.1371,-22.6234 -1.9652,-5.46413 -0.8341,-1.85939 -1.4961,-0.0578 h -3.451 -12.3661 -3.8345 l -1.4384,0.15371 -1.0947,2.81802 -2.4924,6.80618 -8.9754,24.54065 -20.2269,55.31233 -10.8273,29.62133 m 172.5514,-119.25222 v 119.25222 h 19.2682 v -88.864 h 0.096 l 6.4949,12.84551 15.338,30.29237 5.7517,11.3117 1.5338,3.06758 0.8221,1.3394 1.2147,0.0985 h 2.78 10.5448 3.0676 l 1.281,-0.0985 0.6599,-1.14767 1.4009,-2.68415 5.7517,-11.02411 14.9468,-28.66271 5.6047,-10.73654 2.4687,-4.88896 h 0.096 v 89.15158 h 19.3641 V 115.17839 h -16.6799 -4.4097 c -0.439,0 -1.2903,-0.16266 -1.6644,0.0985 -0.4268,0.29795 -0.6724,1.17129 -0.9002,1.62699 -0.6422,1.2844 -1.3217,2.54946 -1.9646,3.83448 -2.2824,4.56203 -4.7164,9.04936 -6.9979,13.61239 -5.6591,11.31832 -11.3372,22.70873 -17.3569,33.83927 -1.9304,3.5693 -3.6298,7.26333 -5.56,10.8324 -1.2099,2.23694 -2.9089,4.74484 -3.6132,7.18962 h -0.1917 l -2.6605,-5.4641 -5.56,-11.02414 -17.9262,-35.56478 -6.8062,-13.51654 -1.9172,-3.83446 -0.8516,-1.53113 -1.7603,-0.0985 h -4.5055 -17.1593 m 181.7542,119.25222 h 15.4338 4.0262 l 1.4798,-0.0985 0.757,-2.01042 1.7574,-5.46412 4.8275,-15.05033 2.2983,-7.28551 h 34.8937 9.2028 c 0.836,0 2.8068,-0.36644 3.5067,0.0985 0.4571,0.30375 0.609,1.41647 0.7751,1.91456 l 1.7255,5.17656 5.4002,16.20065 1.5018,4.50551 c 0.1733,0.51989 0.2984,1.46354 0.688,1.85939 0.2958,0.30046 1.0674,0.15371 1.453,0.15371 h 3.8345 15.7213 l -9.8074,-27.22479 -22.3358,-62.02265 -8.1372,-22.62341 -1.9652,-5.46413 -0.8341,-1.85939 -1.4961,-0.0578 h -3.451 -12.3662 -3.8345 l -1.4384,0.15371 -1.0947,2.81802 -2.4924,6.80618 -8.9754,24.54065 -20.2269,55.31234 -10.8273,29.62132 m 172.6474,-119.25222 v 16.8717 h 62.4059 c -1.8006,2.7246 -3.9731,5.26374 -5.9545,7.86068 -3.458,4.53213 -6.8952,9.08024 -10.3531,13.61239 -9.7624,12.79528 -19.453,25.64532 -29.2156,38.44063 -4.7232,6.19055 -9.3624,12.45126 -14.1434,18.59721 -1.5036,1.93282 -2.9834,3.88858 -4.4528,5.84757 -0.5751,0.76688 -1.5785,1.67038 -1.8752,2.58827 -0.4333,1.34033 -0.054,3.38279 -0.054,4.7931 v 10.64067 h 87.1384 v -12.65377 -3.06759 l -0.1537,-1.0518 -1.1884,-0.0985 h -3.2593 -12.6538 -48.7936 c 4.0642,-5.12121 7.9098,-10.42754 11.8758,-15.62548 10.5914,-13.88182 21.0502,-27.86876 31.7078,-41.69994 5.2435,-6.80493 10.329,-13.73382 15.6038,-20.51445 1.6263,-2.09054 3.2232,-4.20796 4.8125,-6.32689 0.6097,-0.81305 1.7092,-1.79669 1.9997,-2.77998 0.4063,-1.37566 0.049,-3.35731 0.049,-4.79311 v -10.64067 h -83.4957 m 325.6429,0 v 119.25219 h 19.2682 V 144.5122 h 0.096 l 1.3997,2.4924 2.8374,4.69725 9.01,14.95446 26.6698,44.28819 10.1612,16.87171 2.761,4.60136 1.2585,1.91457 1.7899,0.0985 h 4.5055 16.5841 v -119.2522 h -19.2683 v 89.91849 l -12.1936,-20.22687 -27.2609,-45.24683 -10.5087,-17.44687 -2.9334,-4.88895 -1.3017,-2.01043 -1.7851,-0.0985 h -4.4096 -16.68 m -129.9888,14.88596 c 3.2114,-0.37901 6.6919,0.0149 9.8738,0.45196 2.8574,0.39255 5.6919,1.22282 8.34,2.35612 1.8919,0.80971 3.7009,1.84898 5.3682,3.0528 13.1369,9.48518 15.4233,27.71339 14.7666,42.71374 -0.556,12.69771 -3.452,26.86694 -14.2873,34.92924 -2.0458,1.52225 -4.2597,2.74325 -6.6144,3.71643 -2.9414,1.21564 -6.1399,1.93311 -9.2986,2.27145 -10.2841,1.10158 -21.2456,-0.77845 -29.0462,-8.04506 -4.8294,-4.49874 -7.8947,-10.75584 -9.6007,-17.05486 -1.3427,-4.95749 -1.9702,-10.03174 -2.1941,-15.14616 -0.6055,-13.82971 0.9004,-30.10194 11.2359,-40.43747 3.8026,-3.80255 8.6852,-6.39565 13.8837,-7.6953 2.5076,-0.62687 5.0237,-0.81201 7.5731,-1.11289 m -668.1576,4.19056 c 1.0398,1.65255 1.4246,4.00765 2.0794,5.84756 1.5755,4.42673 3.0259,8.89807 4.6014,13.32481 2.811,7.89804 5.4613,15.85398 8.2108,23.77376 l 2.78,8.0524 c 0.4377,1.26084 1.114,2.6099 1.309,3.93033 h -37.7694 c 0.2339,-1.5616 1.0332,-3.20794 1.5633,-4.69722 0.8605,-2.41792 1.6318,-4.86757 2.4924,-7.28551 2.6034,-7.315 5.0391,-14.69877 7.5432,-22.04823 1.6448,-4.82728 3.2797,-9.65774 4.9522,-14.47516 0.6939,-1.99883 1.1141,-4.63688 2.2377,-6.42274 m 354.3057,0 c 1.0399,1.65237 1.4247,4.00773 2.0795,5.84756 1.5754,4.4268 3.0259,8.89803 4.6014,13.32481 2.8107,7.89809 5.4612,15.85396 8.2107,23.77376 l 2.78,8.0524 c 0.4377,1.26078 1.1141,2.60993 1.3091,3.93033 h -37.7696 c 0.2338,-1.56163 1.0332,-3.2079 1.5633,-4.69722 0.8604,-2.41792 1.6318,-4.86757 2.4924,-7.28551 2.6032,-7.31507 5.039,-14.69874 7.5433,-22.04823 1.6448,-4.82728 3.2796,-9.65772 4.9521,-14.47516 0.6939,-1.99876 1.114,-4.63702 2.2378,-6.42274 m -137.7536,171.8804 c -2.2105,1.30359 -4.5348,2.51854 -7.0938,2.92972 -4.8903,0.78576 -10.1484,-0.78542 -14.9544,-1.57995 -4.3085,-0.7123 -8.6822,-1.04998 -13.0373,-1.15664 -20.8015,-0.50955 -40.8419,10.57539 -51.6877,28.27787 -14.465,23.60976 -11.5632,56.92359 9.0292,76.10579 5.83,5.43077 12.8174,9.63724 20.3227,12.30842 23.6856,8.42977 50.0085,2.51635 71.6089,-8.84881 -0.1926,-1.11836 -0.851,-2.19519 -1.2411,-3.25931 -0.6747,-1.84014 -1.237,-3.73665 -1.6345,-5.65585 -0.9478,-4.57631 -0.863,-9.15632 -0.863,-13.80412 0,-4.64157 -0.064,-9.38652 1.191,-13.89998 0.7655,-2.75414 2.0288,-5.30859 3.6351,-7.66895 0.9069,-1.33285 2.4308,-2.78196 2.9387,-4.31378 h -39.6869 c 0.3865,1.00474 1.2665,1.90638 1.8894,2.77998 1.3527,1.89736 2.7603,3.81632 3.7369,5.94344 2.9367,6.39663 2.2344,14.0402 2.2344,20.8979 v 5.2724 c 0,0.61293 0.1927,1.61832 -0.058,2.1833 -0.2812,0.63391 -2.0096,0.9663 -2.6263,1.17187 -2.7146,0.90489 -5.5091,1.5353 -8.34,1.94319 -12.6143,1.81772 -25.7804,-1.70813 -34.0497,-11.91283 -14.9312,-18.42567 -11.22,-52.04238 11.2346,-62.97094 3.2446,-1.57908 6.6873,-2.67529 10.2572,-3.22896 11.2142,-1.7392 23.2425,1.40908 32.8807,7.19203 2.2309,1.3386 4.3297,2.88669 6.3269,4.55062 1.1427,0.95208 2.3862,2.35998 3.7386,2.97941 l -1.1243,-7.38138 -2.6695,-16.87169 -1.3106,-8.33999 -0.6474,-3.64276 m 1040.4853,0.23239 c -1.5427,0.20257 -3.142,0.1127 -4.6972,0.2632 -3.0936,0.29937 -6.1941,0.81123 -9.2027,1.60228 -13.9921,3.67894 -26.3312,12.34358 -34.3184,24.45588 -14.2011,21.53571 -13.3742,51.38224 2.5328,71.80058 3.7425,4.804 8.25,9.00335 13.2842,12.42906 5.5785,3.79621 11.8758,6.54574 18.4055,8.21676 7.4657,1.9106 15.3821,2.28217 23.0068,1.27956 5.9273,-0.77938 11.7301,-2.4945 17.1593,-4.98739 21.8896,-10.051 35.3597,-33.62436 34.3148,-57.48757 -0.373,-8.52091 -2.3359,-16.93839 -6.0603,-24.63651 -7.2149,-14.91292 -20.7149,-26.08507 -36.5945,-30.64793 -4.1358,-1.18844 -8.3706,-1.85209 -12.6537,-2.14543 -1.6711,-0.11447 -3.5081,-0.36151 -5.1766,-0.14249 m -726.4416,84.31783 0.9346,5.55999 1.9172,11.11999 2.284,13.22894 0.9993,5.65585 c 2.4695,-1.15286 4.5172,-2.69323 7.2856,-3.12276 3.7818,-0.58678 7.603,0.23362 11.3117,0.97549 4.4187,0.88391 8.8341,1.79779 13.3248,2.22688 14.9471,1.42813 31.3017,-3.20507 40.1331,-16.18447 2.6533,-3.8994 4.4658,-8.36049 5.1396,-13.03722 0.429,-2.97747 0.5009,-6.02164 0.1384,-9.01102 -0.3179,-2.62089 -0.9175,-5.20566 -1.8717,-7.66895 -4.8032,-12.39926 -17.5005,-18.57854 -28.9685,-23.50061 -4.8802,-2.09457 -9.8494,-4.03915 -14.4751,-6.66899 -2.9262,-1.66353 -5.9252,-3.67547 -7.794,-6.54553 -3.0453,-4.67662 -2.345,-11.44966 1.8505,-15.2257 2.4177,-2.17591 5.8812,-3.29108 9.1069,-3.3701 9.7511,-0.23886 19.3081,4.31399 27.4165,9.33789 3.1469,1.94978 6.0734,4.39308 9.2986,6.19034 l -1.6485,-8.62759 -2.934,-15.33788 -1.7444,-9.20277 c -1.2874,0.2295 -2.5213,1.19566 -3.7386,1.68246 -1.889,0.75551 -3.92,1.02537 -5.9434,1.0013 -4.6493,-0.0552 -9.233,-1.56827 -13.8041,-2.27398 -7.3071,-1.12805 -14.587,-1.26598 -21.7607,0.78155 -7.3781,2.10588 -14.1679,6.52983 -18.6521,12.80452 -8.6607,12.1189 -7.9641,30.22838 2.4553,41.12477 9.0903,9.50657 21.715,13.23233 33.1644,18.957 5.3345,2.66727 12.0678,6.24507 13.2807,12.67743 1.7469,9.26453 -7.5311,15.24205 -15.7731,15.24205 -11.4085,0 -21.4177,-5.04455 -30.6759,-11.34471 -3.4771,-2.36617 -6.6939,-5.22536 -10.2572,-7.44423 m 827.4801,0 2.3726,13.80411 3.7626,21.76066 c 2.7922,-1.20328 4.9249,-2.85768 8.0524,-3.23195 3.4754,-0.41586 7.0502,0.38554 10.449,1.06545 4.4499,0.89018 8.8979,1.81396 13.4206,2.24611 15.1505,1.44762 31.596,-3.33215 40.4198,-16.56786 2.5972,-3.89579 4.3799,-8.47521 4.9378,-13.13307 0.3746,-3.12704 0.3788,-6.27021 -0.042,-9.39448 -0.3143,-2.33412 -0.9341,-4.60583 -1.7639,-6.80619 -4.6794,-12.40833 -17.5813,-18.60802 -28.9806,-23.50061 -5.105,-2.19107 -10.3673,-4.19853 -15.1462,-7.0602 -2.9396,-1.76035 -5.7351,-3.83314 -7.5151,-6.82535 -2.6264,-4.41488 -1.7031,-10.87401 2.051,-14.37071 2.4538,-2.28556 5.9726,-3.47258 9.2986,-3.55406 10.2942,-0.25215 20.2818,4.78594 28.7586,10.16507 2.6994,1.71297 5.2381,3.68548 7.9565,5.36316 l -1.6485,-8.72343 -3.0298,-15.81722 -1.6485,-8.62759 c -1.318,0.23496 -2.5876,1.22826 -3.8345,1.72553 -1.8533,0.73907 -3.8643,0.98183 -5.8476,0.95823 -4.7958,-0.057 -9.5648,-1.62366 -14.2834,-2.35549 -7.2369,-1.12236 -14.4914,-1.11164 -21.569,0.95863 -7.4599,2.18211 -14.2544,6.76364 -18.6906,13.18826 -8.4444,12.22912 -7.3507,30.04083 2.973,40.83718 8.9903,9.40195 21.6499,13.10386 32.9728,18.76528 5.1864,2.59316 11.8847,6.07722 13.2087,12.29398 0.246,1.15503 0.3061,2.2819 0.2205,3.45102 -0.5654,7.7183 -8.5217,12.17448 -15.634,12.17448 -11.7862,0 -21.9728,-5.31135 -31.5386,-11.75935 -3.2675,-2.20247 -6.2686,-5.08457 -9.6821,-7.02959 M 1717.695,307.47738 v 69.11646 19.84341 c 0,5.37894 0.142,10.89188 -1.3827,16.10481 -0.983,3.36049 -3.0688,6.22232 -5.2318,8.91515 -0.963,1.19891 -2.4275,2.43716 -3.0675,3.83448 h 40.1661 c -2.8637,-4.18815 -6.5421,-7.42389 -8.2366,-12.36619 -2.0458,-5.96727 -1.4454,-12.67899 -1.4454,-18.88479 v -31.15513 h 0.096 l 3.9168,5.55999 7.9297,11.02412 13.5161,18.78894 7.8055,10.83239 h 0.096 c 7.6752,-9.95777 14.8251,-20.38595 22.1848,-30.57994 2.4029,-3.32828 4.8008,-6.6633 7.2337,-9.96965 1.3246,-1.80003 3.0416,-3.6565 4.0373,-5.65585 h 0.096 v 30.67581 c 0,6.04276 0.6172,12.53931 -1.1235,18.40549 -0.9408,3.17059 -2.5807,5.94904 -4.6285,8.53172 -1.1851,1.4948 -3.042,3.06369 -3.8342,4.79309 h 44.1924 c -1.0371,-1.56775 -2.4253,-2.94169 -3.5997,-4.40965 -1.9372,-2.42139 -3.6257,-5.00728 -4.6369,-7.95654 -1.76,-5.13353 -1.4455,-10.76227 -1.4455,-16.10481 v -23.58202 -65.76129 h -7.2855 c -0.6763,0 -2.1836,-0.28047 -2.7306,0.15373 -0.6186,0.49096 -1.0677,1.41356 -1.528,2.0511 -1.0376,1.43721 -2.0611,2.88605 -3.1116,4.3138 -3.6419,4.94924 -7.2145,9.95564 -10.7881,14.95446 -6.9882,9.77535 -14.0561,19.49524 -21.0899,29.23787 -2.0289,2.81034 -4.029,5.64409 -6.0834,8.43586 -1.2559,1.70669 -2.7182,3.42143 -3.7497,5.2724 l -3.5614,-4.88895 -8.2703,-11.50344 -21.296,-29.62132 -9.5162,-13.22895 -2.5473,-3.54689 -1.2148,-1.53114 -2.8669,-0.0985 h -6.9979 m 329.4773,0 v 69.21232 20.6103 c 0,4.71041 0.2761,9.59945 -0.9992,14.18758 -0.9211,3.31341 -2.5554,6.21969 -4.6768,8.91515 -1.2035,1.52921 -3.1028,3.12638 -3.9102,4.88896 h 40.1662 c -2.842,-4.15644 -6.5166,-7.37172 -8.2111,-12.27031 -2.0771,-6.00433 -1.471,-12.73261 -1.471,-18.98066 v -31.15514 h 0.096 c 0.5708,1.20123 1.5556,2.27552 2.3285,3.35517 1.626,2.27138 3.2679,4.53136 4.8891,6.8062 5.1617,7.24301 10.343,14.47837 15.5831,21.66478 2.3874,3.2743 4.7345,6.57985 7.0948,9.87379 0.9994,1.39468 2.0118,3.45844 3.3686,4.50551 l 21.1449,-29.14202 8.2702,-11.40758 4.1366,-5.65585 v 30.57997 c 0,6.19223 0.589,12.7851 -1.2193,18.78892 -0.9668,3.20996 -2.7565,6.02831 -4.8391,8.62757 -1.1,1.37288 -2.7963,2.8124 -3.5278,4.40965 h 44.1924 c -0.9705,-1.46701 -2.2693,-2.75331 -3.3741,-4.12206 -1.9844,-2.45865 -3.7391,-5.05826 -4.8037,-8.0524 -1.8429,-5.18338 -1.5043,-10.88805 -1.5043,-16.29653 V 373.14282 307.4774 h -7.2855 c -0.6869,0 -2.1739,-0.27859 -2.7355,0.15371 -0.6188,0.47637 -1.0852,1.41791 -1.5379,2.05111 -1.0307,1.44177 -2.079,2.87081 -3.1079,4.3138 -3.2704,4.58642 -6.5696,9.15673 -9.8883,13.70826 -7.0565,9.67736 -14.0093,19.4314 -21.02,29.14201 l -7.1896,9.96964 c -1.1783,1.63214 -2.7058,3.27896 -3.6021,5.08068 l -3.7108,-5.08068 -6.7527,-9.39448 -22.6089,-31.4427 -9.5048,-13.22895 -2.629,-3.64274 -1.2076,-1.53114 -2.8592,-0.0985 h -7.0938 m 372.3277,0.47932 -1.5262,9.49034 -3.6504,22.23997 c 1.9358,-1.10283 3.6694,-2.71665 5.4641,-4.0373 2.7303,-2.00905 5.6564,-3.83364 8.7235,-5.28233 8.4558,-3.99402 17.4269,-3.81346 26.5537,-3.81346 v 56.75025 15.52963 c 0,4.70744 0.019,9.57231 -1.4873,14.0917 -0.9943,2.98167 -2.7381,5.62665 -4.7065,8.05241 -1.1337,1.39726 -2.5888,2.75599 -3.4882,4.31378 h 46.3013 c -0.9871,-1.57821 -2.4108,-2.96359 -3.5841,-4.40965 -1.8879,-2.32657 -3.5922,-4.91175 -4.5639,-7.76481 -1.542,-4.52774 -1.5341,-9.3676 -1.5341,-14.09171 v -15.52963 -56.94197 c 9.2351,0 18.3144,-0.17061 26.8414,3.95512 3.2568,1.57578 6.2948,3.57243 9.2027,5.71584 1.5183,1.11908 3.0073,2.62043 4.6973,3.46213 l -3.8907,-23.58204 -0.9746,-5.94345 -0.4646,-2.1063 -1.7639,-0.0985 h -4.8889 -18.6931 -72.5675 m 137.9453,0 c 0.864,1.88607 2.872,3.52366 4.1331,5.17655 2.5262,3.31104 4.3627,6.80278 5.1066,10.92826 1.104,6.12173 0.6341,12.58988 0.6341,18.78893 v 30.86754 c 0,9.04707 0.032,17.7718 3.2999,26.36203 2.971,7.8091 8.3511,14.66845 15.3932,19.20191 7.5543,4.8633 16.4946,7.1572 25.4034,7.54735 16.6933,0.73106 33.957,-4.79846 43.3245,-19.55961 3.9513,-6.22623 6.1918,-13.3835 6.8908,-20.70616 0.4057,-4.2494 0.2081,-8.57579 0.2081,-12.84552 v -30.58 c 0,-6.12171 -0.4204,-12.43952 0.5199,-18.50135 0.6349,-4.09298 2.3341,-7.74143 4.8373,-11.02412 0.9488,-1.24419 1.9576,-2.44097 2.9591,-3.64275 0.5243,-0.62914 1.2155,-1.26643 1.5574,-2.0131 h -39.5911 c 1.0796,1.86952 2.8483,3.47067 4.1773,5.17655 2.1793,2.79747 3.8321,5.83553 4.653,9.29861 0.8876,3.74414 0.8517,7.58639 0.8517,11.40756 v 11.79101 25.78685 c 0,6.08046 0.3252,12.18192 -1.2351,18.11792 -0.8781,3.3407 -2.3344,6.55177 -4.4433,9.2986 -4.5276,5.89731 -11.8625,8.61294 -19.1498,8.43446 -2.5747,-0.0631 -5.2158,-0.43443 -7.6689,-1.24488 -1.8176,-0.60048 -3.4913,-1.42758 -5.0807,-2.49241 -11.6495,-7.80457 -9.9697,-23.89889 -9.9697,-36.04402 v -9.68205 -12.74964 -11.50342 c 0,-3.68534 -0.01,-7.41452 0.8517,-11.02413 0.8403,-3.54434 2.5184,-6.62724 4.7489,-9.49032 1.2771,-1.63916 3.1314,-3.23905 4.0815,-5.08069 h -46.493 m 155.5839,0 c 0.8596,1.37453 2.0827,2.57671 3.1048,3.83448 2.1231,2.61247 4.1161,5.3914 5.1637,8.62757 2.201,6.79893 1.4135,14.42663 1.4135,21.47309 v 36.81097 18.78893 c 0,4.91863 0.1721,9.88698 -1.1913,14.66688 -0.9379,3.28799 -2.8218,6.17726 -4.9439,8.81929 -1.0782,1.34235 -2.7347,2.75016 -3.451,4.31378 h 38.8241 c 6.6854,0 13.4783,0.33992 20.131,-0.30385 9.8787,-0.95597 19.725,-4.1569 28.0874,-9.54041 7.4098,-4.77014 13.726,-11.09914 18.3279,-18.62673 10.0715,-16.47481 11.3651,-38.1496 3.3074,-55.69576 -2.7555,-6.00027 -6.6222,-11.34928 -11.2822,-16.00896 -4.1693,-4.16908 -9.2389,-7.78791 -14.571,-10.32238 -7.5348,-3.58147 -15.4715,-5.73968 -23.7736,-6.53302 -6.683,-0.63865 -13.5111,-0.30388 -20.2269,-0.30388 h -38.9199 m 159.0348,0 c 2.7991,4.09424 6.466,7.27196 8.1778,12.0786 2.403,6.74784 1.6001,14.52697 1.6001,21.56894 v 37.00271 18.5972 c 0,4.89678 0.1394,9.90111 -1.1649,14.66688 -0.911,3.32862 -2.7426,6.23725 -4.8747,8.91516 -1.1732,1.47341 -2.7009,2.87521 -3.6424,4.5055 h 46.3013 c -0.8235,-1.42601 -2.1485,-2.64941 -3.1824,-3.93032 -2.1376,-2.64844 -4.079,-5.45168 -5.1247,-8.72345 -2.1382,-6.69077 -1.375,-14.25796 -1.375,-21.18548 V 355.0248 336.04415 c 0,-4.92032 -0.1721,-9.98242 1.1914,-14.76273 0.9518,-3.33689 2.8106,-6.22864 4.963,-8.91515 1.0984,-1.37091 2.8127,-2.80566 3.5277,-4.40966 h -46.3972 m 145.9977,16.70735 c 12.5716,-1.48333 23.0779,7.76187 27.7445,18.66569 1.5994,3.73703 2.7189,7.68679 3.3869,11.69515 0.5135,3.08086 0.8422,6.18334 0.9786,9.29862 0.093,2.13415 0.01,4.29534 -0.088,6.42274 -0.6134,14.01008 -5.8861,30.67361 -20.3265,36.01355 -2.0025,0.74052 -4.1021,1.31967 -6.231,1.5484 -3.2099,0.34493 -6.422,0.29067 -9.5862,-0.40819 -10.7,-2.36335 -17.7728,-11.68093 -21.0896,-21.62412 -1.174,-3.51937 -1.945,-7.15701 -2.4236,-10.8324 -0.395,-3.03365 -0.5481,-6.04905 -0.5481,-9.10688 0,-14.87171 4.1425,-32.86306 19.1723,-39.50836 2.8957,-1.28027 5.8957,-1.7966 9.0111,-2.1642 m -268.3175,82.70146 v -80.61987 c 5.2106,0 10.5375,-0.31076 15.7214,0.20791 7.4131,0.74177 14.6773,3.58743 20.4184,8.36551 11.4403,9.52111 14.8224,24.86806 12.7756,39.06995 -1.5638,10.8502 -6.9269,21.29859 -16.3223,27.35017 -4.668,3.0066 -10.0984,4.86537 -15.6255,5.41842 -5.5907,0.55936 -11.3481,0.20791 -16.9676,0.20791 z"
     id="path1-3" />
  <path
     d="m 945.51017,424.7658 a 342.8696,342.8696 0 0 1 -133.7711,-35.42029 226.69057,226.69057 0 0 1 -64.22912,-45.5739 c -14.87682,-14.99489 -22.31461,-24.79446 -23.73166,-31.64221 -1.18085,-5.43164 0.94451,-8.85538 5.90347,-8.85538 3.1877,0 8.38287,3.07015 17.35587,10.03603 39.1987,30.46156 93.7461,52.53997 154.43271,62.33982 a 484.31493,484.31493 0 0 0 225.51126,-17.23816 c 12.9875,-4.36828 21.2523,-7.79234 34.5937,-14.28592 8.7376,-4.3688 11.4529,-5.43159 14.2867,-5.54911 3.4225,-0.35706 3.5431,-0.22337 5.4311,1.77154 2.7175,2.94993 2.5971,6.84808 -0.3574,11.3343 -2.7125,4.13231 -7.5559,8.97368 -14.7583,14.7586 -36.9552,29.75356 -97.0522,51.12355 -161.518,57.3815 -11.57069,1.18276 -48.99828,1.65096 -59.15183,0.94576 z m 241.80463,-35.18374 c -3.7799,-3.18574 -3.0704,-6.73009 2.9497,-16.76587 a 133.1808,133.1808 0 0 0 16.5298,-39.08043 c 1.2981,-8.26495 -0.8256,-10.98065 -9.9179,-12.6336 -8.5011,-1.41462 -28.4549,-0.35673 -41.0881,2.24445 -2.3605,0.47351 -6.4935,0.82615 -9.2094,0.82615 -4.7226,0 -5.3128,0 -6.4937,-1.41945 a 8.2647627,8.2647627 0 0 1 -1.7716,-3.89572 c -0.223,-2.12396 0,-2.71333 1.7716,-4.72273 a 83.828254,83.828254 0 0 1 54.1935,-18.89048 c 18.5368,0 33.5315,4.48624 38.4902,11.57017 1.7716,2.59736 1.8879,2.83409 2.1238,11.45259 0.1342,6.37598 0,10.27186 -0.8247,14.28641 a 93.273792,93.273792 0 0 1 -17.1201,38.25385 104.13615,104.13615 0 0 1 -20.5439,18.77339 c -4.723,2.3607 -6.4942,2.3607 -9.0915,0 z M 487.05177,299.37778 a 5.667267,5.667267 0 0 1 -2.00745,-1.06205 C 484.1,297.72677 484.1,293.59298 484.1,226.88464 c 0,-38.84446 0.23675,-70.84086 0.35257,-71.19518 1.06259,-1.53508 2.9519,-1.88759 12.16096,-1.88759 5.31327,0 9.91759,0.2231 10.3908,0.35699 1.29761,0.47303 1.77039,1.88759 3.18742,8.73743 0.70761,3.54315 1.53493,6.61152 1.77117,6.84754 0.23601,0.22314 1.06199,-0.946 1.88849,-2.59713 1.88925,-3.54312 7.4383,-9.44556 11.09867,-11.45274 a 30.697677,30.697677 0 0 1 20.18969,-4.01621 c 16.05679,2.48111 27.1554,16.17532 32.11448,39.31662 1.18068,5.90374 1.53488,25.50281 0.47222,33.05926 a 62.221857,62.221857 0 0 1 -13.45978,32.82273 c -6.73003,7.08412 -12.98759,10.27212 -21.60697,10.62566 -6.25725,0.47358 -10.38952,-0.2227 -15.11241,-2.59691 a 34.239745,34.239745 0 0 1 -12.16105,-11.45279 12.987476,12.987476 0 0 0 -2.36156,-3.07029 c -0.23645,0 -0.47191,10.27221 -0.47191,22.90539 0,12.75165 -0.2369,23.49553 -0.47212,24.20412 -0.82675,2.00822 -2.95212,2.36075 -13.93192,2.36075 -5.54936,0 -10.62647,-0.13368 -11.09852,-0.35703 z m 48.40795,-56.9086 c 3.896,-1.18266 7.55651,-5.19515 9.68203,-10.15381 2.3612,-5.66697 3.30532,-11.21665 3.65971,-20.07185 0.5901,-15.34859 -2.95211,-28.33642 -8.8552,-33.41326 -1.88867,-1.65115 -6.84762,-3.5432 -9.09136,-3.5432 -11.45249,0 -18.89074,13.10565 -18.89074,33.41318 0,14.52263 2.95209,24.79415 8.50095,30.4613 4.01415,3.89579 9.56343,5.19522 15.1124,3.30661 z M 913.2775,267.14557 A 48.171753,48.171753 0 0 1 875.73181,229.8359 c -6.72983,-26.68311 0.58877,-54.78357 17.94672,-68.83394 a 43.094844,43.094844 0 0 1 55.1374,0.13383 c 6.61186,5.90339 10.50818,11.33457 14.16801,20.30764 2.95414,7.32025 4.13229,13.69594 4.4867,23.84977 0.22308,4.72258 0.1338,9.09148 0,9.79933 -0.82571,3.18604 0.82539,2.94973 -32.82311,2.94973 -16.88338,0 -30.81554,0.22341 -31.05162,0.4733 -0.58879,0.94561 1.41914,10.39031 2.94973,14.5221 2.12402,5.54969 6.1398,9.8 10.27194,10.98064 8.85543,2.48052 17.3563,-1.5354 20.18979,-9.68156 2.00813,-5.5492 2.24482,-5.90367 4.48638,-6.13963 1.65138,-0.13425 13.69616,2.36048 21.01629,4.13227 3.07026,0.8251 3.42271,2.36047 1.41923,7.3201 -2.12415,5.66704 -4.95912,10.27193 -8.85525,14.40407 a 40.73347,40.73347 0 0 1 -31.8782,13.34155 c -4.13229,0.1342 -8.61912,0 -10.03595,-0.22267 z m 24.79407,-69.6603 c 0,-5.31352 -3.30659,-15.11284 -6.49357,-18.89115 a 13.695885,13.695885 0 0 0 -9.79952,-4.24819 c -5.54937,0 -9.79983,2.59712 -12.98728,7.91055 -1.88753,3.42264 -4.13218,10.03605 -4.72317,14.16825 l -0.35701,2.71751 h 34.35795 z m -344.40428,66.47241 -1.41681,-1.18276 v -53.60307 c 0,-49.3524 0,-53.83894 0.82624,-54.42928 1.18118,-0.94607 19.59971,-1.4146 21.84251,-0.47309 1.77114,0.70959 2.36157,2.00814 3.66039,9.20959 0.59057,3.18615 1.18067,5.90325 1.53487,6.13939 0.11612,0.22311 1.18083,-1.18256 2.12555,-3.07014 2.36134,-4.36874 7.67426,-10.03601 11.33473,-11.80712 a 33.059074,33.059074 0 0 1 22.07873,-2.12413 c 4.36857,1.18256 6.13937,2.71316 6.13937,5.19518 0,1.77156 -3.5416,16.52921 -5.07686,21.37007 -1.1807,3.54315 -1.88903,3.89565 -7.08418,1.88758 a 35.420402,35.420402 0 0 0 -12.27881,-3.07015 c -7.91052,0 -12.98776,4.13222 -15.34922,12.98732 -0.94459,2.71779 -1.06212,7.08432 -1.29836,37.78202 a 267.89628,267.89628 0 0 1 -0.94462,35.30261 c -0.59008,0.47293 -3.7784,0.70917 -12.75161,0.8255 -11.57019,0.13409 -12.04298,0 -13.34152,-0.94595 z m 77.92481,0.47273 a 2.7155674,2.7155674 0 0 1 -1.53513,-1.18242 c -0.23612,-0.58933 -0.59017,-96.69746 -0.35239,-106.49737 0,-2.71763 1.65348,-3.07014 14.87679,-3.07014 13.10543,0 13.34131,0.13387 13.57767,3.54315 v 53.60231 c 0,51.36011 0,52.06824 -1.06282,53.13108 -0.9445,0.94597 -1.65249,1.06208 -12.75095,1.06208 -6.49377,0 -12.2793,-0.22325 -12.86954,-0.58921 z m 46.28282,0 a 3.5420402,3.5420402 0 0 1 -1.77132,-1.77175 c -0.35233,-0.94573 -0.47236,-20.77975 -0.47236,-54.07552 0,-44.51151 0,-52.65807 0.70914,-53.60229 0.70795,-0.94606 1.53507,-1.06206 10.86244,-1.18255 6.84754,-0.13389 10.62606,0 11.57035,0.473 1.53509,0.58904 1.77129,1.18254 3.54188,10.62635 l 1.29906,4.95866 c 0.23641,0.13386 1.18055,-1.29859 2.24294,-3.30668 3.30602,-6.61193 8.73728,-11.57056 15.34891,-13.93209 2.48139,-0.94603 4.36878,-1.18256 9.2099,-1.18256 6.49363,0 9.09119,0.47306 14.52206,3.18619 a 35.420402,35.420402 0 0 1 11.57076,11.80663 c 1.18267,2.0081 2.12395,3.54316 2.36069,3.54316 0.13363,0 1.06209,-1.06204 2.00796,-2.36061 a 38.254069,38.254069 0 0 1 18.77308,-15.11286 35.774589,35.774589 0 0 1 18.89076,0 c 10.86228,3.77965 17.2384,11.80714 21.25228,26.80171 0.94579,4.13217 1.06194,5.31296 1.18246,43.68516 0.22303,34.2401 0,39.78902 -0.58913,40.7336 -0.70934,0.94568 -1.41891,1.06227 -12.75085,1.18242 -11.57119,0.13371 -12.16144,0.13371 -13.45984,-0.9463 l -1.41926,-1.18243 -0.22312,-35.65629 c -0.13387,-35.1844 -0.13387,-35.77473 -1.29849,-39.19883 -2.36044,-7.08404 -6.25744,-10.15374 -12.75126,-10.15374 -6.61159,0 -11.33488,3.54321 -13.81362,10.50815 -1.7719,4.95905 -2.00865,11.33425 -2.00865,43.33055 0,30.57973 0,31.28891 -1.18259,32.35082 -0.94541,0.94631 -1.65053,1.06228 -12.63279,1.06228 -11.80649,0 -13.10551,-0.223 -14.16816,-2.12409 a 420.32197,420.32197 0 0 1 -0.58919,-34.23946 c 0,-33.05961 -0.13372,-37.07389 -1.88742,-42.50467 -2.3604,-7.55669 -11.80731,-10.86243 -19.24523,-6.73025 -4.84117,2.59711 -7.43865,8.02881 -8.26479,17.59215 -0.35262,2.71759 -0.59047,18.65509 -0.59047,35.42069 v 30.46154 l -1.18051,1.06181 c -1.18102,0.94631 -1.77115,1.06228 -12.51552,1.06228 -6.25743,0 -11.80673,-0.35722 -12.51559,-0.58899 z M 679.14841,145.41787 a 17.710211,17.710211 0 0 1 -10.62598,-9.20907 20.780005,20.780005 0 0 1 0,-14.28638 c 1.5348,-3.42271 4.8408,-6.7298 8.26478,-8.26486 a 21.252265,21.252265 0 0 1 14.40424,0 c 3.77844,1.77155 7.55635,5.90375 8.85503,9.91769 1.18066,4.0162 0.82628,9.68167 -0.94486,13.57779 -1.65266,3.54315 -5.54897,6.84803 -9.44516,8.02878 -2.83364,0.82556 -8.26442,0.94602 -10.50826,0.2231 z m 518.43819,121.61032 c -13.2237,-2.48145 -24.322,-15.82114 -28.8089,-34.47615 a 112.04656,112.04656 0 0 1 -0.4732,-43.92102 c 3.6592,-16.88397 11.807,-29.28105 23.0233,-34.47619 a 28.808605,28.808605 0 0 1 37.6645,10.50812 c 1.4188,2.1241 2.8336,3.77967 3.07,3.54315 0.3568,-0.13386 0.5889,-9.56344 0.5889,-23.96807 0,-23.25901 0,-23.73157 1.0623,-24.79408 1.0619,-1.06206 1.5351,-1.18254 13.3414,-0.94599 a 48.407873,48.407873 0 0 1 12.9873,0.82552 c 1.1825,1.18252 1.4191,12.04316 1.1825,77.92489 l -0.2227,65.40993 -1.1829,1.17838 c -0.9459,1.18242 -1.2984,1.18242 -10.8622,1.18242 a 85.008976,85.008976 0 0 1 -10.7442,-0.35711 c -1.4188,-0.58907 -2.3603,-2.83368 -3.5429,-9.56338 a 37.781797,37.781797 0 0 0 -1.5351,-6.49382 l -1.7718,3.07048 c -2.3603,4.48652 -8.6184,10.50768 -13.5778,12.98733 -2.124,1.06216 -5.1952,2.1241 -6.7297,2.36025 -3.4227,0.70981 -9.9179,0.70981 -13.4601,0 z m 23.1413,-25.03043 c 8.619,-4.13249 13.1056,-17.82854 12.1611,-36.60092 -0.8254,-16.88413 -5.903,-26.80179 -14.7584,-29.28109 a 10.271925,10.271925 0 0 0 -6.2578,-0.22314 c -8.619,1.88758 -13.3416,9.56338 -15.1128,24.20361 a 77.924949,77.924949 0 0 0 1.6509,27.39209 c 2.0083,7.55616 5.5495,12.51539 10.5082,14.87642 2.9543,1.41448 8.6192,1.18242 11.8073,-0.35733 z m 94.1004,24.7942 a 36.601092,36.601092 0 0 1 -13.2239,-4.95913 53.130595,53.130595 0 0 1 -24.4398,-38.25401 c -1.1825,-6.96576 -1.1825,-19.95322 0,-26.8012 a 57.499083,57.499083 0 0 1 23.4955,-38.72619 48.644042,48.644042 0 0 1 23.6134,-6.9663 c 4.4863,0 11.807,1.41908 16.0576,3.07019 a 47.463323,47.463323 0 0 1 25.0299,26.2113 c 3.5433,8.38266 4.9592,16.17529 5.0768,27.15562 0,7.43842 0,8.38291 -0.9457,9.44545 -0.9464,1.18242 -1.1824,1.18242 -31.9963,1.18242 h -31.0525 v 1.77179 c 0,3.18629 1.4193,9.56377 3.1863,13.57756 2.008,4.84103 4.4863,7.91119 8.0286,9.68175 3.7796,2.00796 9.7999,2.00796 13.932,0.22324 3.3067,-1.41461 7.084,-5.43065 8.2647,-8.61874 l 1.5353,-4.36861 c 0.5891,-1.88772 0.9459,-2.12422 2.5969,-2.24485 2.3608,-0.2227 21.2524,3.89622 23.0233,4.95926 1.7712,1.18243 1.2982,3.54331 -1.6517,9.7995 a 44.629749,44.629749 0 0 1 -12.6332,15.93944 c -8.2643,6.13941 -14.8765,8.26497 -26.5649,8.50101 -5.3133,0.13366 -8.9735,0 -11.3344,-0.47339 z m 25.8568,-68.24322 c 0.4728,-0.35692 0.4728,-1.18265 -0.2233,-5.07693 -1.7713,-9.32726 -5.4309,-15.58497 -10.6261,-17.94645 -7.6742,-3.54318 -16.5295,1.18251 -20.3081,10.86241 -1.6506,4.72255 -3.0699,11.45228 -2.3603,12.16097 0.7097,0.70948 32.3504,0.70948 33.5313,0 z m 79.2236,68.24322 a 49.588594,49.588594 0 0 1 -31.8786,-26.56528 77.098407,77.098407 0 0 1 -5.9034,-19.24493 c -3.1861,-22.43301 3.1868,-44.1578 16.6479,-57.02702 a 41.323821,41.323821 0 0 1 21.9606,-11.80664 c 29.7532,-6.02158 55.4916,18.30037 56.9081,54.07535 a 67.771053,67.771053 0 0 1 -10.1531,40.14255 50.178939,50.178939 0 0 1 -25.7388,19.71752 59.033992,59.033992 0 0 1 -21.8427,0.70942 z m 15.9393,-23.84969 c 4.8403,-2.36097 8.5007,-8.26474 10.5074,-16.52966 0.9461,-4.2483 1.1825,-6.49393 1.1825,-16.76557 0,-9.56372 -0.2231,-12.6335 -0.946,-15.82125 -2.7176,-11.45242 -7.32,-17.47402 -14.4041,-19.00863 -9.4458,-1.88758 -16.7656,5.07691 -19.4816,18.30035 -3.3067,15.93915 -1.2983,35.77482 4.4869,44.51182 1.6509,2.48077 5.4309,5.54915 7.7924,6.3751 2.3607,0.70967 8.6186,0.22349 10.8625,-1.0617 z m -395.411,21.01579 c -1.062,-1.18244 -1.535,-2.59706 -4.7225,-14.52214 a 4127.4237,4127.4237 0 0 0 -13.2241,-47.34535 l -10.0355,-36.12863 c -1.2985,-4.60478 -2.3606,-8.73694 -2.3606,-9.44557 0,-2.36067 1.4189,-2.71761 14.7586,-2.71761 11.2163,0 12.6331,0.13385 13.6961,0.94601 0.9461,0.8255 1.7714,3.89573 5.313,19.71761 l 7.3203,33.17734 c 2.7176,11.80647 5.9032,26.4467 5.9032,27.15528 0,1.77183 0.8256,0 1.4146,-2.94966 l 8.7371,-39.55248 c 7.0841,-31.87858 8.0288,-36.36508 8.9735,-37.30933 0.7095,-0.70956 2.5971,-0.94607 13.3416,-1.06207 13.4594,0 14.9947,0.13387 15.3486,2.3606 0.134,1.18256 -1.6511,7.91056 -9.6811,36.60108 l -11.4528,41.08771 c -1.7717,6.72967 -3.1862,11.57073 -7.3203,25.9751 -0.5891,2.00773 -1.419,3.89513 -1.8875,4.36856 -0.5891,0.70932 -3.0703,0.8256 -17.0019,0.8256 -15.3493,0 -16.2938,0 -17.1203,-1.06214 z m 82.2943,0 -1.4191,-1.18244 0.1338,-53.48456 c 0.1338,-50.415 0.2232,-53.48469 1.1825,-54.31113 0.8257,-0.82555 2.1242,-0.94601 12.633,-1.18253 10.0362,0 12.1614,0 13.46,0.70958 l 1.6515,0.82549 v 53.13084 c 0,38.25393 -0.2234,53.72085 -0.5891,54.66542 a 3.1878388,3.1878388 0 0 1 -1.7717,1.53491 c -0.5888,0.22358 -6.2575,0.35723 -12.515,0.35723 -10.6263,0 -11.4526,0 -12.7513,-1.18242 z m 8.2643,-118.65796 c -4.7225,-1.18256 -9.4451,-5.54947 -10.862,-10.15379 -1.1824,-3.18618 -1.1824,-8.26486 0,-11.80713 0.8255,-3.30664 4.6045,-7.67444 7.7922,-9.32733 3.1863,-1.65109 11.3348,-1.8876 14.7588,-0.47302 3.8954,1.77156 6.3757,4.01618 8.2649,7.55623 1.2982,2.95409 1.535,3.77963 1.535,8.02879 0,5.66726 -1.0621,8.26484 -4.1322,11.57057 -3.1862,3.30665 -6.4936,4.72259 -11.4524,4.95865 -2.3608,0 -4.9592,0 -5.9037,-0.35705 z"
     fill="#0779ff"
     id="path1-2"
     style="fill:#000000;stroke-width:11.8056" />
</svg>
