<?xml version="1.0" encoding="UTF-8" standalone="no"?>
<!-- Generator: Adobe Illustrator 23.0.1, SVG Export Plug-In . SVG Version: 6.00 Build 0)  -->

<svg
   version="1.1"
   id="svg2"
   x="0px"
   y="0px"
   width="400px"
   height="404.635px"
   viewBox="0 0 400 404.635"
   enable-background="new 0 0 400 404.635"
   xml:space="preserve"
   xmlns:xlink="http://www.w3.org/1999/xlink"
   xmlns="http://www.w3.org/2000/svg"
   xmlns:svg="http://www.w3.org/2000/svg"><defs
   id="defs34"><linearGradient
     xlink:href="#linearGradient1299"
     id="linearGradient1301"
     x1="82.337891"
     y1="301.87695"
     x2="918.03125"
     y2="301.87695"
     gradientUnits="userSpaceOnUse"
     gradientTransform="matrix(2.0727062,0,0,2.0827699,-550.05984,-840.98682)" /><linearGradient
     id="linearGradient1299"><stop
       style="stop-color:#4047ff;stop-opacity:1;"
       offset="0"
       id="stop2971" /><stop
       style="stop-color:#04006c;stop-opacity:1;"
       offset="1"
       id="stop2969" /></linearGradient><linearGradient
     xlink:href="#linearGradient1299"
     id="linearGradient1301-3"
     x1="82.337891"
     y1="301.87695"
     x2="918.03125"
     y2="301.87695"
     gradientUnits="userSpaceOnUse" /></defs>
<g
   id="g29">
	<g
   id="g13">
		<path
   id="path18"
   fill="#0022AF"
   d="M100.416,383.133v-16.725c1.061,0,3.213,0,4.136,0c4.872,0,7.106,2.082,7.106,5.115    C111.658,377.94,100.416,383.133,100.416,383.133z M120.33,370.781c0-8.557-7.77-12.081-17.796-12.081H91.743v44.966h8.673V392.9    c1.367-1.016,3.955-2.625,6.433-4.324l7.452,15.09h9.122l-9.839-20.366C117.32,379.816,120.33,375.612,120.33,370.781" />
		<path
   id="path20"
   fill="#0022AF"
   d="M211.827,383.133v-16.725c1.061,0,3.213,0,4.136,0c4.872,0,7.107,2.082,7.107,5.115    C223.069,377.94,211.827,383.133,211.827,383.133L211.827,383.133z M231.741,370.781c0-8.557-7.769-12.081-17.796-12.081h-10.792    v44.966h8.673V392.9c1.368-1.016,3.955-2.625,6.433-4.324l7.452,15.09h9.121l-9.839-20.366    C228.732,379.816,231.741,375.612,231.741,370.781" />
		<path
   id="path22"
   fill="#0022AF"
   d="M297.459,383.133v-16.725c1.06,0,3.212,0,4.136,0c4.871,0,7.105,2.082,7.105,5.115    C308.7,377.94,297.459,383.133,297.459,383.133z M317.372,370.781c0-8.557-7.769-12.081-17.796-12.081h-10.792v44.966h8.675V392.9    c1.367-1.016,3.955-2.625,6.432-4.324l7.452,15.09h9.123l-9.839-20.366C314.363,379.816,317.372,375.612,317.372,370.781" />
		<path
   id="path24"
   fill="#0022AF"
   d="M41.756,403.666L53.06,358.7h-8.735l-6.745,30.833h-0.257L30.193,358.7h-7.195l-7.195,30.833    h-0.257L8.929,358.7H0l11.307,44.966h8.222l6.937-29.549h0.193l6.937,29.549H41.756" />
		<path
   id="path26"
   fill="#0022AF"
   d="M64.335,386.642l4.556-17.666h0.197l4.624,17.666H64.335z M64.335,358.7l-13.491,44.966h9.119    l2.765-10.276h12.592l2.758,10.276h9.064L73.842,358.7H64.335" />
		<path
   id="path28"
   fill="#0022AF"
   d="M152.093,386l-16.828-27.3h-7.261v44.966h8.673v-27.3h0.32l16.832,27.3h7.257V358.7h-8.671    V386H152.093" />
		<path
   id="path30"
   fill="#0022AF"
   d="M196.735,395.636h-17.984v-11.241h13.489v-7.388h-13.489V366.73h17.344v-8.03h-26.017v44.966    h26.657V395.636" />
		<path
   id="path32"
   fill="#0022AF"
   d="M339.209,365.772c6.428,0,8.308,7.804,8.308,15.417c0,7.607-1.88,15.416-8.308,15.416    c-6.421,0-8.301-7.809-8.301-15.416C330.908,373.576,332.788,365.772,339.209,365.772z M339.209,404.635    c11.563,0,16.976-10.943,16.976-23.445c0-12.49-5.413-23.452-16.976-23.452c-11.563,0-16.976,10.963-16.976,23.452    C322.233,393.692,327.647,404.635,339.209,404.635" />
		<path
   id="path34"
   fill="#0022AF"
   d="M376.236,377.652c-3.535-2.248-7.101-3.853-7.101-7.708c0-2.571,2.283-4.497,4.852-4.497    c2.891,0,5.817,1.927,6.779,3.533l5.461-5.14c-2.569-3.533-7.1-6.103-12.561-6.103c-8.031,0-13.203,4.817-13.203,12.207    c0,8.029,5.816,11.563,10.504,14.261c3.663,2.119,7.231,3.727,7.231,7.58c0,3.213-2.925,5.14-6.137,5.14    c-3.213,0-6.459-1.927-8.385-4.819l-5.14,5.14c2.892,4.496,8.708,7.388,13.847,7.388c8.031,0,14.488-5.14,14.488-12.849    C386.869,383.756,380.861,380.544,376.236,377.652" />
		<path
   id="path36"
   fill="#0022AF"
   d="M395.183,394.676c-2.891,0-4.819,2.248-4.819,4.817c0,2.57,1.928,4.818,4.819,4.818    c2.889,0,4.817-2.248,4.817-4.818C400,396.924,398.072,394.676,395.183,394.676" />
		<path
   id="path38"
   fill="#0022AF"
   d="M261.1,395.702v-9.366c2.833-1.129,5.969-2.599,8.844-4.406    c1.348,0.9,4.335,3.269,4.335,6.588C274.279,392.907,270.261,395.523,261.1,395.702L261.1,395.702z M261.1,366.208    c1.072,0,3.104,0,4.213,0c3.98,0,6.021,1.044,6.021,3.296c0,4.053-8.515,7.672-10.235,8.361V366.208z M275.763,377.257    c2.327-2.503,3.847-5.4,3.847-8.692c0-6.439-5.497-9.784-13.385-9.866h-13.799v44.966h8.675    c14.121-0.415,21.399-6.135,21.399-14.815C282.499,382.414,277.08,378.19,275.763,377.257" />
	</g>
	
</g>
<g
   id="g671"
   transform="matrix(0.58615649,0,0,0.58320898,26.351834,0.04088356)"><g
     id="g3072"
     transform="scale(0.59397278)"><path
       style="display:inline;fill:#ffc200;fill-opacity:1;stroke-width:7.57792"
       d="m 500.18359,0 -7.61132,1.0332031 C 376.12716,16.500103 275.18197,45.572961 183.88867,89.101562 l -32.13672,15.300778 v 49.00782 L 89.117188,187.3418 v 46.86328 l -68.056641,36.50586 5.382812,38.89648 c 5.968442,43.2091 15.29348,85.00691 27.714844,125.3711 -19.070382,5.8018 -32.770537,10.56112 -36.566406,12.44921 C 6.8473159,452.77203 0,457.17874 0,468.53516 v 64.99218 c 0,16.50217 45.408534,30.66636 113.50391,41.77344 16.15055,29.52082 34.1015,58.11123 54.31054,85.45899 76.56158,103.58496 179.91503,188.32474 307.18164,251.92773 l 25.1875,12.60742 25.1875,-12.60742 C 652.63764,849.08451 755.99123,764.34473 832.55273,660.75977 852.79705,633.36431 870.77614,604.72271 886.94727,575.14648 954.67164,564.06167 1000,549.97193 1000,533.52734 v -64.99218 c 0,-11.35642 -6.84735,-15.76313 -17.5918,-21.10743 -3.77143,-1.87592 -17.36889,-6.59708 -36.22656,-12.34375 12.436,-40.39705 21.76866,-82.23035 27.74219,-125.47656 l 5.38281,-38.89648 -68.05273,-36.50586 V 187.3418 L 848.61914,153.41016 V 104.40234 L 816.48047,89.101562 C 725.18706,45.572954 624.24394,16.500103 507.79883,1.0332031 Z"
       id="path3066" /><path
       id="path3063-5"
       style="display:inline;fill:url(#linearGradient1301-3);fill-opacity:1;stroke-width:7.57792"
       d="M 500.18359,56.958984 C 390.3695,71.546818 294.82565,98.713769 208.17773,140.03711 v 46.99219 l -62.63671,33.92968 v 47.0254 L 82.337891,301.87695 C 85.3595,322.53178 91.790658,365.65114 108.61719,419.9707 195.86678,398.24643 337.30504,372.02734 500,372.02734 c 162.93694,0 304.5073,26.2921 391.72461,48.03516 16.84765,-54.36222 23.28335,-97.5193 26.30664,-118.18555 l -63.20313,-33.89257 v -47.0254 L 792.19336,187.0293 V 140.03711 C 705.54552,98.713769 609.99774,71.546819 500.18359,56.958984 Z M 500,453.72461 c -239.34975,0 -436.030205,59.24385 -459.208984,66.34961 -14.96102,4.58644 -22.482422,6.4052 -22.482422,10.57812 0,4.1662 27.706154,14.44439 84.626956,24.86328 -4.975015,-9.77902 -9.856053,-19.60688 -14.402347,-29.60156 14.879087,-3.99304 33.365657,-8.60495 55.876957,-13.68164 17.50976,37.09824 39.81513,76.10727 68.78711,114.98633 105.80534,143.74129 245.01117,213.48026 286.98632,234.94141 41.97522,-21.46115 181.18299,-91.20008 286.98829,-234.94141 28.95223,-38.85253 51.24538,-77.83458 68.75,-114.91016 22.54228,5.08849 41.0091,9.70274 55.87109,13.69532 -4.51784,9.92859 -9.36976,19.69045 -14.31055,29.40625 56.59348,-10.38372 84.20899,-20.6046 84.20899,-24.75782 0,-4.17292 -7.52141,-5.99168 -22.48243,-10.57812 C 936.03019,512.96846 739.34975,453.72461 500,453.72461 Z" /><path
       id="path3060"
       style="display:inline;fill:#ffc200;fill-opacity:1;stroke-width:7.57792"
       d="m 470.6688,158.71348 c -21.40812,2.08394 -42.57573,5.7798 -64.17329,11.33456 l 1.51916,199.87566 c 20.38813,-1.18576 41.37286,-1.88379 62.65413,-2.28861 z m 59.03048,0 v 208.92818 c 21.2432,0.40909 42.19353,1.10503 62.54561,2.29191 V 231.08435 c 31.3194,0 132.6476,32.04735 132.6476,72.50569 0,14.57984 -12.87772,35.48433 -52.95711,56.52813 l -25.84556,13.85993 c 56.41192,5.1377 108.24019,12.67869 153.55751,20.9987 -7.32503,-11.01669 -18.93217,-20.0413 -35.1743,-27.85797 22.66541,-25.09032 27.47982,-43.34968 27.47982,-65.43926 0,-31.25876 -25.82713,-59.07148 -63.39069,-82.97216 -22.68813,-14.4434 -57.4142,-31.92765 -108.06471,-46.04522 -29.14455,-7.82796 -59.53182,-12.59232 -90.79817,-13.94871 z M 334.4962,195.97581 c -19.8698,8.93455 -40.95257,19.98556 -62.56534,33.67158 3.99842,53.19377 10.4689,103.23435 19.58476,151.23602 20.86834,-2.68191 42.37763,-5.13876 64.81121,-7.14864 C 345.45161,316.26661 338.07624,256.21239 334.4962,195.97581 Z m -130.93113,85.52054 c -16.52783,14.8455 -32.92967,31.47495 -48.94216,50.10949 5.77438,23.88329 12.16807,46.68587 19.19345,68.52035 18.67376,-3.74394 38.45523,-7.42177 59.59606,-10.87421 -11.49521,-33.87793 -21.39679,-69.70801 -29.84735,-107.75563 z M 470.6688,472.41156 c -21.12866,0.41257 -41.73408,1.26493 -61.85509,2.45961 l 0.5886,77.47751 -2.70293,1.57506 c -9.64614,-24.37799 -18.33236,-50.23215 -26.11849,-77.15197 -22.27208,1.71675 -43.80001,3.80966 -64.44293,6.22135 6.08231,20.54763 12.64551,40.86241 20.0484,60.88176 l -20.19637,11.69298 c -15.07051,-21.10475 -28.61981,-43.54629 -40.91557,-67.24122 -22.00249,3.12432 -42.78294,6.4901 -62.14444,9.9831 25.84217,53.22297 57.10713,99.74673 94.55991,141.27923 l 55.614,-33.2474 c 27.24324,56.76753 65.51404,112.78691 107.56491,157.56588 z m 59.03048,0.003 v 291.4926 C 628.93242,712.81862 742.76979,592.3852 788.40155,498.5462 c -18.99358,-3.44239 -39.37583,-6.76617 -60.93766,-9.86143 -13.36432,24.48043 -33.45499,51.64303 -56.26507,78.01021 -17.89895,20.64218 -47.21772,52.11374 -78.95393,76.63572 V 474.93693 c -20.33838,-1.22129 -41.174,-2.09955 -62.54561,-2.52208 z" /></g><g
     id="g1477"
     transform="matrix(1,0,0,0.97190683,0,6.7562044)"><g
       aria-label="WARNER"
       transform="matrix(0.95071767,0,0,1.0005859,-0.17874671,2.0838216)"
       id="text481-3"
       style="font-weight:bold;font-size:57.9692px;font-family:'Warner Bros Sans';-inkscape-font-specification:'Warner Bros Sans Bold';letter-spacing:3.48264px;stroke-width:0.870663"><path
         d="m 72.277,252.28828 c 3.570914,-0.62658 10.691235,-1.97782 10.691235,-1.97782 1.390837,7.29682 4.188348,22.15207 4.188348,22.15207 2.477571,-8.04749 7.389358,-24.42351 7.389358,-24.42351 3.003072,-0.59234 8.990209,-1.81764 8.990209,-1.81764 2.20964,7.33031 6.65958,22.21785 6.65958,22.21785 1.64985,-8.13806 4.95021,-24.58791 4.95021,-24.58791 3.49918,-0.70438 10.47244,-2.12085 10.47244,-2.12085 -2.89196,13.03823 -8.63665,38.92945 -8.63665,38.92945 -4.25363,0.77225 -12.78914,2.23009 -12.78914,2.23009 -1.84919,-6.58932 -5.534722,-19.58523 -5.534722,-19.58523 -2.068254,7.21864 -6.242457,21.46866 -6.242457,21.46866 C 88.180475,285.42 79.68312,286.52531 79.68312,286.52531 77.269499,275.29779 74.649915,263.18123 72.277,252.28828 Z"
         style="font-family:'Warner Bros. Sans';-inkscape-font-specification:'Warner Bros. Sans Bold';fill:#0050b2"
         id="path2150" /><path
         d="m 127.41076,278.7648 c 4.60859,-13.29352 13.86474,-40.10172 13.86474,-40.10172 5.00681,-0.94319 14.9958,-2.74599 14.9958,-2.74599 4.19364,11.79908 12.65609,35.51322 12.65609,35.51322 -3.83286,0.62774 -11.52543,1.9266 -11.52543,1.9266 -0.75149,-2.24374 -2.27967,-6.7463 -2.27967,-6.7463 -4.62876,0.81786 -13.91185,2.49826 -13.91185,2.49826 -0.7871,2.53079 -2.38806,7.56322 -2.38806,7.56322 -2.51807,0.46 -8.89354,1.63271 -11.41162,2.09271 z m 16.31245,-17.84884 c 3.01734,-0.5454 9.02219,-1.63036 9.02219,-1.63036 -1.4486,-4.38402 -4.35417,-13.14541 -4.35417,-13.14541 -0.65861,2.0762 -4.01454,12.70001 -4.66802,14.77577 z"
         style="font-family:'Warner Bros. Sans';-inkscape-font-specification:'Warner Bros. Sans Bold';fill:#0050b2"
         id="path2152" /><path
         d="m 176.744,270.20404 c 0.14681,-12.56088 0.55758,-37.69898 0.55758,-37.69898 5.25694,-0.7699 15.73846,-2.15178 15.73846,-2.15178 5.34652,-0.66789 9.46972,-0.0544 12.35506,1.76302 2.90696,1.8172 4.32429,4.59604 4.25786,8.31183 -0.0396,2.21536 -0.70328,4.31878 -1.9908,6.31734 -1.26877,1.97961 -3.03677,3.71875 -5.30653,5.23203 3.03974,4.59004 9.1166,13.78874 9.1166,13.78874 -4.05991,0.42071 -12.20555,1.35467 -12.20555,1.35467 -2.22175,-3.50016 -6.66591,-10.4789 -6.66591,-10.4789 -1.68537,0.74186 -5.08334,2.22098 -5.08334,2.22098 -0.0331,3.27301 -0.11736,9.79321 -0.11736,9.79321 -3.55504,0.49064 -7.10148,1.00682 -10.65607,1.54784 z m 10.89149,-19.6115 c 1.79091,-0.79229 5.34377,-2.37838 5.34377,-2.37838 2.16861,-0.95698 3.70943,-1.94485 4.62602,-2.97984 0.91601,-1.03431 1.38336,-2.08274 1.402,-3.14866 0.018,-1.03097 -0.43483,-1.88509 -1.35892,-2.55987 -0.9046,-0.69417 -2.35236,-0.92237 -4.34094,-0.67262 -1.82015,0.23785 -5.48858,0.71205 -5.48858,0.71205 -0.0657,3.72794 -0.12602,7.29941 -0.18335,11.02732 z"
         style="font-family:'Warner Bros. Sans';-inkscape-font-specification:'Warner Bros. Sans Bold';fill:#0050b2"
         id="path2154" /><path
         d="m 219.06716,265.04255 c 0.14938,-12.48233 0.59681,-37.46457 0.59681,-37.46457 3.70494,-0.30025 11.08066,-0.83231 11.08066,-0.83231 5.07872,6.90643 15.22184,20.84781 15.22184,20.84781 0.12364,-7.23196 0.37736,-21.71749 0.37736,-21.71749 3.382,-0.14341 10.11223,-0.39234 10.11223,-0.39234 -0.15105,9.54091 -0.23977,13.78465 -0.39082,23.32556 -0.11812,7.77249 -0.18428,13.98893 -0.18428,13.98893 -3.65567,0.13653 -10.99487,0.46243 -10.99487,0.46243 -5.15134,-7.00749 -15.40716,-20.89983 -15.40716,-20.89983 -0.11714,7.2973 -0.31452,21.86213 -0.31452,21.86213 -3.36778,0.24653 -6.72949,0.51924 -10.09725,0.81968 z"
         style="font-family:'Warner Bros. Sans';-inkscape-font-specification:'Warner Bros. Sans Bold';fill:#0050b2"
         id="path2156" /><path
         d="m 267.38001,262.2076 c 0.14099,-12.42668 0.55987,-37.29734 0.55987,-37.29734 10.27166,-0.20496 30.74248,-0.3228 30.74248,-0.3228 -0.70413,2.80481 -2.14801,8.38567 -2.14801,8.38567 -6.00237,0.0356 -18.03952,0.13613 -18.03952,0.13613 -0.0266,2.19399 -0.10786,6.55356 -0.10786,6.55356 5.6443,-0.06 16.89449,-0.12897 16.89449,-0.12897 -0.0291,2.53305 -0.11158,7.57029 -0.11158,7.57029 -5.62249,0.0328 -16.89937,0.12663 -16.89937,0.12663 -0.0222,2.21142 -0.0899,6.60582 -0.0899,6.60582 6.70933,-0.0726 20.07379,-0.13634 20.07379,-0.13634 -0.0234,2.7416 -0.0906,8.19585 -0.0906,8.19585 -10.4016,0.0337 -20.36576,0.0855 -30.78383,0.3115 0,0 -5e-5,0 -5e-5,0 z"
         style="font-family:'Warner Bros. Sans';-inkscape-font-specification:'Warner Bros. Sans Bold';fill:#0050b2"
         id="path2158" /><path
         d="m 308.03907,261.86319 c 0.13419,-12.43498 0.51091,-37.31953 0.51091,-37.31953 5.23311,-0.0172 15.66435,-0.13167 15.66435,-0.13167 5.32252,-0.0709 9.42813,0.89628 12.30851,2.93285 2.90019,2.03685 4.31935,4.88689 4.26108,8.5791 -0.0347,2.20124 -0.69167,4.25294 -1.96983,6.14828 -1.25912,1.8772 -3.01717,3.47382 -5.27385,4.77778 3.03189,4.83793 9.10025,14.80311 9.10025,14.80311 -4.49645,0.11395 -12.16502,0.0729 -12.16502,0.0729 -2.20476,-3.68757 -6.64208,-11.23324 -6.64208,-11.23324 -1.67846,0.54419 -5.0621,1.59353 -5.0621,1.59353 -0.0307,3.24622 -0.11002,9.7098 -0.11002,9.7098 -3.53212,0.0332 -7.08656,0.0527 -10.6222,0.0671 0,0 0,-4e-5 0,-4e-5 z m 10.84209,-17.97647 c 1.78248,-0.56284 5.31932,-1.72701 5.31932,-1.72701 2.15731,-0.70619 3.69139,-1.53164 4.60117,-2.46738 0.91005,-0.93599 1.37316,-1.9341 1.38932,-2.99246 0.0156,-1.02364 -0.43734,-1.91628 -1.35911,-2.6802 -0.90295,-0.78171 -2.344,-1.15574 -4.32395,-1.12846 -1.81163,0.0342 -5.46372,0.0633 -5.46372,0.0633 0.0545,-3.57393 -0.21756,14.50616 -0.16303,10.93223 z"
         style="font-family:'Warner Bros. Sans';-inkscape-font-specification:'Warner Bros. Sans Bold';fill:#0050b2"
         id="path2160" /></g><g
       aria-label="BROS."
       transform="matrix(0.93866176,0,0,0.94204373,35.205506,4.7044338)"
       id="text2235"
       style="font-weight:bold;font-size:56.379px;font-family:'Warner Bros Sans';-inkscape-font-specification:'Warner Bros Sans Bold';letter-spacing:3.38711px;stroke-width:0.84678"><path
         d="m 336.1007,276.28538 c 0.076,-13.14645 0.19672,-39.46294 0.19672,-39.46294 5.26784,0.45066 16.04487,1.20358 16.04487,1.20358 4.55563,0.31646 8.16352,1.48753 10.81003,3.53591 2.64506,2.02884 3.97138,4.54104 3.97534,7.53152 0.002,1.55022 -0.42716,2.98544 -1.2863,4.30563 -0.85916,1.30173 -2.10998,2.35266 -3.75114,3.15382 2.58055,0.79734 4.6289,2.04765 6.14259,3.75105 1.5136,1.68484 2.27051,3.70215 2.27219,6.04789 0.003,3.67614 -1.59143,6.57552 -4.77413,8.70245 -3.18161,2.12619 -7.50233,2.97788 -12.95988,2.5565 -5.50178,-0.42478 -11.16365,-0.86294 -16.67029,-1.32541 z m 10.85599,-7.47471 c 1.12444,0.0965 3.34324,0.25527 3.34324,0.25527 3.27705,0.2488 5.6618,-0.0135 7.14724,-0.78515 1.50526,-0.7702 2.257,-1.78172 2.25455,-3.0344 -0.003,-1.12369 -0.51929,-2.08311 -1.5508,-2.87752 -0.76412,-0.59054 -1.85145,-0.93742 -3.26157,-1.04141 -0.51447,-0.0379 -1.0573,-0.0412 -1.62849,-0.01 -2.09591,0.1221 -6.30537,0.32854 -6.30537,0.32854 -0.003,-15.54036 0.004,22.70488 10e-4,7.16452 -3e-5,1e-5 -7e-5,2e-5 -1.1e-4,4e-5 z m -0.003,-14.68726 c 1.32695,-0.0194 3.95695,-0.094 3.95695,-0.094 1.97587,-0.0395 3.42216,-0.41366 4.33467,-1.12067 0.93178,-0.7058 1.39699,-1.5651 1.39509,-2.57757 -10e-4,-1.01249 -0.40366,-1.85985 -1.20438,-2.54217 -0.80071,-0.68232 -1.82834,-1.06746 -3.08197,-1.15667 -1.7977,-0.11789 -5.40169,-0.38994 -5.40169,-0.38994 0,0 0.002,7.88097 0.002,7.88097 -1.1e-4,0 -2.2e-4,0 -3.2e-4,0 z"
         style="font-family:'Warner Bros. Sans';-inkscape-font-specification:'Warner Bros. Sans Bold';fill:#0050b2"
         id="path2965" /><path
         d="m 379.92534,279.82072 c 0.0351,-13.26417 0.074,-39.81692 0.074,-39.81692 5.41118,0.43931 16.24354,1.43009 16.24354,1.43009 5.53453,0.54165 9.81164,2.15516 12.80839,4.77686 3.01775,2.62534 4.48544,5.93553 4.41986,9.89597 -0.0392,2.36267 -0.72301,4.45723 -2.04553,6.28939 -1.30321,1.81627 -3.11735,3.2547 -5.44135,4.32696 3.12509,5.6348 9.26852,16.93094 9.26852,16.93094 -4.13266,-0.52675 -12.41997,-1.51532 -12.41997,-1.51532 -2.25056,-4.26659 -6.82174,-12.79487 -6.82174,-12.79487 -1.72039,0.38068 -5.18499,1.1224 -5.18499,1.1224 -0.0104,3.47202 -0.0626,10.38065 -0.0626,10.38065 -3.61867,-0.36247 -7.21931,-0.70194 -10.83827,-1.02614 z m 10.95363,-18.12094 c 1.83005,-0.40849 5.46608,-1.24295 5.46608,-1.24295 2.22028,-0.4986 3.79851,-1.18442 4.73505,-2.07017 0.93604,-0.88529 1.41153,-1.89373 1.4243,-3.02744 0.0124,-1.09638 -0.45972,-2.11597 -1.41788,-3.05516 -0.93851,-0.95563 -2.43418,-1.54088 -4.48389,-1.74631 -1.8753,-0.17784 -5.65323,-0.54643 -5.65323,-0.54643 0.009,-1.49169 -0.0794,13.18015 -0.0704,11.68846 z"
         style="font-family:'Warner Bros. Sans';-inkscape-font-specification:'Warner Bros. Sans Bold';fill:#0050b2"
         id="path2967" /><path
         d="m 420.89966,264.34556 c 0.0647,-3.19948 0.64359,-6.00323 1.74287,-8.40778 1.09912,-2.40417 2.58134,-4.35291 4.44782,-5.83801 1.8863,-1.50089 4.09827,-2.53683 6.63411,-3.09842 2.53607,-0.56164 5.21811,-0.61044 8.04307,-0.14362 2.82474,0.46678 5.48004,1.38811 7.96229,2.7549 2.50149,1.37009 4.63732,3.11493 6.40461,5.22262 1.76818,2.08953 3.1314,4.49927 4.08969,7.2235 0.97781,2.72812 1.40745,5.67986 1.29187,8.8568 -0.11558,3.17706 -0.75299,5.9422 -1.90809,8.30138 -1.13508,2.34412 -2.6302,4.2268 -4.48297,5.6524 -1.85291,1.42573 -4.04345,2.38822 -6.57129,2.89365 -2.5088,0.50871 -5.16967,0.53525 -7.98691,0.083 -2.81713,-0.45227 -5.44524,-1.32787 -7.89072,-2.63189 -2.44526,-1.30391 -4.5465,-2.96516 -6.30686,-4.99114 -1.74101,-2.02301 -3.10403,-4.36863 -4.08816,-7.04177 -0.98362,-2.69141 -1.44602,-5.63617 -1.38133,-8.83557 0,-1e-5 0,-2e-5 0,-3e-5 z m 11.43132,1.64314 c -0.0475,1.85869 0.15227,3.52178 0.59777,4.98896 0.4648,1.47024 1.08884,2.73191 1.87201,3.78587 0.78323,1.05401 1.69658,1.90529 2.74074,2.55515 1.0634,0.6529 2.162,1.07075 3.2969,1.25416 1.1349,0.18342 2.24838,0.12308 3.34135,-0.18098 1.11221,-0.30087 2.08785,-0.84595 2.92699,-1.63637 0.83914,-0.79041 1.51289,-1.83109 2.0208,-3.12312 0.52781,-1.3072 0.8229,-2.89599 0.88405,-4.76738 0.0605,-1.85293 -0.12806,-3.52525 -0.56689,-5.01756 -0.41942,-1.48883 -1.02173,-2.76713 -1.80707,-3.83378 -0.78529,-1.06661 -1.71453,-1.92422 -2.78717,-2.57095 -1.07209,-0.66528 -2.19083,-1.09408 -3.35538,-1.28528 -1.14514,-0.18802 -2.26805,-0.12735 -3.3679,0.18207 -1.07992,0.29395 -2.03945,0.84272 -2.87816,1.64502 -0.83873,0.80231 -1.52777,1.87194 -2.06729,3.20761 -0.52022,1.33869 -0.8033,2.9378 -0.85075,4.79658 z"
         style="font-family:'Warner Bros. Sans';-inkscape-font-specification:'Warner Bros. Sans Bold';fill:#0050b2"
         id="path2969" /><path
         d="m 468.09567,285.19135 c 2.4623,-1.85907 7.37375,-5.58401 7.37375,-5.58401 1.21628,1.93211 2.74498,3.6438 4.58763,5.13415 1.84337,1.47199 4.12043,2.45907 6.83582,2.96095 1.87558,0.34666 3.24917,0.28521 4.11746,-0.18198 0.86917,-0.48554 1.31931,-1.08458 1.34951,-1.79733 0.0333,-0.78595 -0.28191,-1.50663 -0.94533,-2.16344 -0.64379,-0.65316 -1.6427,-1.30803 -2.99541,-1.96603 -2.4842,-1.20995 -7.46554,-3.67401 -7.46554,-3.67401 -3.91006,-1.90283 -6.68041,-3.99408 -8.31533,-6.26757 -1.63479,-2.2927 -2.40732,-4.62899 -2.31564,-7.00496 0.14714,-3.8128 1.71466,-6.56689 4.71276,-8.24479 3.02064,-1.67578 6.95114,-2.02569 11.81488,-1.0736 3.8207,0.74792 7.23697,2.01003 10.23552,3.77323 3.02017,1.74935 5.51002,3.99928 7.46142,6.75318 -2.53586,1.90806 -7.60529,5.6656 -7.60529,5.6656 -1.05552,-1.74069 -2.49364,-3.33491 -4.31204,-4.78532 -1.79766,-1.46467 -3.94212,-2.43916 -6.42826,-2.91909 -1.37061,-0.26458 -2.45716,-0.20721 -3.26123,0.17345 -0.80391,0.38059 -1.22237,0.98402 -1.25609,1.80964 -0.0292,0.71549 0.29624,1.4255 0.97636,2.12913 0.68055,0.68496 1.94879,1.47411 3.80467,2.36345 1.99251,0.95325 5.95432,2.81506 5.95432,2.81506 4.57407,2.18469 7.7383,4.37364 9.47015,6.59108 1.73364,2.20046 2.55107,4.46761 2.44923,6.81752 -0.0742,1.71165 -0.50985,3.26904 -1.30611,4.67276 -0.79618,1.40356 -1.94848,2.55299 -3.45435,3.44622 -1.48543,0.87844 -3.35221,1.45887 -5.59672,1.73839 -2.24399,0.2613 -4.82084,0.12801 -7.72894,-0.40182 -4.15541,-0.75707 -7.77587,-2.06992 -10.86778,-3.93396 -3.09167,-1.88272 -5.51973,-4.16462 -7.28942,-6.8459 z"
         style="font-family:'Warner Bros. Sans';-inkscape-font-specification:'Warner Bros. Sans Bold';fill:#0050b2"
         id="path2971" /><path
         d="m 511.73094,294.73467 c 0.0653,-1.49078 0.72623,-2.66435 1.9853,-3.52521 1.28014,-0.87615 2.77678,-1.18061 4.49348,-0.92105 1.75645,0.26557 3.22375,1.01758 4.39859,2.26169 1.19591,1.22906 1.76202,2.58264 1.69605,4.07152 -0.0659,1.4877 -0.74456,2.67375 -2.03316,3.55101 -1.26827,0.87987 -2.78182,1.1914 -4.53752,0.92832 -1.71564,-0.25707 -3.16564,-1.0122 -4.35194,-2.26017 -1.16634,-1.24477 -1.71598,-2.61624 -1.6508,-4.10611 z"
         style="font-family:'Warner Bros. Sans';-inkscape-font-specification:'Warner Bros. Sans Bold';fill:#0050b2"
         id="path2973" /></g></g></g></svg>
